<svg width="71" height="27" viewBox="0 0 71 27" fill="none" xmlns="http://www.w3.org/2000/svg">
<g clip-path="url(#clip0_432_8074)">
<g clip-path="url(#clip1_432_8074)">
<path fill-rule="evenodd" clip-rule="evenodd" d="M63.1897 19.2789H64.2807C64.3961 19.2789 64.4894 19.1837 64.4894 19.0663V19.0608V16.2067H66.3542C68.4202 16.2067 70.1109 15.087 70.1109 12.9434C70.1109 10.991 68.7292 9.72118 66.5421 9.72118H63.1897C62.996 9.72118 62.8391 9.88088 62.8391 10.0778V18.9223C62.8391 19.1193 62.996 19.2789 63.1897 19.2789ZM31.1236 17.8501L31.1236 17.8557C31.1236 17.9254 31.0907 17.9873 31.0398 18.0261C30.1183 18.8001 28.8201 19.4427 27.206 19.4427C24.2679 19.4427 22.3359 17.3126 22.3359 14.5C22.3359 11.8238 24.3484 9.55725 27.1792 9.55725C28.6492 9.55725 29.6106 9.93168 30.4912 10.6115L30.493 10.6129C30.5815 10.6778 30.6391 10.7833 30.6391 10.9028C30.6391 10.9932 30.606 11.0759 30.5514 11.1387L30.5541 11.1385L29.8804 11.9561C29.8421 12.0062 29.7824 12.0384 29.7153 12.0384C29.6668 12.0384 29.6221 12.0215 29.5866 11.9932L29.5824 11.9899C28.9105 11.4403 28.2187 11.1001 27.1121 11.1001C25.3814 11.1001 24.0666 12.6431 24.0666 14.5C24.0666 16.4662 25.3411 17.9135 27.2597 17.9135C28.1452 17.9135 28.9502 17.6268 29.5271 17.1898V15.4012H27.3398H27.3344C27.219 15.4012 27.1255 15.306 27.1255 15.1886L27.1256 15.183V14.1586L27.1255 14.1528C27.1255 14.0353 27.219 13.9402 27.3344 13.9402H27.3398H30.9148C31.0302 13.9403 31.1236 14.0355 31.1236 14.1529L31.1236 14.1583V17.8501ZM33.1741 19.2789H34.2651C34.3805 19.2789 34.474 19.1837 34.474 19.0663L34.4739 19.0608V15.9473H36.5131L38.7468 19.1351L38.7472 19.1345C38.811 19.2222 38.9134 19.2789 39.0288 19.2789H40.3877C40.5031 19.2789 40.5965 19.1837 40.5965 19.0663C40.5965 19.0166 40.5798 18.9709 40.5516 18.9346L38.2573 15.6605C39.5721 15.2783 40.4978 14.3361 40.4978 12.7661C40.4978 10.9226 39.2098 9.72118 37.0096 9.72118H33.1787L33.1741 9.72104C32.9806 9.72104 32.8237 9.88082 32.8237 10.0777V18.9223C32.8237 19.1193 32.9806 19.2789 33.1741 19.2789ZM34.4739 14.459V11.4629C34.4739 11.3455 34.5675 11.2504 34.6829 11.2504H36.8754C38.0962 11.2504 38.8207 11.8102 38.8207 12.8341C38.8207 13.831 38.0695 14.459 36.8888 14.459H34.4739ZM46.5708 19.4427C49.4554 19.4427 51.4947 17.1898 51.4947 14.5C51.4947 11.7829 49.4822 9.55725 46.5977 9.55725C43.7131 9.55725 41.6738 11.8102 41.6738 14.5C41.6738 17.2171 43.6863 19.4427 46.5708 19.4427ZM46.5977 17.8999C44.7328 17.8999 43.4046 16.3569 43.4046 14.5C43.4046 12.6157 44.7059 11.1001 46.5708 11.1001C48.4357 11.1001 49.764 12.6431 49.764 14.5C49.764 16.3843 48.4625 17.8999 46.5977 17.8999ZM56.8976 19.4291C59.3529 19.4291 60.936 17.9955 60.936 15.1418V10.0778C60.936 9.88088 60.7791 9.72118 60.5856 9.72118H59.4946C59.3792 9.72118 59.2857 9.81631 59.2857 9.93373L59.2857 9.93926V15.2237C59.2857 16.9849 58.3869 17.8862 56.9245 17.8862C55.4486 17.8862 54.5497 16.9304 54.5497 15.1554V9.93926V9.93373C54.5497 9.81631 54.4564 9.72118 54.3409 9.72118H53.25C53.0563 9.72118 52.8995 9.88088 52.8995 10.0778V15.2237C52.8995 17.9955 54.4558 19.4291 56.8976 19.4291ZM64.4894 14.6912V11.4629C64.4894 11.3455 64.5828 11.2504 64.6982 11.2504H66.4078C67.642 11.2504 68.4334 11.8374 68.4334 12.9573C68.4334 13.9811 67.6558 14.6912 66.4078 14.6912H64.4894Z" fill="white"/>
<path fill-rule="evenodd" clip-rule="evenodd" d="M19.709 14.4997C19.709 18.6103 17.2299 21.2402 14.0566 22.39C12.8306 22.8342 11.5013 23.0563 10.1731 23.0563C8.84485 23.0563 7.51542 22.8342 6.28951 22.39C3.11612 21.2402 0.636963 18.6103 0.636963 14.4997C0.636963 10.3894 3.11612 7.75943 6.28944 6.60972C7.51536 6.16539 8.84479 5.94336 10.173 5.94336C11.5012 5.94336 12.8306 6.16539 14.0565 6.60972C17.2299 7.75943 19.709 10.3894 19.709 14.4997ZM13.9106 21.9686C16.9189 20.8786 19.2694 18.3888 19.2694 14.4997C19.2694 10.6109 16.9189 8.12091 13.9105 7.03101C12.7326 6.6042 11.4533 6.39083 10.173 6.39083C8.89272 6.39083 7.6133 6.6042 6.4354 7.03101C3.42709 8.12091 1.07665 10.6109 1.07665 14.4997C1.07665 18.3888 3.42709 20.8786 6.43553 21.9686C7.61336 22.3954 8.89278 22.6089 10.1731 22.6089C11.4533 22.6089 12.7327 22.3954 13.9106 21.9686Z" fill="#FEFEFE"/>
<path fill-rule="evenodd" clip-rule="evenodd" d="M4.98963 19.3282H8.86646C11.0097 19.3282 12.4203 18.4455 12.4203 16.6796C12.4203 15.3549 11.7418 14.7068 10.6434 14.279C11.3214 13.8927 11.8915 13.286 11.8915 12.1958C11.8915 10.3848 10.3412 9.6712 8.75799 9.6712H4.98963C4.79733 9.6712 4.64148 9.82988 4.64148 10.0257V10.027V18.9738C4.64148 19.1696 4.79733 19.3282 4.98963 19.3282ZM6.67647 13.5756V11.7463C6.67653 11.6288 6.76993 11.5337 6.88533 11.5337H8.44595C9.32751 11.5337 9.81594 11.8923 9.81594 12.5271C9.81594 13.272 9.23248 13.5756 8.31043 13.5756H6.67647ZM6.67647 17.2531V15.3413H8.7986C9.86998 15.3413 10.3447 15.7416 10.3447 16.3897C10.3447 17.1348 9.78857 17.4658 8.86646 17.4658H6.88533C6.76993 17.4658 6.67647 17.3706 6.67647 17.2531ZM13.8244 19.3282H15.3563C15.5486 19.3282 15.7044 19.1697 15.7044 18.9738V10.0257C15.7043 9.82987 15.5486 9.6712 15.3563 9.6712H13.8244C13.709 9.6712 13.6156 9.76633 13.6155 9.88382V19.1157C13.6155 19.2331 13.709 19.3282 13.8244 19.3282Z" fill="white"/>
</g>
</g>
<defs>
<clipPath id="clip0_432_8074">
<rect width="70" height="26" fill="white" transform="translate(0.11084 0.5)"/>
</clipPath>
<clipPath id="clip1_432_8074">
<rect width="70" height="18" fill="white" transform="translate(0.11084 5.5)"/>
</clipPath>
</defs>
</svg>
