<svg width="71" height="27" viewBox="0 0 71 27" fill="none" xmlns="http://www.w3.org/2000/svg">
<g clip-path="url(#clip0_432_8878)">
<path fill-rule="evenodd" clip-rule="evenodd" d="M10.7848 0.5H13.2479V16.7855H10.7848V0.5ZM15.7893 5.68581H18.2524V16.7853H15.7893V5.68581ZM15.7869 26.4999H18.25V17.9854H15.7869V26.4999ZM13.2456 22.8013H10.7825V17.9852H13.2456V22.8013Z" fill="white"/>
<path d="M25.8928 20.3148V20.4997H25.7512V20.303C25.7512 20.0631 25.6567 19.882 25.4128 19.882C25.1688 19.882 25.0744 20.0631 25.0744 20.303V21.4638C25.0744 21.7037 25.1688 21.8808 25.4128 21.8808C25.6567 21.8808 25.7512 21.7037 25.7512 21.4638V21.2001H25.8928V21.4559C25.8928 21.7785 25.7512 22.0224 25.4128 22.0224C25.0704 22.0224 24.9288 21.7785 24.9288 21.4559V20.3148C24.9288 19.9922 25.0704 19.7483 25.4128 19.7483C25.7551 19.7483 25.8928 19.9922 25.8928 20.3148Z" fill="white"/>
<path d="M28.0379 20.3148C28.0379 19.9882 28.1874 19.7483 28.5259 19.7483C28.8721 19.7483 29.0216 19.9882 29.0216 20.3148V21.4559C29.0216 21.7825 28.8721 22.0224 28.5259 22.0224C28.1874 22.0224 28.0379 21.7825 28.0379 21.4559V20.3148ZM28.1874 21.4677C28.1874 21.7116 28.2819 21.8886 28.5298 21.8886C28.7776 21.8886 28.876 21.7116 28.876 21.4677V20.3069C28.876 20.0631 28.7776 19.8859 28.5298 19.8859C28.2858 19.8859 28.1874 20.0631 28.1874 20.3069V21.4677Z" fill="white"/>
<path d="M31.3153 22.0028H31.1815V19.7679H31.3742L32.0432 21.6526V19.7679H32.177V22.0028H32.0157L31.3153 20.0118V22.0028Z" fill="white"/>
<path d="M35.2851 20.3069V20.3542H35.1435V20.2951C35.1435 20.0591 35.0529 19.8819 34.8129 19.8819C34.5729 19.8819 34.4824 20.0591 34.4824 20.2951C34.4824 20.8381 35.2891 20.846 35.2891 21.4637C35.2891 21.7864 35.1474 22.0224 34.809 22.0224C34.4667 22.0224 34.325 21.7864 34.325 21.4637V21.3496H34.4667V21.4755C34.4667 21.7155 34.5611 21.8886 34.805 21.8886C35.049 21.8886 35.1435 21.7155 35.1435 21.4755C35.1435 20.9404 34.3368 20.9286 34.3368 20.3069C34.3368 19.9725 34.4824 19.7561 34.8129 19.7522C35.1474 19.7483 35.2851 19.9843 35.2851 20.3069Z" fill="white"/>
<path d="M37.8265 22.0028V19.9017H37.3701V19.7679H38.4285V19.9017H37.9721V22.0028H37.8265Z" fill="white"/>
<path d="M40.9979 19.7679C41.3402 19.7679 41.4779 19.9568 41.4779 20.2715V20.4682C41.4779 20.7319 41.3756 20.8814 41.1553 20.9325C41.3834 20.9838 41.4779 21.1451 41.4779 21.389V21.7353C41.4779 21.8296 41.4858 21.932 41.5329 22.0028H41.3795C41.3402 21.9359 41.3323 21.8572 41.3323 21.7353V21.385C41.3323 21.0899 41.171 21.0034 40.9152 21.0034H40.6831V22.0028H40.5297V19.7679H40.9979ZM40.9152 20.8696C41.1789 20.8696 41.3284 20.7949 41.3284 20.4959V20.2833C41.3284 20.0434 41.2339 19.9017 40.9939 19.9017H40.6792V20.8696H40.9152Z" fill="white"/>
<path d="M43.8187 21.4638C43.8187 21.7037 43.9093 21.8887 44.1531 21.8887C44.3971 21.8887 44.4876 21.7037 44.4876 21.4638V19.7679H44.6253V21.4559C44.6253 21.7746 44.4915 22.0224 44.1492 22.0224C43.8069 22.0224 43.6692 21.7785 43.6692 21.4559V19.7679H43.8148V21.4638H43.8187Z" fill="white"/>
<path d="M47.7503 20.3148V20.4997H47.6087V20.303C47.6087 20.0631 47.5143 19.882 47.2703 19.882C47.0264 19.882 46.932 20.0631 46.932 20.303V21.4638C46.932 21.7037 47.0264 21.8808 47.2703 21.8808C47.5143 21.8808 47.6087 21.7037 47.6087 21.4638V21.2001H47.7503V21.4559C47.7503 21.7785 47.6087 22.0224 47.2703 22.0224C46.928 22.0224 46.7864 21.7785 46.7864 21.4559V20.3148C46.7864 19.9922 46.928 19.7483 47.2703 19.7483C47.6087 19.7483 47.7503 19.9922 47.7503 20.3148Z" fill="white"/>
<path d="M50.2878 22.0028V19.9017H49.8314V19.7679H50.8898V19.9017H50.4374V22.0028H50.2878Z" fill="white"/>
<path d="M53.1445 19.7679V22.0028H52.999V19.7679H53.1445Z" fill="white"/>
<path d="M55.3048 20.3148C55.3048 19.9882 55.4543 19.7483 55.7927 19.7483C56.1389 19.7483 56.2884 19.9882 56.2884 20.3148V21.4559C56.2884 21.7825 56.1389 22.0224 55.7927 22.0224C55.4543 22.0224 55.3048 21.7825 55.3048 21.4559V20.3148ZM55.4504 21.4677C55.4504 21.7116 55.5448 21.8886 55.7927 21.8886C56.0405 21.8886 56.1389 21.7116 56.1389 21.4677V20.3069C56.1389 20.0631 56.0405 19.8859 55.7927 19.8859C55.5487 19.8859 55.4504 20.0631 55.4504 20.3069V21.4677Z" fill="white"/>
<path d="M58.5781 22.0028H58.4443V19.7679H58.6371L59.306 21.6526V19.7679H59.4397V22.0028H59.2784L58.5781 20.0118V22.0028Z" fill="white"/>
<path d="M25.8928 24.7923V24.9576H25.7512V24.7805C25.7512 24.5406 25.6567 24.3595 25.4128 24.3595C25.1688 24.3595 25.0744 24.5406 25.0744 24.7805V25.9413C25.0744 26.1813 25.1688 26.3583 25.4128 26.3583C25.6567 26.3583 25.7512 26.1813 25.7512 25.9413V25.4613H25.4561V25.3275H25.8928V25.9334C25.8928 26.2561 25.7512 26.5 25.4128 26.5C25.0704 26.5 24.9288 26.2561 24.9288 25.9334V24.7923C24.9288 24.4697 25.0704 24.2258 25.4128 24.2258C25.7551 24.2258 25.8928 24.4697 25.8928 24.7923Z" fill="white"/>
<path d="M28.5223 24.2455C28.8646 24.2455 29.0023 24.4343 29.0023 24.7491V24.9458C29.0023 25.2094 28.9 25.359 28.6797 25.4101C28.9078 25.4612 29.0023 25.6226 29.0023 25.8665V26.2127C29.0023 26.3072 29.0102 26.4095 29.0574 26.4803H28.9039C28.8646 26.4135 28.8567 26.3347 28.8567 26.2127V25.8626C28.8567 25.5675 28.6954 25.481 28.4396 25.481H28.2075V26.4803H28.062V24.2455H28.5223ZM28.4396 25.3472C28.7033 25.3472 28.8528 25.2723 28.8528 24.9733V24.7609C28.8528 24.5208 28.7583 24.3792 28.5184 24.3792H28.2036V25.3472H28.4396Z" fill="white"/>
<path d="M31.1935 24.7923C31.1935 24.4658 31.343 24.2258 31.6814 24.2258C32.0276 24.2258 32.1771 24.4658 32.1771 24.7923V25.9334C32.1771 26.26 32.0276 26.5 31.6814 26.5C31.343 26.5 31.1935 26.26 31.1935 25.9334V24.7923ZM31.3391 25.9413C31.3391 26.1852 31.4335 26.3623 31.6814 26.3623C31.9293 26.3623 32.0276 26.1852 32.0276 25.9413V24.7805C32.0276 24.5367 31.9293 24.3596 31.6814 24.3596C31.4375 24.3596 31.3391 24.5367 31.3391 24.7805V25.9413Z" fill="white"/>
<path d="M34.4745 25.9413C34.4745 26.1813 34.5651 26.3662 34.809 26.3662C35.0529 26.3662 35.1435 26.1813 35.1435 25.9413V24.2455H35.2811V25.9334C35.2811 26.2521 35.1474 26.5 34.805 26.5C34.4627 26.5 34.325 26.2561 34.325 25.9334V24.2455H34.4706V25.9413H34.4745Z" fill="white"/>
<path d="M37.9081 24.2455C38.2543 24.2455 38.3881 24.4618 38.3881 24.7884V25.0324C38.3881 25.3865 38.2268 25.5635 37.8726 25.5635H37.5933V26.4842H37.4478V24.2494H37.9081V24.2455ZM37.8726 25.4258C38.1323 25.4258 38.2425 25.3117 38.2425 25.0403V24.7766C38.2425 24.5326 38.1599 24.3792 37.912 24.3792H37.5973V25.4258H37.8726Z" fill="white"/>
<path d="M25.3264 16.1638H24.9408V13.7047H25.3264V14.7591H25.7671V13.7047H26.1605V16.1638H25.7671V15.1093H25.3264V16.1638Z" fill="white"/>
<path d="M29.7999 16.1638H29.4104L29.3435 15.7192H28.8674L28.8005 16.1638H28.4464L28.8399 13.7047H29.4064L29.7999 16.1638ZM28.9185 15.3847H29.2924L29.1074 14.1414L28.9185 15.3847Z" fill="white"/>
<path d="M32.4486 15.3494L31.9608 13.7047H32.3661L32.6611 14.826L32.9562 13.7047H33.3261L32.8382 15.3494V16.1638H32.4526V15.3494H32.4486Z" fill="white"/>
<path d="M36.662 16.1638H36.2725L36.2056 15.7192H35.7295L35.6626 16.1638H35.3085L35.7019 13.7047H36.2686L36.662 16.1638ZM35.7807 15.3847H36.1544L35.9656 14.1414L35.7807 15.3847Z" fill="white"/>
<path d="M38.8389 13.7047H40.0351V14.0548H39.6299V16.1638H39.2442V14.0548H38.8389V13.7047Z" fill="white"/>
</g>
<defs>
<clipPath id="clip0_432_8878">
<rect width="70" height="26" fill="white" transform="translate(0.11084 0.5)"/>
</clipPath>
</defs>
</svg>
