<svg width="71" height="27" viewBox="0 0 71 27" fill="none" xmlns="http://www.w3.org/2000/svg">
<g clip-path="url(#clip0_432_8948)">
<g clip-path="url(#clip1_432_8948)">
<path d="M0.252014 9.18879H2.57251L4.32601 14.4916H4.34701L6.00601 9.18879H8.32651V16.9H6.78301V11.4352H6.76201L4.92451 16.9H3.65401L1.81651 11.4892H1.79551V16.9H0.252014V9.18879ZM11.1009 13.0768C11.1009 13.4008 11.1359 13.7176 11.2059 14.0272C11.2829 14.3296 11.4019 14.6032 11.5629 14.848C11.7239 15.0928 11.9339 15.2908 12.1929 15.442C12.4519 15.586 12.7669 15.658 13.1379 15.658C13.5089 15.658 13.8239 15.586 14.0829 15.442C14.3419 15.2908 14.5519 15.0928 14.7129 14.848C14.8739 14.6032 14.9894 14.3296 15.0594 14.0272C15.1364 13.7176 15.1749 13.4008 15.1749 13.0768C15.1749 12.7384 15.1364 12.4108 15.0594 12.094C14.9894 11.7772 14.8739 11.4964 14.7129 11.2516C14.5519 10.9996 14.3419 10.8016 14.0829 10.6576C13.8239 10.5064 13.5089 10.4308 13.1379 10.4308C12.7669 10.4308 12.4519 10.5064 12.1929 10.6576C11.9339 10.8016 11.7239 10.9996 11.5629 11.2516C11.4019 11.4964 11.2829 11.7772 11.2059 12.094C11.1359 12.4108 11.1009 12.7384 11.1009 13.0768ZM9.4524 13.0768C9.4524 12.5008 9.53641 11.968 9.7044 11.4784C9.87241 10.9816 10.1139 10.5496 10.4289 10.1824C10.7439 9.81519 11.1289 9.52719 11.5839 9.31839C12.0459 9.10959 12.5639 9.00519 13.1379 9.00519C13.7189 9.00519 14.2369 9.10959 14.6919 9.31839C15.1469 9.52719 15.5319 9.81519 15.8469 10.1824C16.1619 10.5496 16.4034 10.9816 16.5714 11.4784C16.7394 11.968 16.8234 12.5008 16.8234 13.0768C16.8234 13.6384 16.7394 14.164 16.5714 14.6536C16.4034 15.136 16.1619 15.5572 15.8469 15.9172C15.5319 16.2772 15.1469 16.5616 14.6919 16.7704C14.2369 16.972 13.7189 17.0728 13.1379 17.0728C12.5639 17.0728 12.0459 16.972 11.5839 16.7704C11.1289 16.5616 10.7439 16.2772 10.4289 15.9172C10.1139 15.5572 9.87241 15.136 9.7044 14.6536C9.53641 14.164 9.4524 13.6384 9.4524 13.0768ZM17.4672 15.5608L21.4887 10.6144H17.7822V9.18879H23.6832V10.528L19.6617 15.4744H23.7882V16.9H17.4672V15.5608ZM26.6488 13.9192H28.5913L27.6463 11.0896H27.6253L26.6488 13.9192ZM26.8063 9.18879H28.4968L31.3003 16.9H29.5888L29.0218 15.1828H26.2183L25.6303 16.9H23.9713L26.8063 9.18879ZM33.5953 12.6772H35.4013C35.7793 12.6772 36.0628 12.5908 36.2518 12.418C36.4408 12.2452 36.5353 11.9644 36.5353 11.5756C36.5353 11.2012 36.4408 10.9312 36.2518 10.7656C36.0628 10.5928 35.7793 10.5064 35.4013 10.5064H33.5953V12.6772ZM31.9468 9.18879H35.9893C36.3253 9.18879 36.6263 9.24639 36.8923 9.36159C37.1653 9.46959 37.3963 9.62079 37.5853 9.81519C37.7813 10.0096 37.9283 10.2364 38.0263 10.4956C38.1313 10.7476 38.1838 11.0212 38.1838 11.3164C38.1838 11.77 38.0893 12.1624 37.9003 12.4936C37.7183 12.8248 37.4173 13.0768 36.9973 13.2496V13.2712C37.2003 13.3288 37.3683 13.4188 37.5013 13.5412C37.6343 13.6564 37.7428 13.7968 37.8268 13.9624C37.9108 14.1208 37.9703 14.2972 38.0053 14.4916C38.0473 14.686 38.0753 14.8804 38.0893 15.0748C38.0964 15.1972 38.1033 15.3412 38.1103 15.5068C38.1173 15.6724 38.1278 15.8416 38.1418 16.0144C38.1628 16.1872 38.1908 16.3528 38.2258 16.5112C38.2678 16.6624 38.3274 16.792 38.4044 16.9H36.7558C36.6648 16.6552 36.6088 16.3636 36.5878 16.0252C36.5668 15.6868 36.5353 15.3628 36.4933 15.0532C36.4373 14.65 36.3183 14.3548 36.1363 14.1676C35.9543 13.9804 35.6568 13.8868 35.2438 13.8868H33.5953V16.9H31.9468V9.18879ZM40.9989 10.6144H38.7519V9.18879H44.8944V10.6144H42.6474V16.9H40.9989V10.6144ZM50.3297 12.31H51.9992C52.2932 12.31 52.5347 12.238 52.7237 12.094C52.9127 11.95 53.0072 11.716 53.0072 11.392C53.0072 11.212 52.9757 11.0644 52.9127 10.9492C52.8497 10.834 52.7657 10.744 52.6607 10.6792C52.5557 10.6144 52.4332 10.5712 52.2932 10.5496C52.1602 10.5208 52.0202 10.5064 51.8732 10.5064H50.3297V12.31ZM48.6812 9.18879H52.2092C52.5662 9.18879 52.8917 9.22119 53.1857 9.28599C53.4797 9.35079 53.7317 9.45879 53.9417 9.60999C54.1517 9.75399 54.3127 9.94839 54.4247 10.1932C54.5437 10.438 54.6032 10.7404 54.6032 11.1004C54.6032 11.4892 54.5157 11.8132 54.3407 12.0724C54.1727 12.3316 53.9207 12.544 53.5847 12.7096C54.0467 12.8464 54.3897 13.0876 54.6137 13.4332C54.8447 13.7716 54.9602 14.182 54.9602 14.6644C54.9602 15.0532 54.8867 15.3916 54.7397 15.6796C54.5927 15.9604 54.3932 16.1908 54.1412 16.3708C53.8962 16.5508 53.6127 16.684 53.2907 16.7704C52.9757 16.8568 52.6502 16.9 52.3142 16.9H48.6812V9.18879ZM50.3297 15.5824H52.0937C52.2547 15.5824 52.4087 15.568 52.5557 15.5392C52.7027 15.5032 52.8322 15.4492 52.9442 15.3772C53.0562 15.298 53.1437 15.1936 53.2067 15.064C53.2767 14.9344 53.3117 14.7688 53.3117 14.5672C53.3117 14.1712 53.2032 13.8904 52.9862 13.7248C52.7692 13.552 52.4822 13.4656 52.1252 13.4656H50.3297V15.5824ZM57.9643 13.9192H59.9066L58.9616 11.0896H58.9406L57.9643 13.9192ZM58.1218 9.18879H59.8121L62.6156 16.9H60.9041L60.3371 15.1828H57.5338L56.9458 16.9H55.2868L58.1218 9.18879ZM69.6255 13.984C69.6255 15.028 69.342 15.8056 68.775 16.3168C68.208 16.8208 67.424 17.0728 66.423 17.0728C65.408 17.0728 64.6205 16.8208 64.0605 16.3168C63.5075 15.8128 63.231 15.0352 63.231 13.984V9.18879H64.8795V13.984C64.8795 14.1928 64.897 14.398 64.932 14.5996C64.967 14.8012 65.0405 14.9812 65.1525 15.1396C65.2645 15.2908 65.4185 15.4168 65.6145 15.5176C65.8175 15.6112 66.087 15.658 66.423 15.658C67.011 15.658 67.417 15.5248 67.641 15.2584C67.865 14.9848 67.977 14.56 67.977 13.984V9.18879H69.6255V13.984Z" fill="white"/>
</g>
</g>
<defs>
<clipPath id="clip0_432_8948">
<rect width="70" height="26" fill="white" transform="translate(0.11084 0.5)"/>
</clipPath>
<clipPath id="clip1_432_8948">
<rect width="70" height="9" fill="white" transform="translate(0.11084 8.5)"/>
</clipPath>
</defs>
</svg>
