<svg width="71" height="27" viewBox="0 0 71 27" fill="none" xmlns="http://www.w3.org/2000/svg">
<g clip-path="url(#clip0_432_8047)">
<path d="M14.4233 6.92851V7.81244H16.1733H17.9233V6.92851V6.04458H16.1733H14.4233V6.92851Z" fill="white"/>
<path d="M25.215 11.4807V16.9464H26.09H26.965V15.0312V13.116H28.2484H29.5171L30.6692 14.9722C31.3109 15.9888 31.9088 16.858 31.9963 16.9022C32.0984 16.9316 32.565 16.9464 33.0463 16.9169L33.9213 16.8727L32.7692 15.0312L31.6171 13.1897L32.2004 13.0865C33.615 12.8361 33.965 12.1437 33.965 9.53608C33.965 7.47358 33.7754 6.91376 32.9442 6.41287C32.4775 6.14769 32.1421 6.11823 28.8317 6.07403L25.215 6.02983V11.4807ZM31.8504 7.81242L32.2296 7.95974L32.1859 9.6834L32.1421 11.4218L29.5609 11.466L26.965 11.4955V9.58028V7.6651H29.2109C30.4504 7.6651 31.6317 7.72403 31.8504 7.81242Z" fill="white"/>
<path d="M39.6525 6.36867C39.565 6.56019 38.7338 9.00572 37.7858 11.8196L36.065 16.9464H36.9692H37.8733L38.3838 15.5026L38.8942 14.0736H40.965H43.0504L43.3129 14.8838C43.4733 15.3258 43.6921 15.974 43.8233 16.3129L44.0567 16.9464H44.9171C45.3838 16.9464 45.7775 16.8874 45.7775 16.8138C45.7775 16.6959 42.4963 7.04635 42.2046 6.29501C42.1171 6.08876 41.9129 6.04456 40.9504 6.04456C39.8858 6.04456 39.7838 6.07403 39.6525 6.36867ZM41.6942 10.1696C42.0442 11.1861 42.3504 12.0995 42.3942 12.1879C42.4379 12.3352 42.1025 12.3794 40.9796 12.3794C40.1629 12.3794 39.5067 12.3352 39.5067 12.2615C39.4921 11.9816 40.8921 8.1218 40.9796 8.22492C41.0233 8.28385 41.3442 9.15305 41.6942 10.1696Z" fill="white"/>
<path d="M48.1108 11.4955V16.9464H48.9129H49.715V12.7182C49.715 10.3463 49.7733 8.54903 49.8463 8.62269C49.9046 8.71108 50.4442 10.0075 51.0421 11.5397L52.1213 14.2946L53.1858 14.2651L54.265 14.2209L55.3588 11.4955C55.9567 9.99278 56.5108 8.71108 56.5838 8.62269C56.6567 8.54903 56.715 10.199 56.715 12.7182V16.9464H57.5171H58.3192V11.4955V6.04456H57.0358H55.7525L54.5275 9.13831C53.8567 10.8325 53.2733 12.2321 53.215 12.2321C53.1713 12.2321 52.5733 10.8472 51.9025 9.13831L50.6629 6.04456H49.3942H48.1108V11.4955Z" fill="white"/>
<path d="M62.9858 6.20667C61.9796 6.51604 61.5275 7.28212 61.5275 8.6964C61.5275 10.4201 62.0963 11.083 64.2546 11.7902C66.7046 12.6152 68.2796 13.2486 68.3963 13.4402C68.4692 13.5433 68.5275 13.941 68.5275 14.3241C68.5275 14.8692 68.4692 15.0607 68.2504 15.1785C67.8421 15.3995 63.6713 15.3701 63.4525 15.1491C63.3504 15.046 63.2775 14.5745 63.2775 14.0442V13.116H62.3879H61.4838L61.5567 14.3683C61.6004 15.3259 61.6879 15.7236 61.9213 16.033C62.49 16.7991 62.8108 16.8727 65.9025 16.8727C69.0817 16.8727 69.4608 16.7843 69.9421 15.871C70.3213 15.1785 70.2921 13.3518 69.8983 12.6741C69.49 11.9669 68.8483 11.6281 66.0046 10.6705C64.3713 10.1254 63.5254 9.75712 63.4233 9.58033C63.3358 9.43301 63.2775 9.00578 63.2775 8.63747C63.2775 8.12185 63.3504 7.93033 63.5546 7.81247C63.715 7.73881 64.765 7.66515 65.9025 7.66515C67.04 7.66515 68.09 7.73881 68.2504 7.81247C68.4838 7.94506 68.5275 8.13658 68.5275 8.91738V9.87497H69.4171H70.3213L70.2483 8.72587C70.1754 7.39997 69.8838 6.75176 69.2129 6.38346C68.8192 6.16247 68.3233 6.11828 66.1213 6.08881C64.6483 6.07408 63.2775 6.13301 62.9858 6.20667Z" fill="white"/>
<path d="M10.7775 10.6116V11.4955H14.3504H17.9234V10.6116V9.72763H14.3504H10.7775V10.6116Z" fill="white"/>
<path d="M7.27753 14.2946V15.1785H12.6004H17.9234V14.2946V13.4107H12.6004H7.27753V14.2946Z" fill="white"/>
<path d="M3.63165 17.8303V18.7142H10.7775H17.9233V17.8303V16.9464H10.7775H3.63165V17.8303Z" fill="white"/>
<path d="M25.5796 20.5558C25.1129 21.0125 25.0983 21.646 25.5504 22.0732C25.8129 22.3236 26.0317 22.3826 26.6296 22.3531C27.0671 22.3384 27.3442 22.2647 27.2858 22.1763C27.2421 22.1027 27.2129 21.7785 27.2275 21.4397C27.2713 20.7768 27.1838 20.6 26.7171 20.3495C26.2358 20.0991 25.9733 20.1433 25.5796 20.5558ZM26.7025 20.7326C26.8483 20.8652 26.965 21.1745 26.965 21.425C26.965 21.7638 26.9213 21.8227 26.79 21.6902C26.6879 21.587 26.5129 21.5134 26.3963 21.5134C26.2358 21.5134 26.2504 21.587 26.4692 21.8227C26.7317 22.1321 26.7317 22.1321 26.2358 22.0732C25.5796 22.0143 25.3317 21.4397 25.7108 20.8652C25.9879 20.4232 26.3233 20.379 26.7025 20.7326Z" fill="white"/>
<path d="M47.6004 20.3642C47.1775 20.6 47.09 20.7767 47.09 21.3955C47.09 22.1026 47.5713 22.4709 48.3296 22.3531C48.6067 22.3089 48.8692 22.3383 48.9275 22.412C48.9713 22.4857 49.0734 22.5151 49.1463 22.4562C49.2484 22.3973 49.2338 22.3089 49.1463 22.191C49.0588 22.0879 49.0296 21.7638 49.0879 21.4839C49.1463 21.0419 49.1025 20.8799 48.7963 20.5705C48.3879 20.158 48.0525 20.0991 47.6004 20.3642ZM48.6796 20.9388C48.9275 21.3808 48.7963 21.97 48.5192 21.6901C48.4171 21.587 48.2859 21.5133 48.1984 21.5133C48.1109 21.5133 48.1254 21.587 48.2275 21.6901C48.49 21.9553 48.4317 22.1026 48.0671 22.1026C47.615 22.1026 47.3817 21.8375 47.3817 21.3513C47.3817 20.4968 48.2713 20.2022 48.6796 20.9388Z" fill="white"/>
<path d="M53.04 20.3495C52.7337 20.5263 52.69 20.9977 52.9671 21.1745C53.0546 21.2334 53.3462 21.3513 53.5796 21.4397C53.8275 21.5133 54.0171 21.6901 54.0171 21.808C54.0171 22.1321 53.3462 22.1763 53.1129 21.8669C52.8796 21.5428 52.6608 21.7343 52.865 22.0732C53.0546 22.3825 53.8858 22.4857 54.1775 22.2352C54.5858 21.8964 54.4108 21.5133 53.7108 21.2187C53.0108 20.9093 52.9087 20.6 53.4921 20.5116C53.6816 20.4821 53.9004 20.5705 54.0171 20.7325C54.1191 20.8799 54.265 20.9388 54.3379 20.8799C54.4837 20.7178 53.8566 20.1875 53.5212 20.1875C53.39 20.1875 53.1712 20.2611 53.04 20.3495Z" fill="white"/>
<path d="M31.3255 21.3071C30.9171 22.2499 30.8734 22.7508 31.2525 22.2058C31.5005 21.8669 32.3463 21.8669 32.5942 22.2058C32.9588 22.7214 32.9442 22.2794 32.5505 21.3218C32.3171 20.7767 32.0546 20.3348 31.9525 20.3348C31.8505 20.3348 31.5734 20.7767 31.3255 21.3071ZM32.1713 21.2187C32.3317 21.6459 32.3171 21.6607 31.9234 21.6607C31.515 21.6607 31.5005 21.6459 31.6463 21.2187C31.7338 20.9683 31.8505 20.7767 31.9088 20.7767C31.9671 20.7767 32.0838 20.9683 32.1713 21.2187Z" fill="white"/>
<path d="M36.9983 20.4379C37.3337 20.4674 37.6108 20.541 37.6108 20.5852C37.6108 20.6294 37.3483 20.983 37.0275 21.366C36.7067 21.7491 36.4442 22.1468 36.4442 22.2352C36.4442 22.3383 36.7504 22.3973 37.2462 22.3973C38.1796 22.3973 38.34 22.1468 37.4504 22.0732L36.8379 22.029L37.4504 21.2924C37.7712 20.8946 38.0483 20.5116 38.0483 20.4526C38.0483 20.379 37.6692 20.3495 37.2171 20.3642C36.4879 20.379 36.4587 20.3937 36.9983 20.4379Z" fill="white"/>
<path d="M41.9421 21.3218C41.5484 22.2794 41.5338 22.7214 41.8984 22.2057C42.1463 21.8669 42.9921 21.8669 43.24 22.2057C43.6046 22.7214 43.59 22.2794 43.1963 21.3218C42.9484 20.7178 42.7004 20.3348 42.5692 20.3348C42.4379 20.3348 42.19 20.7178 41.9421 21.3218ZM42.8171 21.2187C42.9775 21.6459 42.9629 21.6607 42.5692 21.6607C42.1609 21.6607 42.1463 21.6459 42.2921 21.2187C42.3796 20.9682 42.4963 20.7767 42.5546 20.7767C42.6129 20.7767 42.7296 20.9682 42.8171 21.2187Z" fill="white"/>
<path d="M58.0713 20.4379C58.4505 20.4968 58.465 20.5263 58.465 21.4544C58.465 22.6624 58.7275 22.6919 58.7859 21.4839C58.8296 20.6441 58.8588 20.5558 59.1942 20.4674C59.4275 20.4084 59.2088 20.3642 58.6109 20.3642C58.0859 20.379 57.838 20.4084 58.0713 20.4379Z" fill="white"/>
<path d="M63.3796 21.3218C62.9859 22.2794 62.9713 22.7214 63.3359 22.2057C63.5838 21.8669 64.4296 21.8669 64.6775 22.2057C64.7796 22.3531 64.8963 22.4267 64.94 22.3825C65.0859 22.2352 64.1817 20.3348 63.9775 20.3348C63.8754 20.3348 63.6129 20.7767 63.3796 21.3218ZM64.2984 21.4691C64.2984 21.5723 64.1379 21.6607 63.9484 21.6607C63.5984 21.6607 63.5984 21.6312 63.7442 21.1892C63.89 20.762 63.9192 20.7473 64.1088 20.9977C64.2109 21.1598 64.2984 21.366 64.2984 21.4691Z" fill="white"/>
<path d="M68.5275 21.366C68.5275 22.5446 68.7754 22.7803 68.8484 21.6459L68.8921 20.9093L69.4463 21.6459C69.7379 22.0584 70.0588 22.3973 70.1317 22.3973C70.2192 22.3973 70.2775 21.9406 70.2775 21.366C70.2775 20.7767 70.2192 20.3348 70.1317 20.3348C70.0588 20.3348 69.9859 20.6294 69.9859 20.9977C69.9859 21.366 69.9421 21.6607 69.8838 21.6607C69.8109 21.6459 69.5484 21.3513 69.2859 20.9977C69.0234 20.6294 68.7463 20.3348 68.6734 20.3348C68.5859 20.3348 68.5275 20.7915 68.5275 21.366Z" fill="white"/>
<path d="M-0.0141602 21.5133V22.3973H8.95459H17.9233V21.5133V20.6294H8.95459H-0.0141602V21.5133Z" fill="white"/>
</g>
<defs>
<clipPath id="clip0_432_8047">
<rect width="70" height="26" fill="white" transform="translate(0.11084 0.5)"/>
</clipPath>
</defs>
</svg>
