<svg width="71" height="27" viewBox="0 0 71 27" fill="none" xmlns="http://www.w3.org/2000/svg">
<g clip-path="url(#clip0_432_8786)">
<path d="M3.05958 8.68528C1.16017 8.9775 0.11084 9.96041 0.11084 11.4613C0.11084 13.0685 0.947645 13.8389 3.64402 14.6757C5.01213 15.1141 5.37076 15.3797 4.959 15.6719C4.38785 16.097 2.34232 15.7915 0.881232 15.0875L0.11084 14.7023V16.0837V17.4651L0.708558 17.7307C2.50171 18.5277 5.06526 18.5676 6.4865 17.8503C8.35935 16.8939 8.62501 14.4101 6.99124 13.2147C6.68574 12.9888 5.71611 12.5638 4.81289 12.2716C3.90967 11.9661 3.13928 11.6606 3.08615 11.5942C2.92676 11.3152 3.33852 11.0762 3.9628 11.0762C4.66678 11.0762 6.40681 11.4879 7.00452 11.7934L7.403 12.0059L7.44285 10.7175C7.49598 9.24315 7.4827 9.22987 6.15444 8.8978C5.07854 8.63215 3.90967 8.55245 3.05958 8.68528Z" fill="white"/>
<path d="M22.3991 8.68528C20.8317 8.96422 19.4636 10.0003 18.7464 11.4481C18.4143 12.1122 18.3745 12.3513 18.3745 13.467C18.3745 14.6226 18.4143 14.8086 18.7995 15.6055C19.5965 17.226 21.0575 18.2089 22.864 18.3418C25.919 18.5676 28.2567 16.522 28.27 13.5866C28.27 11.8333 27.6324 10.5183 26.3042 9.56194C25.2814 8.81811 23.6875 8.45948 22.3991 8.68528ZM24.2321 11.4879C25.029 11.8598 25.3877 12.4974 25.3877 13.467C25.3877 14.3702 25.0955 14.9813 24.418 15.4196C23.8336 15.8181 22.8374 15.8313 22.1998 15.4461C21.0974 14.7687 20.8849 12.8826 21.8014 11.8864C22.4389 11.1957 23.3289 11.0496 24.2321 11.4879Z" fill="white"/>
<path d="M8.99725 10.7043C9.40901 11.7536 10.2591 13.9054 10.8701 15.486L11.9991 18.3817H13.3539H14.7088L15.094 17.3456C15.426 16.4955 18.1755 9.53542 18.4013 8.97755C18.4545 8.85801 18.1091 8.81816 16.9403 8.81816H15.4128L15.0143 9.90734C14.8018 10.5183 14.3634 11.7403 14.0579 12.6303C13.7391 13.5335 13.4469 14.264 13.4071 14.264C13.3672 14.264 13.0617 13.5069 12.7297 12.5639C12.4109 11.6341 11.9858 10.4254 11.7866 9.88077L11.4412 8.88457L9.84733 8.84473L8.25342 8.80488L8.99725 10.7043Z" fill="white"/>
<path d="M28.1376 8.88457C28.1376 8.92442 28.8814 10.1066 29.7979 11.5278L31.4582 14.0914V16.2299V18.3817H32.8529H34.2476V16.2166V14.0648L35.2703 12.5373C35.8282 11.7005 36.6119 10.5183 36.9971 9.90734L37.7011 8.81816H36.1337H34.5796L33.796 10.08C33.3576 10.7707 32.9724 11.3419 32.906 11.3419C32.8529 11.3419 32.4544 10.7707 32.0294 10.08L31.259 8.81816H29.7049C28.8416 8.81816 28.1376 8.84473 28.1376 8.88457Z" fill="white"/>
<path d="M38.9235 13.4936L38.9633 18.1824L40.8229 18.2222C44.1037 18.2886 45.5781 17.9167 46.7868 16.7213C47.6369 15.8579 47.9557 15.0875 48.0354 13.7327C48.1018 12.1919 47.783 11.302 46.7469 10.2659C45.5382 9.05721 44.9936 8.9111 41.6464 8.84469L38.8969 8.79156L38.9235 13.4936ZM44.0639 11.5809C44.7546 11.913 45.0468 12.4177 45.1132 13.3209C45.2194 14.8484 44.5022 15.5923 42.802 15.6985L41.8324 15.7649L41.7925 13.5467C41.766 12.1653 41.8058 11.3153 41.8855 11.2754C42.1512 11.1559 43.6255 11.3551 44.0639 11.5809Z" fill="white"/>
<path d="M60.4146 13.467V18.1159H61.8092H63.2039V15.5922C63.2039 14.1975 63.2438 13.0685 63.3102 13.0685C63.3633 13.0818 63.6688 13.5467 64.0009 14.1046L64.6119 15.1273H65.3955H66.1792L66.7504 14.1311C67.0559 13.5865 67.3614 13.1216 67.4145 13.1084C67.4676 13.0818 67.5075 14.1975 67.4809 15.5922L67.4278 18.1159H68.7693H70.1109V13.467V8.80478L68.756 8.84463L67.4012 8.88448L66.4449 10.3987C65.9268 11.2355 65.4487 11.9395 65.369 11.966C65.3026 11.9926 64.7978 11.2886 64.2665 10.412L63.2969 8.81807H61.8624H60.4146V13.467Z" fill="white"/>
<path fill-rule="evenodd" clip-rule="evenodd" d="M59.1597 8.80481H49.6103V18.1159H59.1597V8.80481ZM56.1875 11.7029H52.5826V15.2178H56.1875V11.7029Z" fill="white"/>
</g>
<defs>
<clipPath id="clip0_432_8786">
<rect width="70" height="26" fill="white" transform="translate(0.11084 0.5)"/>
</clipPath>
</defs>
</svg>
