<svg width="71" height="27" viewBox="0 0 71 27" fill="none" xmlns="http://www.w3.org/2000/svg">
<g clip-path="url(#clip0_432_8595)">
<path d="M0.11084 6.43316V6.88956H3.22119H6.33154V14.2375C6.33154 21.2203 6.34671 21.6158 6.61982 21.8592C7.21154 22.3917 7.24189 22.0418 7.27223 14.3287L7.31775 6.96562L10.4736 6.91998L13.6143 6.88956V6.43316V5.97677H6.86257H0.11084V6.43316Z" fill="white"/>
<path d="M0.11084 9.56706C0.11084 10.9971 0.141185 11.1644 0.368771 11.1188C0.520496 11.0884 0.67222 10.845 0.748082 10.5407C0.823944 10.2517 0.960496 9.74962 1.03636 9.43015L1.18808 8.86726H2.76602H4.35912V14.3135V19.7598L4.8143 20.1554L5.26947 20.5509V14.2527V7.95448H2.69015H0.11084V9.56706Z" fill="white"/>
<path d="M8.30377 14.2984V20.6422L8.83481 20.125L9.36584 19.6077V14.2375V8.85208L10.9286 8.89772L12.4762 8.94336L12.7645 10.0387C12.9921 10.9211 13.1134 11.1493 13.3258 11.1493C13.5838 11.1493 13.6141 11.0123 13.6141 9.55188V7.95451H10.9589H8.30377V14.2984Z" fill="white"/>
<path d="M22.2177 9.60558L22.276 10.8457H22.1282C22.0997 10.6273 22.0608 10.4713 22.0115 10.3777C21.9311 10.2269 21.8235 10.1165 21.6887 10.0463C21.5565 9.97346 21.3814 9.93706 21.1636 9.93706H20.4208V13.9773C20.4208 14.3023 20.4558 14.5051 20.5258 14.5857C20.6243 14.6949 20.776 14.7495 20.9808 14.7495H21.1636V14.8938H18.9272V14.7495H19.1139C19.3369 14.7495 19.4951 14.6819 19.5884 14.5467C19.6455 14.4635 19.674 14.2737 19.674 13.9773V9.93706H19.04C18.7937 9.93706 18.6187 9.95526 18.5149 9.99166C18.3801 10.0411 18.2647 10.136 18.1688 10.2763C18.0728 10.4167 18.0158 10.6065 17.9977 10.8457H17.8499L17.9121 9.60558H22.2177ZM25.4143 14.7495V14.8938H23.1546V14.7495H23.3412C23.559 14.7495 23.7172 14.6858 23.8158 14.5584C23.878 14.4752 23.9091 14.275 23.9091 13.9578V10.5415C23.9091 10.2737 23.8922 10.097 23.8585 10.0112C23.8326 9.94616 23.7795 9.89026 23.6991 9.84347C23.585 9.78107 23.4657 9.74987 23.3412 9.74987H23.1546V9.60558H25.4143V9.74987H25.2237C25.0085 9.74987 24.8516 9.81357 24.7531 9.94096C24.6883 10.0242 24.6559 10.2243 24.6559 10.5415V13.9578C24.6559 14.2256 24.6727 14.4024 24.7064 14.4882C24.7324 14.5532 24.7868 14.6091 24.8698 14.6559C24.9813 14.7183 25.0993 14.7495 25.2237 14.7495H25.4143ZM29.3461 14.8938L27.308 10.444V13.9773C27.308 14.3023 27.343 14.5051 27.413 14.5857C27.5089 14.6949 27.6606 14.7495 27.8681 14.7495H28.0548V14.8938H26.2189V14.7495H26.4056C26.6286 14.7495 26.7868 14.6819 26.8802 14.5467C26.9372 14.4635 26.9657 14.2737 26.9657 13.9773V10.522C26.9657 10.288 26.9398 10.1191 26.8879 10.0151C26.8516 9.93966 26.7842 9.87726 26.6857 9.82787C26.5897 9.77587 26.4342 9.74987 26.2189 9.74987V9.60558H27.7125L29.6261 13.7433L31.5086 9.60558H33.0021V9.74987H32.8193C32.5937 9.74987 32.4342 9.81747 32.3409 9.95266C32.2839 10.0359 32.2553 10.2256 32.2553 10.522V13.9773C32.2553 14.3023 32.2916 14.5051 32.3642 14.5857C32.4601 14.6949 32.6118 14.7495 32.8193 14.7495H33.0021V14.8938H30.7618V14.7495H30.9485C31.1741 14.7495 31.3322 14.6819 31.423 14.5467C31.48 14.4635 31.5086 14.2737 31.5086 13.9773V10.444L29.4744 14.8938H29.3461ZM35.3158 9.89416V11.9845H36.4749C36.7756 11.9845 36.9766 11.939 37.0778 11.848C37.2126 11.7284 37.2878 11.5178 37.3033 11.2162H37.4472V13.0569H37.3033C37.267 12.7995 37.2307 12.6344 37.1944 12.5616C37.1477 12.4707 37.0713 12.3992 36.965 12.3472C36.8586 12.2952 36.6953 12.2692 36.4749 12.2692H35.3158V14.0124C35.3158 14.2464 35.3263 14.3894 35.347 14.4414C35.3677 14.4908 35.404 14.5311 35.4559 14.5623C35.5078 14.5909 35.6063 14.6052 35.7515 14.6052H36.646C36.9442 14.6052 37.1607 14.5844 37.2956 14.5428C37.4304 14.5012 37.56 14.4193 37.6845 14.2971C37.8453 14.1359 38.01 13.8928 38.1785 13.5678H38.334L37.879 14.8938H33.8145V14.7495H34.0012C34.1256 14.7495 34.2436 14.7196 34.3551 14.6598C34.4381 14.6182 34.4939 14.5558 34.5224 14.4726C34.5535 14.3894 34.5691 14.2191 34.5691 13.9617V10.5259C34.5691 10.1906 34.5354 9.98386 34.4679 9.90586C34.3746 9.80187 34.219 9.74987 34.0012 9.74987H33.8145V9.60558H37.879L37.9374 10.7638H37.7857C37.7312 10.4856 37.6703 10.2945 37.6028 10.1906C37.5379 10.0866 37.4408 10.0073 37.3111 9.95266C37.2074 9.91366 37.0246 9.89416 36.7627 9.89416H35.3158ZM46.3569 9.48468L46.4931 11.1538H46.3569C46.2196 10.7378 46.0419 10.4245 45.8241 10.2139C45.5104 9.90976 45.1071 9.75767 44.6145 9.75767C43.9429 9.75767 43.4321 10.0242 43.0821 10.5571C42.789 11.0069 42.6426 11.5425 42.6426 12.1639C42.6426 12.6682 42.7398 13.1284 42.9342 13.5444C43.1287 13.9604 43.3828 14.2659 43.6965 14.4609C44.0129 14.6533 44.3371 14.7495 44.6689 14.7495C44.8634 14.7495 45.0514 14.7248 45.2329 14.6754C45.4144 14.626 45.5895 14.5532 45.758 14.457V12.9282C45.758 12.663 45.7372 12.4902 45.6958 12.4096C45.6569 12.3264 45.5946 12.264 45.509 12.2224C45.4261 12.1782 45.2783 12.1561 45.0657 12.1561V12.0079H47.1076V12.1561H47.0104C46.8081 12.1561 46.6694 12.2237 46.5942 12.3589C46.5424 12.4551 46.5165 12.6448 46.5165 12.9282V14.5467C46.2182 14.7079 45.9239 14.8262 45.6335 14.9015C45.3431 14.9769 45.0203 15.0146 44.665 15.0146C43.646 15.0146 42.872 14.6871 42.3431 14.0319C41.9464 13.5405 41.7479 12.9737 41.7479 12.3316C41.7479 11.8662 41.8595 11.4203 42.0825 10.9939C42.347 10.4869 42.71 10.097 43.1715 9.82397C43.5578 9.59778 44.0143 9.48468 44.5406 9.48468C44.7325 9.48468 44.9062 9.50028 45.0618 9.53148C45.2199 9.56268 45.4429 9.63157 45.7307 9.73817C45.8759 9.79277 45.9732 9.82007 46.0225 9.82007C46.0718 9.82007 46.1132 9.79797 46.147 9.75377C46.1833 9.70697 46.2052 9.61727 46.2131 9.48468H46.3569ZM53.0852 14.8938H51.6772L49.892 12.4213C49.7597 12.4265 49.6521 12.4291 49.5692 12.4291C49.5354 12.4291 49.4991 12.4291 49.4603 12.4291C49.4214 12.4265 49.3812 12.4239 49.3397 12.4213V13.9578C49.3397 14.2906 49.376 14.4973 49.4486 14.5779C49.5471 14.6923 49.6949 14.7495 49.892 14.7495H50.0981V14.8938H47.8384V14.7495H48.0367C48.2598 14.7495 48.4192 14.6767 48.5151 14.5311C48.5696 14.4505 48.5968 14.2594 48.5968 13.9578V10.5415C48.5968 10.2088 48.5605 10.0021 48.4879 9.92146C48.3868 9.80707 48.2363 9.74987 48.0367 9.74987H47.8384V9.60558H49.7597C50.3198 9.60558 50.732 9.64717 50.9966 9.73037C51.2637 9.81097 51.4892 9.96176 51.6733 10.1828C51.8601 10.4011 51.9534 10.6624 51.9534 10.9666C51.9534 11.2916 51.8471 11.5737 51.6344 11.8129C51.4244 12.0521 51.0977 12.2211 50.6543 12.3199L51.7433 13.8369C51.9923 14.1853 52.2062 14.4167 52.3851 14.5311C52.564 14.6455 52.7974 14.7183 53.0852 14.7495V14.8938ZM49.3397 12.1756C49.3889 12.1756 49.4317 12.1769 49.468 12.1795C49.5043 12.1795 49.5341 12.1795 49.5575 12.1795C50.0605 12.1795 50.4391 12.0703 50.6932 11.8519C50.9498 11.6335 51.0782 11.3553 51.0782 11.0173C51.0782 10.6871 50.9745 10.4193 50.7671 10.2139C50.5623 10.006 50.29 9.90196 49.9503 9.90196C49.8 9.90196 49.5964 9.92666 49.3397 9.97606V12.1756ZM56.4062 9.48468C57.0908 9.48468 57.6833 9.74597 58.1838 10.2685C58.6868 10.7885 58.9382 11.4385 58.9382 12.2185C58.9382 13.0218 58.6855 13.6887 58.1798 14.2191C57.6742 14.7495 57.0622 15.0146 56.3441 15.0146C55.618 15.0146 55.0074 14.756 54.5121 14.2386C54.0195 13.7212 53.7732 13.0517 53.7732 12.2302C53.7732 11.3904 54.0583 10.7053 54.6288 10.175C55.1241 9.71477 55.7165 9.48468 56.4062 9.48468ZM56.3324 9.76937C55.8605 9.76937 55.4819 9.94486 55.1967 10.2958C54.8415 10.7326 54.6638 11.3722 54.6638 12.2146C54.6638 13.0777 54.8479 13.742 55.2161 14.2074C55.4987 14.561 55.8721 14.7378 56.3362 14.7378C56.8315 14.7378 57.2399 14.5441 57.5615 14.1567C57.8855 13.7693 58.0476 13.1583 58.0476 12.3238C58.0476 11.419 57.87 10.7443 57.5148 10.2997C57.2295 9.94616 56.8355 9.76937 56.3324 9.76937ZM63.5273 9.74987V9.60558H65.3943V9.74987H65.1959C64.9885 9.74987 64.829 9.83697 64.7175 10.0112C64.6631 10.0918 64.6359 10.2789 64.6359 10.5727V12.7176C64.6359 13.248 64.5826 13.6601 64.4763 13.9539C64.3727 14.2451 64.1665 14.496 63.858 14.7066C63.552 14.9146 63.1345 15.0185 62.6056 15.0185C62.0299 15.0185 61.593 14.9184 61.2948 14.7183C60.9967 14.5181 60.7853 14.249 60.6608 13.911C60.5779 13.6796 60.5364 13.2454 60.5364 12.6085V10.5415C60.5364 10.2165 60.491 10.0034 60.4003 9.90196C60.3121 9.80057 60.1682 9.74987 59.9685 9.74987H59.7702V9.60558H62.0494V9.74987H61.8471C61.6293 9.74987 61.4738 9.81877 61.3804 9.95656C61.3156 10.0502 61.2832 10.2451 61.2832 10.5415V12.8463C61.2832 13.0517 61.3013 13.287 61.3376 13.5522C61.3765 13.8174 61.4452 14.0241 61.5438 14.1723C61.6423 14.3205 61.7835 14.4427 61.9676 14.5389C62.1544 14.6351 62.3825 14.6832 62.6522 14.6832C62.9971 14.6832 63.3056 14.6078 63.5779 14.457C63.8501 14.3062 64.0356 14.1138 64.134 13.8798C64.2352 13.6432 64.2857 13.2441 64.2857 12.6825V10.5415C64.2857 10.2113 64.2494 10.0047 64.1768 9.92146C64.0758 9.80707 63.9253 9.74987 63.7258 9.74987H63.5273ZM67.5952 12.4174V13.9578C67.5952 14.2906 67.6315 14.4973 67.7041 14.5779C67.8026 14.6923 67.9517 14.7495 68.1514 14.7495H68.3536V14.8938H66.0939V14.7495H66.2922C66.5153 14.7495 66.6747 14.6767 66.7706 14.5311C66.8225 14.4505 66.8485 14.2594 66.8485 13.9578V10.5415C66.8485 10.2088 66.8134 10.0021 66.7434 9.92146C66.6423 9.80707 66.492 9.74987 66.2922 9.74987H66.0939V9.60558H68.0269C68.4988 9.60558 68.8709 9.65497 69.1432 9.75377C69.4154 9.84996 69.6449 10.0138 69.8317 10.2451C70.0183 10.4765 70.1116 10.7508 70.1116 11.068C70.1116 11.4996 69.969 11.8506 69.6839 12.121C69.4012 12.3914 69.0005 12.5266 68.482 12.5266C68.355 12.5266 68.2175 12.5175 68.0697 12.4992C67.9219 12.481 67.7637 12.4538 67.5952 12.4174ZM67.5952 12.1951C67.7326 12.2211 67.8545 12.2406 67.9608 12.2536C68.0671 12.2666 68.1579 12.2731 68.2331 12.2731C68.5027 12.2731 68.7348 12.1691 68.9293 11.9611C69.1264 11.7505 69.2249 11.4788 69.2249 11.146C69.2249 10.9172 69.1782 10.7053 69.0849 10.5103C68.9915 10.3127 68.8593 10.1659 68.6882 10.0697C68.517 9.97086 68.3225 9.92146 68.1047 9.92146C67.9725 9.92146 67.8026 9.94616 67.5952 9.99556V12.1951Z" fill="white"/>
<path d="M19.2149 16.8657V17.4418H19.1672C19.1313 17.2914 19.0645 17.1762 18.9667 17.0961C18.8689 17.0161 18.7581 16.976 18.6342 16.976C18.5307 16.976 18.4358 17.0059 18.3494 17.0655C18.263 17.1251 18.1999 17.2032 18.16 17.2996C18.1086 17.423 18.0829 17.5603 18.0829 17.7114C18.0829 17.8601 18.1017 17.9958 18.1392 18.1183C18.1767 18.2401 18.2353 18.3324 18.3152 18.3953C18.3951 18.4574 18.4986 18.4885 18.6257 18.4885C18.73 18.4885 18.8253 18.4656 18.9117 18.4199C18.9989 18.3741 19.0906 18.2952 19.1868 18.1833V18.3267C19.0939 18.4239 18.9969 18.4946 18.8958 18.5388C18.7956 18.5821 18.6782 18.6037 18.5438 18.6037C18.3669 18.6037 18.2097 18.5682 18.0719 18.4971C17.935 18.426 17.8291 18.3238 17.7541 18.1907C17.68 18.0575 17.6429 17.9157 17.6429 17.7654C17.6429 17.6068 17.684 17.4565 17.7663 17.3143C17.8495 17.1721 17.9611 17.0618 18.1013 16.9834C18.2423 16.9049 18.3918 16.8657 18.5499 16.8657C18.6664 16.8657 18.7895 16.8911 18.9191 16.9417C18.994 16.9711 19.0417 16.9858 19.0621 16.9858C19.0882 16.9858 19.1106 16.9764 19.1293 16.9576C19.1489 16.938 19.1615 16.9074 19.1672 16.8657H19.2149ZM21.2086 16.8804C21.4727 16.8706 21.687 16.9478 21.8516 17.1121C22.017 17.2763 22.0998 17.4818 22.0998 17.7286C22.0998 17.9394 22.0382 18.1249 21.9152 18.285C21.7522 18.4975 21.522 18.6037 21.2245 18.6037C20.9263 18.6037 20.6956 18.5024 20.5327 18.2997C20.4039 18.1396 20.3395 17.9496 20.3395 17.7298C20.3395 17.483 20.423 17.2775 20.5901 17.1133C20.758 16.9482 20.9642 16.8706 21.2086 16.8804ZM21.2233 16.9589C21.0717 16.9589 20.9564 17.0365 20.8774 17.1917C20.813 17.3192 20.7808 17.5023 20.7808 17.7408C20.7808 18.0244 20.8305 18.234 20.9299 18.3696C20.9992 18.4644 21.0962 18.5118 21.2209 18.5118C21.3048 18.5118 21.3749 18.4914 21.4311 18.4505C21.5028 18.3982 21.5586 18.3149 21.5986 18.2005C21.6385 18.0853 21.6585 17.9353 21.6585 17.7506C21.6585 17.5308 21.6381 17.3666 21.5974 17.2579C21.5566 17.1484 21.5045 17.0712 21.4409 17.0263C21.3781 16.9813 21.3056 16.9589 21.2233 16.9589ZM23.7024 16.9037L24.5201 17.9345V17.2199C24.5201 17.1203 24.5059 17.0528 24.4774 17.0177C24.4382 16.9703 24.3726 16.9474 24.2805 16.9491V16.9037H24.8282V16.9491C24.7581 16.9581 24.7108 16.9699 24.6864 16.9846C24.6627 16.9985 24.644 17.0218 24.6302 17.0545C24.6171 17.0863 24.6106 17.1415 24.6106 17.2199V18.6037H24.569L23.4481 17.2199V18.2765C23.4481 18.3721 23.4697 18.4366 23.5129 18.4701C23.5569 18.5036 23.607 18.5204 23.6632 18.5204H23.7024V18.5657H23.1144V18.5204C23.2057 18.5196 23.2692 18.5008 23.3051 18.464C23.3409 18.4272 23.3589 18.3647 23.3589 18.2765V17.1035L23.3234 17.0594C23.2884 17.0152 23.2574 16.9862 23.2305 16.9723C23.2036 16.9585 23.1649 16.9507 23.1144 16.9491V16.9037H23.7024ZM26.9527 16.8657L26.9662 17.4197H26.9161C26.8924 17.2808 26.8342 17.1693 26.7413 17.0851C26.6492 17.0001 26.5493 16.9576 26.4418 16.9576C26.3587 16.9576 26.2927 16.9801 26.2438 17.0251C26.1957 17.0692 26.1716 17.1203 26.1716 17.1783C26.1716 17.215 26.1802 17.2477 26.1973 17.2763C26.2209 17.3147 26.2588 17.3527 26.311 17.3903C26.3493 17.4173 26.4377 17.4651 26.5762 17.5337C26.7702 17.6293 26.901 17.7196 26.9686 17.8046C27.0355 17.8896 27.0689 17.9868 27.0689 18.0963C27.0689 18.2352 27.0147 18.3549 26.9063 18.4554C26.7987 18.5551 26.6618 18.6049 26.4956 18.6049C26.4434 18.6049 26.3941 18.5996 26.3477 18.589C26.3012 18.5784 26.2429 18.5584 26.1729 18.5289C26.1337 18.5126 26.1015 18.5044 26.0763 18.5044C26.0551 18.5044 26.0327 18.5126 26.0091 18.5289C25.9854 18.5453 25.9663 18.5702 25.9516 18.6037H25.9064V17.9762H25.9516C25.9875 18.1527 26.0563 18.2875 26.1582 18.3806C26.2609 18.473 26.3713 18.5191 26.4895 18.5191C26.5807 18.5191 26.6533 18.4942 26.707 18.4444C26.7616 18.3945 26.7889 18.3365 26.7889 18.2703C26.7889 18.2311 26.7783 18.1931 26.7572 18.1563C26.7368 18.1196 26.7054 18.0848 26.663 18.0522C26.6207 18.0187 26.5457 17.9753 26.4381 17.9222C26.2874 17.8479 26.179 17.7846 26.113 17.7323C26.047 17.68 25.996 17.6215 25.9602 17.557C25.9251 17.4924 25.9076 17.4214 25.9076 17.3437C25.9076 17.2114 25.9561 17.0986 26.0531 17.0054C26.15 16.9123 26.2723 16.8657 26.4198 16.8657C26.4736 16.8657 26.5257 16.8723 26.5762 16.8853C26.6146 16.8951 26.661 16.9135 26.7156 16.9405C26.771 16.9666 26.8097 16.9797 26.8317 16.9797C26.8529 16.9797 26.8696 16.9732 26.8818 16.9601C26.8941 16.947 26.9055 16.9156 26.9161 16.8657H26.9527ZM29.6384 16.9037V17.3535H29.5943C29.5683 17.2498 29.5394 17.1754 29.5076 17.1305C29.4758 17.0847 29.4322 17.0483 29.3768 17.0214C29.3458 17.0067 29.2916 16.9993 29.2143 16.9993H29.0908V18.2814C29.0908 18.3663 29.0952 18.4195 29.1042 18.4407C29.114 18.4619 29.1323 18.4807 29.1592 18.4971C29.187 18.5126 29.2244 18.5204 29.2716 18.5204H29.3267V18.5657H28.4588V18.5204H28.5138C28.5619 18.5204 28.6006 18.5118 28.6299 18.4946C28.6511 18.4832 28.6678 18.4636 28.68 18.4358C28.689 18.4162 28.6935 18.3647 28.6935 18.2814V16.9993H28.5737C28.462 16.9993 28.381 17.023 28.3304 17.0704C28.2595 17.1366 28.2147 17.231 28.196 17.3535H28.1495V16.9037H29.6384ZM31.2826 17.8083V18.274C31.2826 18.3639 31.2878 18.4207 31.2984 18.4444C31.3099 18.4672 31.3295 18.4856 31.3571 18.4995C31.3849 18.5134 31.4365 18.5204 31.5123 18.5204V18.5657H30.664V18.5204C30.7406 18.5204 30.7923 18.5134 30.8192 18.4995C30.847 18.4848 30.8661 18.466 30.8767 18.4432C30.8882 18.4203 30.8938 18.3639 30.8938 18.274V17.1954C30.8938 17.1055 30.8882 17.0492 30.8767 17.0263C30.8661 17.0026 30.847 16.9838 30.8192 16.9699C30.7915 16.956 30.7398 16.9491 30.664 16.9491V16.9037H31.4341C31.6346 16.9037 31.7813 16.9176 31.8742 16.9454C31.967 16.9732 32.0428 17.0246 32.1015 17.0998C32.1603 17.1742 32.1895 17.2616 32.1895 17.3621C32.1895 17.4847 32.1456 17.586 32.0575 17.6661C32.0013 17.7167 31.9227 17.7547 31.8216 17.7801L32.2201 18.3426C32.2722 18.4154 32.3093 18.4607 32.3314 18.4787C32.3647 18.504 32.4034 18.5179 32.4475 18.5204V18.5657H31.9255L31.3914 17.8083H31.2826ZM31.2826 16.9932V17.7212H31.3522C31.4655 17.7212 31.5502 17.711 31.6064 17.6906C31.6628 17.6693 31.7067 17.6318 31.7385 17.5778C31.7711 17.5231 31.7874 17.452 31.7874 17.3646C31.7874 17.2379 31.7577 17.1444 31.6981 17.0839C31.6394 17.0234 31.5445 16.9932 31.4133 16.9932H31.2826ZM33.3741 16.9037H34.2298V16.9491H34.187C34.1226 16.9491 34.0782 16.956 34.0538 16.9699C34.0301 16.983 34.013 17.0014 34.0025 17.0251C33.9927 17.0487 33.9878 17.108 33.9878 17.2028V18.0166C33.9878 18.1653 33.9987 18.2638 34.0208 18.312C34.0435 18.3602 34.0806 18.4003 34.132 18.4321C34.1833 18.464 34.2481 18.4799 34.3263 18.4799C34.416 18.4799 34.4922 18.4599 34.5549 18.4199C34.6185 18.379 34.6658 18.323 34.6967 18.2519C34.7285 18.1809 34.7444 18.0571 34.7444 17.8806V17.2028C34.7444 17.1284 34.7366 17.0753 34.7212 17.0434C34.7057 17.0116 34.6861 16.9895 34.6625 16.9773C34.6258 16.9585 34.574 16.9491 34.5072 16.9491V16.9037H35.0805V16.9491H35.0463C34.9999 16.9491 34.9612 16.9585 34.9302 16.9773C34.8993 16.996 34.8768 17.0242 34.863 17.0618C34.8524 17.088 34.847 17.135 34.847 17.2028V17.834C34.847 18.0293 34.8341 18.1702 34.808 18.2569C34.7827 18.3435 34.7204 18.4231 34.6209 18.4959C34.5215 18.5686 34.3858 18.6049 34.2139 18.6049C34.0705 18.6049 33.9597 18.5857 33.8814 18.5473C33.7746 18.495 33.6992 18.428 33.6553 18.3463C33.6112 18.2646 33.5893 18.1547 33.5893 18.0166V17.2028C33.5893 17.1072 33.5839 17.0479 33.5733 17.0251C33.5628 17.0014 33.5444 16.9826 33.5184 16.9687C33.4922 16.9548 33.4442 16.9482 33.3741 16.9491V16.9037ZM37.6842 16.8657V17.4418H37.6367C37.6007 17.2914 37.5339 17.1762 37.4362 17.0961C37.3383 17.0161 37.2275 16.976 37.1037 16.976C37.0001 16.976 36.9052 17.0059 36.8188 17.0655C36.7325 17.1251 36.6693 17.2032 36.6294 17.2996C36.5781 17.423 36.5523 17.5603 36.5523 17.7114C36.5523 17.8601 36.5711 17.9958 36.6085 18.1183C36.6461 18.2401 36.7047 18.3324 36.7846 18.3953C36.8645 18.4574 36.968 18.4885 37.0951 18.4885C37.1994 18.4885 37.2947 18.4656 37.3811 18.4199C37.4684 18.3741 37.56 18.2952 37.6561 18.1833V18.3267C37.5633 18.4239 37.4663 18.4946 37.3653 18.5388C37.265 18.5821 37.1477 18.6037 37.0132 18.6037C36.8364 18.6037 36.6791 18.5682 36.5414 18.4971C36.4044 18.426 36.2985 18.3238 36.2236 18.1907C36.1494 18.0575 36.1123 17.9157 36.1123 17.7654C36.1123 17.6068 36.1535 17.4565 36.2358 17.3143C36.3188 17.1721 36.4306 17.0618 36.5707 16.9834C36.7116 16.9049 36.8612 16.8657 37.0193 16.8657C37.1359 16.8657 37.2589 16.8911 37.3885 16.9417C37.4635 16.9711 37.5112 16.9858 37.5315 16.9858C37.5576 16.9858 37.58 16.9764 37.5987 16.9576C37.6182 16.938 37.6309 16.9074 37.6367 16.8657H37.6842ZM40.2904 16.9037V17.3535H40.2465C40.2203 17.2498 40.1914 17.1754 40.1597 17.1305C40.1279 17.0847 40.0842 17.0483 40.0288 17.0214C39.9979 17.0067 39.9437 16.9993 39.8663 16.9993H39.7429V18.2814C39.7429 18.3663 39.7473 18.4195 39.7563 18.4407C39.7661 18.4619 39.7844 18.4807 39.8113 18.4971C39.839 18.5126 39.8765 18.5204 39.9238 18.5204H39.9788V18.5657H39.1109V18.5204H39.1658C39.214 18.5204 39.2526 18.5118 39.282 18.4946C39.3032 18.4832 39.3199 18.4636 39.3321 18.4358C39.3411 18.4162 39.3456 18.3647 39.3456 18.2814V16.9993H39.2258C39.1142 16.9993 39.033 17.023 38.9825 17.0704C38.9116 17.1366 38.8668 17.231 38.848 17.3535H38.8016V16.9037H40.2904ZM42.1865 18.5204V18.5657H41.3198V18.5204H41.3748C41.4228 18.5204 41.4616 18.5118 41.4908 18.4946C41.5121 18.4832 41.5284 18.4636 41.5398 18.4358C41.5488 18.4162 41.5532 18.3647 41.5532 18.2814V17.1881C41.5532 17.1031 41.5488 17.05 41.5398 17.0287C41.5308 17.0075 41.5125 16.9891 41.4848 16.9736C41.4578 16.9572 41.4212 16.9491 41.3748 16.9491H41.3198V16.9037H42.1865V16.9491H42.1314C42.0834 16.9491 42.0447 16.9576 42.0153 16.9748C41.9942 16.9862 41.9774 17.0059 41.9651 17.0336C41.9563 17.0532 41.9517 17.1047 41.9517 17.1881V18.2814C41.9517 18.3663 41.9563 18.4195 41.9651 18.4407C41.9749 18.4619 41.9934 18.4807 42.0202 18.4971C42.0479 18.5126 42.085 18.5204 42.1314 18.5204H42.1865ZM44.1007 16.8804C44.3648 16.8706 44.5791 16.9478 44.7437 17.1121C44.9092 17.2763 44.9919 17.4818 44.9919 17.7286C44.9919 17.9394 44.9304 18.1249 44.8072 18.285C44.6443 18.4975 44.4141 18.6037 44.1166 18.6037C43.8184 18.6037 43.5877 18.5024 43.4248 18.2997C43.2961 18.1396 43.2317 17.9496 43.2317 17.7298C43.2317 17.483 43.3152 17.2775 43.4822 17.1133C43.6501 16.9482 43.8563 16.8706 44.1007 16.8804ZM44.1154 16.9589C43.9638 16.9589 43.8485 17.0365 43.7694 17.1917C43.7052 17.3192 43.6729 17.5023 43.6729 17.7408C43.6729 18.0244 43.7227 18.234 43.822 18.3696C43.8913 18.4644 43.9883 18.5118 44.113 18.5118C44.197 18.5118 44.2669 18.4914 44.3233 18.4505C44.395 18.3982 44.4507 18.3149 44.4907 18.2005C44.5306 18.0853 44.5506 17.9353 44.5506 17.7506C44.5506 17.5308 44.5303 17.3666 44.4895 17.2579C44.4487 17.1484 44.3966 17.0712 44.3331 17.0263C44.2702 16.9813 44.1978 16.9589 44.1154 16.9589ZM46.5945 16.9037L47.4123 17.9345V17.2199C47.4123 17.1203 47.398 17.0528 47.3695 17.0177C47.3304 16.9703 47.2647 16.9474 47.1727 16.9491V16.9037H47.7203V16.9491C47.6502 16.9581 47.6029 16.9699 47.5784 16.9846C47.5549 16.9985 47.5361 17.0218 47.5222 17.0545C47.5093 17.0863 47.5027 17.1415 47.5027 17.2199V18.6037H47.4611L46.3403 17.2199V18.2765C46.3403 18.3721 46.3618 18.4366 46.405 18.4701C46.449 18.5036 46.4991 18.5204 46.5553 18.5204H46.5945V18.5657H46.0065V18.5204C46.0978 18.5196 46.1614 18.5008 46.1972 18.464C46.2331 18.4272 46.2509 18.3647 46.2509 18.2765V17.1035L46.2155 17.0594C46.1805 17.0152 46.1495 16.9862 46.1226 16.9723C46.0957 16.9585 46.057 16.9507 46.0065 16.9491V16.9037H46.5945Z" fill="white"/>
</g>
<defs>
<clipPath id="clip0_432_8595">
<rect width="70" height="26" fill="white" transform="translate(0.11084 0.5)"/>
</clipPath>
</defs>
</svg>
