<svg width="18" height="16" viewBox="0 0 18 16" fill="none" xmlns="http://www.w3.org/2000/svg">
<g clip-path="url(#clip0_533_8315)">
<path fill-rule="evenodd" clip-rule="evenodd" d="M9 4.63558L7.48028 2.89579C6.82948 2.15075 5.86728 1.72501 4.95 1.72501C3.39608 1.72501 1.92857 2.93316 1.92857 4.82565C1.92857 5.99478 2.46573 7.29995 3.69773 8.90008C4.92409 10.4929 6.72067 12.2283 9.0049 14.2496C11.2842 12.2279 13.0773 10.4932 14.3019 8.9016C15.5343 7.30003 16.0714 5.99479 16.0714 4.82565C16.0714 2.93316 14.6039 1.72501 13.05 1.72501C12.1327 1.72501 11.1705 2.15075 10.5197 2.89579L9 4.63558ZM7.695 15.517C3.06 11.4196 0 8.14219 0 4.82565C0 2.12329 2.178 0 4.95 0C5.87375 0 6.77559 0.24729 7.56129 0.680641C8.10755 0.981931 8.59767 1.37316 9 1.83375C9.40233 1.37316 9.89245 0.981931 10.4387 0.680641C11.2244 0.24729 12.1262 0 13.05 0C15.822 0 18 2.12329 18 4.82565C18 8.14219 14.94 11.4196 10.305 15.5257C9.58183 16.1627 8.41546 16.1564 7.695 15.517Z" fill="black"/>
</g>
<defs>
<clipPath id="clip0_533_8315">
<rect width="18" height="16" fill="white"/>
</clipPath>
</defs>
</svg>
