<svg width="114" height="62" viewBox="0 0 114 62" fill="none" xmlns="http://www.w3.org/2000/svg">
<g clip-path="url(#clip0_255_7853)">
<path d="M16.8471 21.676C16.8471 23.9798 15.7376 25.5401 12.9277 25.5401H12.0399V18.2032C12.3555 18.1852 12.6503 18.1852 12.9277 18.1852C15.5883 18.185 16.8471 19.4478 16.8471 21.676ZM13.9629 28.7346C18.9905 28.7346 22.1693 26.1336 22.1693 21.6026C22.1691 16.6239 18.7684 14.8413 13.2235 14.8413C11.0791 14.8413 8.49142 14.9894 6.64355 15.2123V32.9703H12.0401V28.7346H13.9629ZM86.2685 21.676C86.2685 23.9798 85.1604 25.5401 82.3498 25.5401H81.465V18.2032C81.7779 18.1852 82.0731 18.1852 82.3498 18.1852C85.0107 18.185 86.2685 19.4478 86.2685 21.676ZM83.3875 28.7346C88.4111 28.7346 91.5916 26.1336 91.5916 21.6026C91.5916 16.6239 88.1915 14.8413 82.6461 14.8413C80.5022 14.8413 77.913 14.9894 76.0649 15.2123V32.9703H81.4642V28.7346H83.3875ZM98.6142 19.7443C98.6142 18.7788 99.5764 18.3324 101.127 18.3324C102.829 18.3324 104.678 18.7041 105.934 19.2262L105.491 15.3614C104.085 15.0641 102.829 14.8413 100.537 14.8413C96.175 14.8413 93.2186 16.5694 93.2186 20.1914C93.2186 26.4309 101.648 25.1688 101.648 28.0664C101.648 29.1797 100.834 29.7738 98.8366 29.7738C97.0649 29.7738 94.3274 29.1797 92.7012 28.3629L93.2943 32.4505C94.9192 33.0448 97.1372 33.341 98.9122 33.341C103.421 33.341 107.118 31.8547 107.118 27.3961C107.118 21.4545 98.6142 22.5678 98.6142 19.7443ZM72.0002 15.2123H66.6037V32.9703H72.0002V15.2123ZM50.1157 15.2123H44.7186V32.9703H50.1157V15.2123ZM59.505 29.4028V15.2123H54.1079V32.9703H63.8679L64.6804 29.4028H59.505ZM40.7266 15.2123H35.3295V22.2706H29.7105V15.2123H24.3125V32.9703H29.7103V25.9855H35.3293V32.9703H40.7263L40.7266 15.2123Z" fill="white"/>
<path fill-rule="evenodd" clip-rule="evenodd" d="M-62.4873 62V46.3178H94.1877L94.1885 46.3177C107.431 46.3177 118.971 39.0264 125.013 28.2393V62H-62.4873ZM12.7827 58.1136L13.3927 57.4336L12.4727 56.6336C12.6527 56.467 12.806 56.277 12.9327 56.0636C13.0594 55.8436 13.1627 55.6136 13.2427 55.3736C13.3227 55.1336 13.3827 54.8903 13.4227 54.6436C13.4627 54.3903 13.4827 54.1403 13.4827 53.8936C13.4827 53.387 13.4027 52.907 13.2427 52.4536C13.0894 52.0003 12.866 51.6036 12.5727 51.2636C12.2794 50.9236 11.9194 50.6536 11.4927 50.4536C11.0727 50.2536 10.596 50.1536 10.0627 50.1536C9.52937 50.1536 9.04936 50.2536 8.6227 50.4536C8.2027 50.6536 7.84603 50.9236 7.5527 51.2636C7.25936 51.6036 7.03269 52.0003 6.8727 52.4536C6.71936 52.907 6.64269 53.387 6.64269 53.8936C6.64269 54.407 6.71936 54.8903 6.8727 55.3436C7.03269 55.797 7.25936 56.1936 7.5527 56.5336C7.84603 56.8736 8.2027 57.1436 8.6227 57.3436C9.04936 57.537 9.52937 57.6336 10.0627 57.6336C10.3427 57.6336 10.626 57.6003 10.9127 57.5336C11.1994 57.467 11.476 57.357 11.7427 57.2036L12.7827 58.1136ZM10.7427 55.1236L10.1427 55.8136L10.8627 56.4436C10.736 56.5036 10.6027 56.547 10.4627 56.5736C10.3294 56.6003 10.196 56.6136 10.0627 56.6136C9.68269 56.6136 9.35269 56.537 9.07269 56.3836C8.79936 56.2303 8.57603 56.027 8.40269 55.7736C8.22936 55.5136 8.09937 55.2203 8.0127 54.8936C7.93269 54.567 7.89269 54.2336 7.89269 53.8936C7.89269 53.5536 7.93269 53.2203 8.0127 52.8936C8.09937 52.567 8.22936 52.277 8.40269 52.0236C8.57603 51.7636 8.79936 51.557 9.07269 51.4036C9.35269 51.2503 9.68269 51.1736 10.0627 51.1736C10.4427 51.1736 10.7694 51.2503 11.0427 51.4036C11.3227 51.557 11.5494 51.7636 11.7227 52.0236C11.896 52.277 12.0227 52.567 12.1027 52.8936C12.1894 53.2203 12.2327 53.5536 12.2327 53.8936C12.2327 54.2536 12.186 54.607 12.0927 54.9536C11.9994 55.3003 11.8394 55.6103 11.6127 55.8836L10.7427 55.1236ZM18.8404 56.6136C18.807 56.5536 18.7904 56.4536 18.7904 56.3136V53.6536C18.7904 53.3803 18.7304 53.1503 18.6104 52.9636C18.4903 52.7703 18.3304 52.6136 18.1303 52.4936C17.937 52.3736 17.717 52.287 17.4704 52.2336C17.2237 52.1803 16.9737 52.1536 16.7204 52.1536C16.4337 52.1536 16.1537 52.1803 15.8803 52.2336C15.607 52.287 15.3604 52.3803 15.1404 52.5136C14.927 52.647 14.7504 52.8236 14.6104 53.0436C14.4704 53.2636 14.3904 53.5403 14.3704 53.8736H15.5104C15.537 53.5936 15.6537 53.387 15.8604 53.2536C16.067 53.1203 16.3304 53.0536 16.6504 53.0536C16.7637 53.0536 16.8837 53.0636 17.0104 53.0836C17.137 53.097 17.2504 53.1303 17.3503 53.1836C17.457 53.2303 17.5437 53.3003 17.6104 53.3936C17.6837 53.487 17.7204 53.607 17.7204 53.7536C17.7204 53.9203 17.677 54.047 17.5904 54.1336C17.5104 54.2136 17.397 54.2736 17.2504 54.3136C17.1104 54.3536 16.947 54.3836 16.7604 54.4036C16.5737 54.417 16.377 54.4436 16.1703 54.4836C15.9304 54.5103 15.6904 54.5503 15.4503 54.6036C15.217 54.6503 15.0037 54.7303 14.8103 54.8436C14.6237 54.957 14.4704 55.1136 14.3503 55.3136C14.237 55.5136 14.1804 55.7736 14.1804 56.0936C14.1804 56.347 14.227 56.5703 14.3204 56.7636C14.4203 56.9503 14.5504 57.107 14.7104 57.2336C14.877 57.3536 15.067 57.4436 15.2803 57.5036C15.4937 57.5703 15.717 57.6036 15.9503 57.6036C16.257 57.6036 16.5737 57.5536 16.9004 57.4536C17.2337 57.3536 17.5137 57.1936 17.7403 56.9736C17.787 57.207 17.887 57.3703 18.0404 57.4636C18.1937 57.557 18.387 57.6036 18.6204 57.6036C18.667 57.6036 18.7237 57.6003 18.7904 57.5936C18.857 57.587 18.9237 57.577 18.9903 57.5636C19.057 57.5503 19.1204 57.5336 19.1804 57.5136C19.247 57.5003 19.3004 57.487 19.3404 57.4736V56.6836C19.2803 56.697 19.227 56.7036 19.1804 56.7036H19.0603C18.9537 56.7036 18.8803 56.6736 18.8404 56.6136ZM17.0104 55.0836C17.2637 55.057 17.477 54.987 17.6504 54.8736V55.7236C17.6504 55.9036 17.607 56.057 17.5204 56.1836C17.4337 56.3036 17.3237 56.4036 17.1904 56.4836C17.0637 56.5636 16.927 56.6203 16.7803 56.6536C16.6337 56.687 16.497 56.7036 16.3704 56.7036C16.2704 56.7036 16.157 56.6936 16.0303 56.6736C15.9104 56.6536 15.797 56.6203 15.6904 56.5736C15.5904 56.5203 15.5037 56.4503 15.4304 56.3636C15.357 56.277 15.3204 56.1703 15.3204 56.0436C15.3204 55.897 15.3437 55.7736 15.3904 55.6736C15.4437 55.567 15.5137 55.4836 15.6003 55.4236C15.687 55.357 15.787 55.307 15.9004 55.2736C16.0137 55.2336 16.1303 55.2036 16.2504 55.1836C16.5037 55.137 16.757 55.1036 17.0104 55.0836ZM24.037 52.2936H19.837V53.1936H22.497L19.637 56.6636V57.4636H24.187V56.5636H21.077L24.037 53.0936V52.2936ZM29.397 56.6136C29.3637 56.5536 29.347 56.4536 29.347 56.3136V53.6536C29.347 53.3803 29.287 53.1503 29.167 52.9636C29.047 52.7703 28.887 52.6136 28.687 52.4936C28.4937 52.3736 28.2737 52.287 28.027 52.2336C27.7803 52.1803 27.5303 52.1536 27.277 52.1536C26.9903 52.1536 26.7103 52.1803 26.437 52.2336C26.1637 52.287 25.917 52.3803 25.697 52.5136C25.4837 52.647 25.307 52.8236 25.167 53.0436C25.027 53.2636 24.947 53.5403 24.927 53.8736H26.067C26.0937 53.5936 26.2103 53.387 26.417 53.2536C26.6237 53.1203 26.887 53.0536 27.207 53.0536C27.3203 53.0536 27.4403 53.0636 27.567 53.0836C27.6937 53.097 27.807 53.1303 27.907 53.1836C28.0137 53.2303 28.1003 53.3003 28.167 53.3936C28.2403 53.487 28.277 53.607 28.277 53.7536C28.277 53.9203 28.2337 54.047 28.147 54.1336C28.067 54.2136 27.9537 54.2736 27.807 54.3136C27.667 54.3536 27.5037 54.3836 27.317 54.4036C27.1303 54.417 26.9337 54.4436 26.727 54.4836C26.487 54.5103 26.247 54.5503 26.007 54.6036C25.7737 54.6503 25.5603 54.7303 25.367 54.8436C25.1803 54.957 25.027 55.1136 24.907 55.3136C24.7937 55.5136 24.737 55.7736 24.737 56.0936C24.737 56.347 24.7837 56.5703 24.877 56.7636C24.977 56.9503 25.107 57.107 25.267 57.2336C25.4337 57.3536 25.6237 57.4436 25.837 57.5036C26.0503 57.5703 26.2737 57.6036 26.507 57.6036C26.8137 57.6036 27.1303 57.5536 27.457 57.4536C27.7903 57.3536 28.0703 57.1936 28.297 56.9736C28.3437 57.207 28.4437 57.3703 28.597 57.4636C28.7503 57.557 28.9437 57.6036 29.177 57.6036C29.2237 57.6036 29.2803 57.6003 29.347 57.5936C29.4137 57.587 29.4803 57.577 29.547 57.5636C29.6137 57.5503 29.677 57.5336 29.737 57.5136C29.8037 57.5003 29.857 57.487 29.897 57.4736V56.6836C29.837 56.697 29.7837 56.7036 29.737 56.7036H29.617C29.5103 56.7036 29.437 56.6736 29.397 56.6136ZM27.567 55.0836C27.8203 55.057 28.0337 54.987 28.207 54.8736V55.7236C28.207 55.9036 28.1637 56.057 28.077 56.1836C27.9903 56.3036 27.8803 56.4036 27.747 56.4836C27.6203 56.5636 27.4837 56.6203 27.337 56.6536C27.1903 56.687 27.0537 56.7036 26.927 56.7036C26.827 56.7036 26.7137 56.6936 26.587 56.6736C26.467 56.6536 26.3537 56.6203 26.247 56.5736C26.147 56.5203 26.0603 56.4503 25.987 56.3636C25.9137 56.277 25.877 56.1703 25.877 56.0436C25.877 55.897 25.9003 55.7736 25.947 55.6736C26.0003 55.567 26.0703 55.4836 26.157 55.4236C26.2437 55.357 26.3437 55.307 26.457 55.2736C26.5703 55.2336 26.687 55.2036 26.807 55.1836C27.0603 55.137 27.3137 55.1036 27.567 55.0836ZM34.3036 59.3736H35.4436V52.2936H34.3636V52.9936H34.3436C34.1836 52.6936 33.9603 52.4803 33.6736 52.3536C33.387 52.2203 33.077 52.1536 32.7436 52.1536C32.337 52.1536 31.9803 52.227 31.6736 52.3736C31.3736 52.5136 31.1236 52.7103 30.9236 52.9636C30.7236 53.2103 30.5736 53.5003 30.4736 53.8336C30.3736 54.167 30.3236 54.5236 30.3236 54.9036C30.3236 55.2503 30.367 55.587 30.4536 55.9136C30.547 56.2403 30.6836 56.5303 30.8636 56.7836C31.0503 57.0303 31.2836 57.2303 31.5636 57.3836C31.8436 57.5303 32.1736 57.6036 32.5536 57.6036C32.7203 57.6036 32.887 57.587 33.0536 57.5536C33.2203 57.527 33.3803 57.4803 33.5336 57.4136C33.687 57.347 33.827 57.2636 33.9536 57.1636C34.0803 57.057 34.1903 56.9336 34.2836 56.7936H34.3036V59.3736ZM31.5336 55.5536C31.487 55.3336 31.4636 55.1103 31.4636 54.8836C31.4636 54.6503 31.4936 54.4236 31.5536 54.2036C31.6136 53.9836 31.7036 53.7903 31.8236 53.6236C31.9436 53.4503 32.0936 53.3136 32.2736 53.2136C32.4536 53.107 32.6603 53.0536 32.8936 53.0536C33.3736 53.0536 33.7336 53.217 33.9736 53.5436C34.2203 53.8703 34.3436 54.317 34.3436 54.8836C34.3436 55.4236 34.2236 55.8636 33.9836 56.2036C33.7503 56.537 33.387 56.7036 32.8936 56.7036C32.6336 56.7036 32.4136 56.6503 32.2336 56.5436C32.0536 56.437 31.9036 56.3003 31.7836 56.1336C31.6703 55.9603 31.587 55.767 31.5336 55.5536ZM37.9269 56.5036C37.7069 56.3703 37.5802 56.137 37.5469 55.8036H36.4069C36.4136 56.1103 36.4736 56.377 36.5869 56.6036C36.7069 56.8236 36.8669 57.0103 37.0669 57.1636C37.2736 57.3103 37.5136 57.4203 37.7869 57.4936C38.0669 57.567 38.3702 57.6036 38.6969 57.6036C38.9636 57.6036 39.2336 57.5736 39.5069 57.5136C39.7803 57.4536 40.0269 57.357 40.2469 57.2236C40.4736 57.0903 40.6569 56.917 40.7969 56.7036C40.9369 56.4903 41.0069 56.2303 41.0069 55.9236C41.0069 55.6703 40.9569 55.457 40.8569 55.2836C40.7636 55.1103 40.6369 54.967 40.4769 54.8536C40.3236 54.7403 40.1469 54.6503 39.9469 54.5836C39.7469 54.517 39.5436 54.4603 39.3369 54.4136C39.1236 54.367 38.9169 54.3236 38.7169 54.2836C38.5169 54.2436 38.3369 54.197 38.1769 54.1436C38.0236 54.0836 37.8969 54.0103 37.7969 53.9236C37.7036 53.837 37.6569 53.7236 37.6569 53.5836C37.6569 53.4703 37.6902 53.3803 37.7569 53.3136C37.8236 53.2403 37.9036 53.187 37.9969 53.1536C38.0969 53.1136 38.2002 53.087 38.3069 53.0736C38.4202 53.0603 38.5169 53.0536 38.5969 53.0536C38.8503 53.0536 39.0736 53.1003 39.2669 53.1936C39.4669 53.287 39.5936 53.4703 39.6469 53.7436H40.8369C40.8036 53.457 40.7202 53.2136 40.5869 53.0136C40.4603 52.807 40.2969 52.6403 40.0969 52.5136C39.9036 52.387 39.6836 52.297 39.4369 52.2436C39.1969 52.1836 38.9436 52.1536 38.6769 52.1536C38.4436 52.1536 38.1969 52.177 37.9369 52.2236C37.6836 52.2703 37.4502 52.3536 37.2369 52.4736C37.0303 52.587 36.8569 52.7403 36.7169 52.9336C36.5836 53.1203 36.5169 53.3536 36.5169 53.6336C36.5169 53.8936 36.5636 54.1136 36.6569 54.2936C36.7502 54.467 36.8736 54.6103 37.0269 54.7236C37.1869 54.837 37.3636 54.927 37.5569 54.9936C37.7569 55.0603 37.9636 55.117 38.1769 55.1636C38.3836 55.2103 38.5869 55.2536 38.7869 55.2936C38.9869 55.3336 39.1636 55.3836 39.3169 55.4436C39.4769 55.497 39.6069 55.5703 39.7069 55.6636C39.8069 55.757 39.8602 55.877 39.8669 56.0236C39.8736 56.1703 39.8369 56.2903 39.7569 56.3836C39.6836 56.4703 39.5869 56.537 39.4669 56.5836C39.3469 56.6303 39.2169 56.6636 39.0769 56.6836C38.9436 56.697 38.8236 56.7036 38.7169 56.7036C38.4102 56.7036 38.1469 56.637 37.9269 56.5036ZM42.2125 52.2936H41.3525V53.1436H42.2125V56.1936C42.2191 56.407 42.2391 56.597 42.2725 56.7636C42.3125 56.9303 42.3825 57.0703 42.4825 57.1836C42.5891 57.2903 42.7325 57.3736 42.9125 57.4336C43.0991 57.487 43.3425 57.5136 43.6425 57.5136C43.7691 57.5136 43.8925 57.507 44.0125 57.4936C44.1325 57.4803 44.2558 57.467 44.3825 57.4536V56.5736C44.3025 56.5936 44.2225 56.607 44.1425 56.6136H43.9025C43.7758 56.6136 43.6758 56.6003 43.6025 56.5736C43.5291 56.5403 43.4725 56.4936 43.4325 56.4336C43.3991 56.3736 43.3758 56.3003 43.3625 56.2136C43.3558 56.127 43.3525 56.0236 43.3525 55.9036V53.1436H44.3825V52.2936H43.3525V50.7436H42.2125V52.2936ZM49.5825 56.6136C49.5492 56.5536 49.5325 56.4536 49.5325 56.3136V53.6536C49.5325 53.3803 49.4725 53.1503 49.3525 52.9636C49.2325 52.7703 49.0725 52.6136 48.8725 52.4936C48.6792 52.3736 48.4592 52.287 48.2125 52.2336C47.9659 52.1803 47.7159 52.1536 47.4625 52.1536C47.1759 52.1536 46.8959 52.1803 46.6225 52.2336C46.3492 52.287 46.1025 52.3803 45.8825 52.5136C45.6692 52.647 45.4925 52.8236 45.3525 53.0436C45.2125 53.2636 45.1325 53.5403 45.1125 53.8736H46.2525C46.2792 53.5936 46.3959 53.387 46.6025 53.2536C46.8092 53.1203 47.0725 53.0536 47.3925 53.0536C47.5059 53.0536 47.6259 53.0636 47.7525 53.0836C47.8792 53.097 47.9925 53.1303 48.0925 53.1836C48.1992 53.2303 48.2859 53.3003 48.3525 53.3936C48.4259 53.487 48.4625 53.607 48.4625 53.7536C48.4625 53.9203 48.4192 54.047 48.3325 54.1336C48.2525 54.2136 48.1392 54.2736 47.9925 54.3136C47.8525 54.3536 47.6892 54.3836 47.5025 54.4036C47.3159 54.417 47.1192 54.4436 46.9125 54.4836C46.6725 54.5103 46.4325 54.5503 46.1925 54.6036C45.9592 54.6503 45.7459 54.7303 45.5525 54.8436C45.3659 54.957 45.2125 55.1136 45.0925 55.3136C44.9792 55.5136 44.9225 55.7736 44.9225 56.0936C44.9225 56.347 44.9692 56.5703 45.0625 56.7636C45.1625 56.9503 45.2925 57.107 45.4525 57.2336C45.6192 57.3536 45.8092 57.4436 46.0225 57.5036C46.2359 57.5703 46.4592 57.6036 46.6925 57.6036C46.9992 57.6036 47.3159 57.5536 47.6425 57.4536C47.9759 57.3536 48.2559 57.1936 48.4825 56.9736C48.5292 57.207 48.6292 57.3703 48.7825 57.4636C48.9359 57.557 49.1292 57.6036 49.3625 57.6036C49.4092 57.6036 49.4659 57.6003 49.5325 57.5936C49.5992 57.587 49.6659 57.577 49.7325 57.5636C49.7992 57.5503 49.8625 57.5336 49.9225 57.5136C49.9892 57.5003 50.0425 57.487 50.0825 57.4736V56.6836C50.0225 56.697 49.9692 56.7036 49.9225 56.7036H49.8025C49.6959 56.7036 49.6225 56.6736 49.5825 56.6136ZM47.7525 55.0836C48.0059 55.057 48.2192 54.987 48.3925 54.8736V55.7236C48.3925 55.9036 48.3492 56.057 48.2625 56.1836C48.1759 56.3036 48.0659 56.4036 47.9325 56.4836C47.8059 56.5636 47.6692 56.6203 47.5225 56.6536C47.3759 56.687 47.2392 56.7036 47.1125 56.7036C47.0125 56.7036 46.8992 56.6936 46.7725 56.6736C46.6525 56.6536 46.5392 56.6203 46.4325 56.5736C46.3325 56.5203 46.2459 56.4503 46.1725 56.3636C46.0992 56.277 46.0625 56.1703 46.0625 56.0436C46.0625 55.897 46.0859 55.7736 46.1325 55.6736C46.1859 55.567 46.2559 55.4836 46.3425 55.4236C46.4292 55.357 46.5292 55.307 46.6425 55.2736C46.7559 55.2336 46.8725 55.2036 46.9925 55.1836C47.2459 55.137 47.4992 55.1036 47.7525 55.0836ZM51.8392 52.2936H50.7592V57.4636H51.8992V54.4136C51.8992 54.227 51.9292 54.0503 51.9892 53.8836C52.0492 53.717 52.1325 53.5736 52.2392 53.4536C52.3458 53.327 52.4758 53.2303 52.6292 53.1636C52.7825 53.0903 52.9558 53.0536 53.1492 53.0536C53.4892 53.0536 53.7392 53.147 53.8992 53.3336C54.0592 53.5136 54.1458 53.807 54.1592 54.2136V57.4636H55.2992V53.9136C55.2992 53.327 55.1358 52.887 54.8092 52.5936C54.4825 52.3003 54.0358 52.1536 53.4692 52.1536C53.1292 52.1536 52.8192 52.237 52.5392 52.4036C52.2592 52.5636 52.0325 52.787 51.8592 53.0736L51.8392 53.0536V52.2936Z" fill="white"/>
</g>
<rect x="0.5" y="0.5" width="113" height="61" rx="2.5" stroke="white"/>
<defs>
<clipPath id="clip0_255_7853">
<rect width="114" height="62" rx="3" fill="white"/>
</clipPath>
</defs>
</svg>
