<svg width="115" height="62" viewBox="0 0 115 62" fill="none" xmlns="http://www.w3.org/2000/svg">
<g clip-path="url(#clip0_251_31178)">
<path d="M0.15332 0H114.153V59C114.153 60.6569 112.81 62 111.153 62H3.15332C1.49647 62 0.15332 60.6569 0.15332 59V0Z" fill="white"/>
<path d="M17.0004 21.676C17.0004 23.9798 15.8909 25.5401 13.0811 25.5401H12.1932V18.2032C12.5088 18.1852 12.8036 18.1852 13.0811 18.1852C15.7416 18.185 17.0004 19.4478 17.0004 21.676ZM14.1162 28.7346C19.1438 28.7346 22.3226 26.1336 22.3226 21.6026C22.3224 16.6239 18.9217 14.8413 13.3768 14.8413C11.2324 14.8413 8.64474 14.9894 6.79688 15.2123V32.9703H12.1934V28.7346H14.1162ZM86.4218 21.676C86.4218 23.9798 85.3138 25.5401 82.5032 25.5401H81.6183V18.2032C81.9312 18.1852 82.2265 18.1852 82.5032 18.1852C85.164 18.185 86.4218 19.4478 86.4218 21.676ZM83.5408 28.7346C88.5644 28.7346 91.745 26.1336 91.745 21.6026C91.745 16.6239 88.3448 14.8413 82.7994 14.8413C80.6555 14.8413 78.0663 14.9894 76.2182 15.2123V32.9703H81.6175V28.7346H83.5408ZM98.7675 19.7443C98.7675 18.7788 99.7298 18.3324 101.281 18.3324C102.982 18.3324 104.832 18.7041 106.087 19.2262L105.644 15.3614C104.239 15.0641 102.982 14.8413 100.691 14.8413C96.3283 14.8413 93.3719 16.5694 93.3719 20.1914C93.3719 26.4309 101.802 25.1688 101.802 28.0664C101.802 29.1797 100.987 29.7738 98.9899 29.7738C97.2182 29.7738 94.4807 29.1797 92.8545 28.3629L93.4476 32.4505C95.0725 33.0448 97.2906 33.341 99.0655 33.341C103.574 33.341 107.271 31.8547 107.271 27.3961C107.271 21.4545 98.7675 22.5678 98.7675 19.7443ZM72.1536 15.2123H66.757V32.9703H72.1536V15.2123ZM50.269 15.2123H44.8719V32.9703H50.269V15.2123ZM59.6583 29.4028V15.2123H54.2612V32.9703H64.0213L64.8337 29.4028H59.6583ZM40.8799 15.2123H35.4828V22.2706H29.8639V15.2123H24.4658V32.9703H29.8636V25.9855H35.4826V32.9703H40.8797L40.8799 15.2123Z" fill="#2B5BCB"/>
<path fill-rule="evenodd" clip-rule="evenodd" d="M-64.6572 46.3177V62.0002H122.847V28.241C116.805 39.0271 105.266 46.3175 92.0234 46.3175C92.023 46.3175 92.0226 46.3175 92.0222 46.3175V46.3177H-64.6572Z" fill="url(#paint0_linear_251_31178)"/>
<path d="M6.55688 50.4569H11.6969V51.5369H7.80688V53.4069H11.4069V54.4269H7.80688V56.5169H11.7669V57.5969H6.55688V50.4569ZM17.0257 56.4469C17.0257 56.5869 17.0424 56.6869 17.0757 56.7469C17.1157 56.8069 17.189 56.8369 17.2957 56.8369C17.329 56.8369 17.369 56.8369 17.4157 56.8369C17.4624 56.8369 17.5157 56.8303 17.5757 56.8169V57.6069C17.5357 57.6203 17.4824 57.6336 17.4157 57.6469C17.3557 57.6669 17.2924 57.6836 17.2257 57.6969C17.159 57.7103 17.0924 57.7203 17.0257 57.7269C16.959 57.7336 16.9024 57.7369 16.8557 57.7369C16.6224 57.7369 16.429 57.6903 16.2757 57.5969C16.1224 57.5036 16.0224 57.3403 15.9757 57.1069C15.749 57.3269 15.469 57.4869 15.1357 57.5869C14.809 57.6869 14.4924 57.7369 14.1857 57.7369C13.9524 57.7369 13.729 57.7036 13.5157 57.6369C13.3024 57.5769 13.1124 57.4869 12.9457 57.3669C12.7857 57.2403 12.6557 57.0836 12.5557 56.8969C12.4624 56.7036 12.4157 56.4803 12.4157 56.2269C12.4157 55.9069 12.4724 55.6469 12.5857 55.4469C12.7057 55.2469 12.859 55.0903 13.0457 54.9769C13.239 54.8636 13.4524 54.7836 13.6857 54.7369C13.9257 54.6836 14.1657 54.6436 14.4057 54.6169C14.6124 54.5769 14.809 54.5503 14.9957 54.5369C15.1824 54.5169 15.3457 54.4869 15.4857 54.4469C15.6324 54.4069 15.7457 54.3469 15.8257 54.2669C15.9124 54.1803 15.9557 54.0536 15.9557 53.8869C15.9557 53.7403 15.919 53.6203 15.8457 53.5269C15.779 53.4336 15.6924 53.3636 15.5857 53.3169C15.4857 53.2636 15.3724 53.2303 15.2457 53.2169C15.119 53.1969 14.999 53.1869 14.8857 53.1869C14.5657 53.1869 14.3024 53.2536 14.0957 53.3869C13.889 53.5203 13.7724 53.7269 13.7457 54.0069H12.6057C12.6257 53.6736 12.7057 53.3969 12.8457 53.1769C12.9857 52.9569 13.1624 52.7803 13.3757 52.6469C13.5957 52.5136 13.8424 52.4203 14.1157 52.3669C14.389 52.3136 14.669 52.2869 14.9557 52.2869C15.209 52.2869 15.459 52.3136 15.7057 52.3669C15.9524 52.4203 16.1724 52.5069 16.3657 52.6269C16.5657 52.7469 16.7257 52.9036 16.8457 53.0969C16.9657 53.2836 17.0257 53.5136 17.0257 53.7869V56.4469ZM15.8857 55.0069C15.7124 55.1203 15.499 55.1903 15.2457 55.2169C14.9924 55.2369 14.739 55.2703 14.4857 55.3169C14.3657 55.3369 14.249 55.3669 14.1357 55.4069C14.0224 55.4403 13.9224 55.4903 13.8357 55.5569C13.749 55.6169 13.679 55.7003 13.6257 55.8069C13.579 55.9069 13.5557 56.0303 13.5557 56.1769C13.5557 56.3036 13.5924 56.4103 13.6657 56.4969C13.739 56.5836 13.8257 56.6536 13.9257 56.7069C14.0324 56.7536 14.1457 56.7869 14.2657 56.8069C14.3924 56.8269 14.5057 56.8369 14.6057 56.8369C14.7324 56.8369 14.869 56.8203 15.0157 56.7869C15.1624 56.7536 15.299 56.6969 15.4257 56.6169C15.559 56.5369 15.669 56.4369 15.7557 56.3169C15.8424 56.1903 15.8857 56.0369 15.8857 55.8569V55.0069ZM19.1123 55.9369C19.1457 56.2703 19.2723 56.5036 19.4923 56.6369C19.7123 56.7703 19.9757 56.8369 20.2823 56.8369C20.389 56.8369 20.509 56.8303 20.6423 56.8169C20.7823 56.7969 20.9123 56.7636 21.0323 56.7169C21.1523 56.6703 21.249 56.6036 21.3223 56.5169C21.4023 56.4236 21.439 56.3036 21.4323 56.1569C21.4257 56.0103 21.3723 55.8903 21.2723 55.7969C21.1723 55.7036 21.0423 55.6303 20.8823 55.5769C20.729 55.5169 20.5523 55.4669 20.3523 55.4269C20.1523 55.3869 19.949 55.3436 19.7423 55.2969C19.529 55.2503 19.3223 55.1936 19.1223 55.1269C18.929 55.0603 18.7523 54.9703 18.5923 54.8569C18.439 54.7436 18.3157 54.6003 18.2223 54.4269C18.129 54.2469 18.0823 54.0269 18.0823 53.7669C18.0823 53.4869 18.149 53.2536 18.2823 53.0669C18.4223 52.8736 18.5957 52.7203 18.8023 52.6069C19.0157 52.4869 19.249 52.4036 19.5023 52.3569C19.7623 52.3103 20.009 52.2869 20.2423 52.2869C20.509 52.2869 20.7623 52.3169 21.0023 52.3769C21.249 52.4303 21.469 52.5203 21.6623 52.6469C21.8623 52.7736 22.0257 52.9403 22.1523 53.1469C22.2857 53.3469 22.369 53.5903 22.4023 53.8769H21.2123C21.159 53.6036 21.0323 53.4203 20.8323 53.3269C20.639 53.2336 20.4157 53.1869 20.1623 53.1869C20.0823 53.1869 19.9857 53.1936 19.8723 53.2069C19.7657 53.2203 19.6623 53.2469 19.5623 53.2869C19.469 53.3203 19.389 53.3736 19.3223 53.4469C19.2557 53.5136 19.2223 53.6036 19.2223 53.7169C19.2223 53.8569 19.269 53.9703 19.3623 54.0569C19.4623 54.1436 19.589 54.2169 19.7423 54.2769C19.9023 54.3303 20.0823 54.3769 20.2823 54.4169C20.4823 54.4569 20.689 54.5003 20.9023 54.5469C21.109 54.5936 21.3123 54.6503 21.5123 54.7169C21.7123 54.7836 21.889 54.8736 22.0423 54.9869C22.2023 55.1003 22.329 55.2436 22.4223 55.4169C22.5223 55.5903 22.5723 55.8036 22.5723 56.0569C22.5723 56.3636 22.5023 56.6236 22.3623 56.8369C22.2223 57.0503 22.039 57.2236 21.8123 57.3569C21.5923 57.4903 21.3457 57.5869 21.0723 57.6469C20.799 57.7069 20.529 57.7369 20.2623 57.7369C19.9357 57.7369 19.6323 57.7003 19.3523 57.6269C19.079 57.5536 18.839 57.4436 18.6323 57.2969C18.4323 57.1436 18.2723 56.9569 18.1523 56.7369C18.039 56.5103 17.979 56.2436 17.9723 55.9369H19.1123ZM22.8679 52.4269H24.1179L25.4679 56.2869H25.4879L26.7979 52.4269H27.9879L25.9779 57.8769C25.8846 58.1103 25.7912 58.3336 25.6979 58.5469C25.6112 58.7603 25.5012 58.9469 25.3679 59.1069C25.2412 59.2736 25.0812 59.4036 24.8879 59.4969C24.6946 59.5969 24.4479 59.6469 24.1479 59.6469C23.8812 59.6469 23.6179 59.6269 23.3579 59.5869V58.6269C23.4512 58.6403 23.5412 58.6536 23.6279 58.6669C23.7146 58.6869 23.8046 58.6969 23.8979 58.6969C24.0312 58.6969 24.1412 58.6803 24.2279 58.6469C24.3146 58.6136 24.3846 58.5636 24.4379 58.4969C24.4979 58.4369 24.5479 58.3636 24.5879 58.2769C24.6279 58.1903 24.6646 58.0903 24.6979 57.9769L24.8279 57.5769L22.8679 52.4269ZM28.6534 50.4569H29.7934V54.5169L31.8534 52.4269H33.2534L31.2734 54.3269L33.4434 57.5969H32.0534L30.4734 55.0869L29.7934 55.7469V57.5969H28.6534V50.4569ZM37.5445 54.5569C37.5312 54.3769 37.4912 54.2036 37.4245 54.0369C37.3645 53.8703 37.2779 53.7269 37.1645 53.6069C37.0579 53.4803 36.9245 53.3803 36.7645 53.3069C36.6112 53.2269 36.4379 53.1869 36.2445 53.1869C36.0445 53.1869 35.8612 53.2236 35.6945 53.2969C35.5345 53.3636 35.3945 53.4603 35.2745 53.5869C35.1612 53.7069 35.0679 53.8503 34.9945 54.0169C34.9279 54.1836 34.8912 54.3636 34.8845 54.5569H37.5445ZM34.8845 55.3069C34.8845 55.5069 34.9112 55.7003 34.9645 55.8869C35.0245 56.0736 35.1112 56.2369 35.2245 56.3769C35.3379 56.5169 35.4812 56.6303 35.6545 56.7169C35.8279 56.7969 36.0345 56.8369 36.2745 56.8369C36.6079 56.8369 36.8745 56.7669 37.0745 56.6269C37.2812 56.4803 37.4345 56.2636 37.5345 55.9769H38.6145C38.5545 56.2569 38.4512 56.5069 38.3045 56.7269C38.1579 56.9469 37.9812 57.1336 37.7745 57.2869C37.5679 57.4336 37.3345 57.5436 37.0745 57.6169C36.8212 57.6969 36.5545 57.7369 36.2745 57.7369C35.8679 57.7369 35.5079 57.6703 35.1945 57.5369C34.8812 57.4036 34.6145 57.2169 34.3945 56.9769C34.1812 56.7369 34.0179 56.4503 33.9045 56.1169C33.7979 55.7836 33.7445 55.4169 33.7445 55.0169C33.7445 54.6503 33.8012 54.3036 33.9145 53.9769C34.0345 53.6436 34.2012 53.3536 34.4145 53.1069C34.6345 52.8536 34.8979 52.6536 35.2045 52.5069C35.5112 52.3603 35.8579 52.2869 36.2445 52.2869C36.6512 52.2869 37.0145 52.3736 37.3345 52.5469C37.6612 52.7136 37.9312 52.9369 38.1445 53.2169C38.3579 53.4969 38.5112 53.8203 38.6045 54.1869C38.7045 54.5469 38.7312 54.9203 38.6845 55.3069H34.8845ZM38.9812 52.4269H40.2312L41.5812 56.2869H41.6012L42.9112 52.4269H44.1012L42.0912 57.8769C41.9978 58.1103 41.9045 58.3336 41.8112 58.5469C41.7245 58.7603 41.6145 58.9469 41.4812 59.1069C41.3545 59.2736 41.1945 59.4036 41.0012 59.4969C40.8078 59.5969 40.5612 59.6469 40.2612 59.6469C39.9945 59.6469 39.7312 59.6269 39.4712 59.5869V58.6269C39.5645 58.6403 39.6545 58.6536 39.7412 58.6669C39.8278 58.6869 39.9178 58.6969 40.0112 58.6969C40.1445 58.6969 40.2545 58.6803 40.3412 58.6469C40.4278 58.6136 40.4978 58.5636 40.5512 58.4969C40.6112 58.4369 40.6612 58.3636 40.7012 58.2769C40.7412 58.1903 40.7778 58.0903 40.8112 57.9769L40.9412 57.5769L38.9812 52.4269Z" fill="white"/>
</g>
<defs>
<linearGradient id="paint0_linear_251_31178" x1="122.847" y1="37.503" x2="-64.673" y2="38.7199" gradientUnits="userSpaceOnUse">
<stop stop-color="#346F9F"/>
<stop offset="1" stop-color="#395680"/>
</linearGradient>
<clipPath id="clip0_251_31178">
<path d="M0.15332 0H114.153V59C114.153 60.6569 112.81 62 111.153 62H3.15332C1.49647 62 0.15332 60.6569 0.15332 59V0Z" fill="white"/>
</clipPath>
</defs>
</svg>
