<svg width="115" height="62" viewBox="0 0 115 62" fill="none" xmlns="http://www.w3.org/2000/svg">
<g clip-path="url(#clip0_251_31178)">
<path d="M0.15332 0H114.153V59C114.153 60.6569 112.81 62 111.153 62H3.15332C1.49647 62 0.15332 60.6569 0.15332 59V0Z" fill="white"/>
<path d="M17.0004 21.676C17.0004 23.9798 15.8909 25.5401 13.0811 25.5401H12.1932V18.2032C12.5088 18.1852 12.8036 18.1852 13.0811 18.1852C15.7416 18.185 17.0004 19.4478 17.0004 21.676ZM14.1162 28.7346C19.1438 28.7346 22.3226 26.1336 22.3226 21.6026C22.3224 16.6239 18.9217 14.8413 13.3768 14.8413C11.2324 14.8413 8.64474 14.9894 6.79688 15.2123V32.9703H12.1934V28.7346H14.1162ZM86.4218 21.676C86.4218 23.9798 85.3138 25.5401 82.5031 25.5401H81.6183V18.2032C81.9312 18.1852 82.2265 18.1852 82.5031 18.1852C85.164 18.185 86.4218 19.4478 86.4218 21.676ZM83.5408 28.7346C88.5644 28.7346 91.745 26.1336 91.745 21.6026C91.745 16.6239 88.3448 14.8413 82.7994 14.8413C80.6555 14.8413 78.0663 14.9894 76.2182 15.2123V32.9703H81.6175V28.7346H83.5408ZM98.7675 19.7443C98.7675 18.7788 99.7297 18.3324 101.281 18.3324C102.982 18.3324 104.832 18.7041 106.087 19.2262L105.644 15.3614C104.239 15.0641 102.982 14.8413 100.691 14.8413C96.3283 14.8413 93.3719 16.5694 93.3719 20.1914C93.3719 26.4309 101.802 25.1688 101.802 28.0664C101.802 29.1797 100.987 29.7738 98.9899 29.7738C97.2182 29.7738 94.4807 29.1797 92.8545 28.3629L93.4476 32.4505C95.0725 33.0448 97.2906 33.341 99.0655 33.341C103.574 33.341 107.271 31.8547 107.271 27.3961C107.271 21.4545 98.7675 22.5678 98.7675 19.7443ZM72.1536 15.2123H66.757V32.9703H72.1536V15.2123ZM50.269 15.2123H44.8719V32.9703H50.269V15.2123ZM59.6583 29.4028V15.2123H54.2613V32.9703H64.0213L64.8337 29.4028H59.6583ZM40.8799 15.2123H35.4828V22.2706H29.8639V15.2123H24.4658V32.9703H29.8636V25.9855H35.4826V32.9703H40.8796L40.8799 15.2123Z" fill="#2B5BCB"/>
<path fill-rule="evenodd" clip-rule="evenodd" d="M-64.6572 46.3177V62.0002H122.847V28.2409C116.805 39.0271 105.266 46.3175 92.0234 46.3175C92.023 46.3175 92.0226 46.3175 92.0222 46.3175V46.3177H-64.6572Z" fill="url(#paint0_linear_251_31178)"/>
<path d="M12.9269 57.5669L12.3169 58.2469L11.2769 57.3369C11.0102 57.4903 10.7335 57.6003 10.4469 57.6669C10.1602 57.7336 9.87688 57.7669 9.59688 57.7669C9.06354 57.7669 8.58354 57.6703 8.15688 57.4769C7.73688 57.2769 7.38021 57.0069 7.08688 56.6669C6.79354 56.3269 6.56688 55.9303 6.40688 55.4769C6.25354 55.0236 6.17688 54.5403 6.17688 54.0269C6.17688 53.5203 6.25354 53.0403 6.40688 52.5869C6.56688 52.1336 6.79354 51.7369 7.08688 51.3969C7.38021 51.0569 7.73688 50.7869 8.15688 50.5869C8.58354 50.3869 9.06354 50.2869 9.59688 50.2869C10.1302 50.2869 10.6069 50.3869 11.0269 50.5869C11.4535 50.7869 11.8135 51.0569 12.1069 51.3969C12.4002 51.7369 12.6235 52.1336 12.7769 52.5869C12.9369 53.0403 13.0169 53.5203 13.0169 54.0269C13.0169 54.2736 12.9969 54.5236 12.9569 54.7769C12.9169 55.0236 12.8569 55.2669 12.7769 55.5069C12.6969 55.7469 12.5935 55.9769 12.4669 56.1969C12.3402 56.4103 12.1869 56.6003 12.0069 56.7669L12.9269 57.5669ZM9.67688 55.9469L10.2769 55.2569L11.1469 56.0169C11.3735 55.7436 11.5335 55.4336 11.6269 55.0869C11.7202 54.7403 11.7669 54.3869 11.7669 54.0269C11.7669 53.6869 11.7235 53.3536 11.6369 53.0269C11.5569 52.7003 11.4302 52.4103 11.2569 52.1569C11.0835 51.8969 10.8569 51.6903 10.5769 51.5369C10.3035 51.3836 9.97688 51.3069 9.59688 51.3069C9.21688 51.3069 8.88688 51.3836 8.60688 51.5369C8.33354 51.6903 8.11021 51.8969 7.93688 52.1569C7.76354 52.4103 7.63354 52.7003 7.54688 53.0269C7.46688 53.3536 7.42688 53.6869 7.42688 54.0269C7.42688 54.3669 7.46688 54.7003 7.54688 55.0269C7.63354 55.3536 7.76354 55.6469 7.93688 55.9069C8.11021 56.1603 8.33354 56.3636 8.60688 56.5169C8.88688 56.6703 9.21688 56.7469 9.59688 56.7469C9.73021 56.7469 9.86354 56.7336 9.99688 56.7069C10.1369 56.6803 10.2702 56.6369 10.3969 56.5769L9.67688 55.9469ZM18.3245 56.4469C18.3245 56.5869 18.3412 56.6869 18.3745 56.7469C18.4145 56.8069 18.4879 56.8369 18.5945 56.8369C18.6279 56.8369 18.6679 56.8369 18.7145 56.8369C18.7612 56.8369 18.8145 56.8303 18.8745 56.8169V57.6069C18.8345 57.6203 18.7812 57.6336 18.7145 57.6469C18.6545 57.6669 18.5912 57.6836 18.5245 57.6969C18.4579 57.7103 18.3912 57.7203 18.3245 57.7269C18.2579 57.7336 18.2012 57.7369 18.1545 57.7369C17.9212 57.7369 17.7279 57.6903 17.5745 57.5969C17.4212 57.5036 17.3212 57.3403 17.2745 57.1069C17.0479 57.3269 16.7679 57.4869 16.4345 57.5869C16.1079 57.6869 15.7912 57.7369 15.4845 57.7369C15.2512 57.7369 15.0279 57.7036 14.8145 57.6369C14.6012 57.5769 14.4112 57.4869 14.2445 57.3669C14.0845 57.2403 13.9545 57.0836 13.8545 56.8969C13.7612 56.7036 13.7145 56.4803 13.7145 56.2269C13.7145 55.9069 13.7712 55.6469 13.8845 55.4469C14.0045 55.2469 14.1579 55.0903 14.3445 54.9769C14.5379 54.8636 14.7512 54.7836 14.9845 54.7369C15.2245 54.6836 15.4645 54.6436 15.7045 54.6169C15.9112 54.5769 16.1079 54.5503 16.2945 54.5369C16.4812 54.5169 16.6445 54.4869 16.7845 54.4469C16.9312 54.4069 17.0445 54.3469 17.1245 54.2669C17.2112 54.1803 17.2545 54.0536 17.2545 53.8869C17.2545 53.7403 17.2179 53.6203 17.1445 53.5269C17.0779 53.4336 16.9912 53.3636 16.8845 53.3169C16.7845 53.2636 16.6712 53.2303 16.5445 53.2169C16.4179 53.1969 16.2979 53.1869 16.1845 53.1869C15.8645 53.1869 15.6012 53.2536 15.3945 53.3869C15.1879 53.5203 15.0712 53.7269 15.0445 54.0069H13.9045C13.9245 53.6736 14.0045 53.3969 14.1445 53.1769C14.2845 52.9569 14.4612 52.7803 14.6745 52.6469C14.8945 52.5136 15.1412 52.4203 15.4145 52.3669C15.6879 52.3136 15.9679 52.2869 16.2545 52.2869C16.5079 52.2869 16.7579 52.3136 17.0045 52.3669C17.2512 52.4203 17.4712 52.5069 17.6645 52.6269C17.8645 52.7469 18.0245 52.9036 18.1445 53.0969C18.2645 53.2836 18.3245 53.5136 18.3245 53.7869V56.4469ZM17.1845 55.0069C17.0112 55.1203 16.7979 55.1903 16.5445 55.2169C16.2912 55.2369 16.0379 55.2703 15.7845 55.3169C15.6645 55.3369 15.5479 55.3669 15.4345 55.4069C15.3212 55.4403 15.2212 55.4903 15.1345 55.5569C15.0479 55.6169 14.9779 55.7003 14.9245 55.8069C14.8779 55.9069 14.8545 56.0303 14.8545 56.1769C14.8545 56.3036 14.8912 56.4103 14.9645 56.4969C15.0379 56.5836 15.1245 56.6536 15.2245 56.7069C15.3312 56.7536 15.4445 56.7869 15.5645 56.8069C15.6912 56.8269 15.8045 56.8369 15.9045 56.8369C16.0312 56.8369 16.1679 56.8203 16.3145 56.7869C16.4612 56.7536 16.5979 56.6969 16.7245 56.6169C16.8579 56.5369 16.9679 56.4369 17.0545 56.3169C17.1412 56.1903 17.1845 56.0369 17.1845 55.8569V55.0069ZM19.3712 52.4269H23.5712V53.2269L20.6112 56.6969H23.7212V57.5969H19.1712V56.7969L22.0312 53.3269H19.3712V52.4269ZM28.8812 56.4469C28.8812 56.5869 28.8978 56.6869 28.9312 56.7469C28.9712 56.8069 29.0445 56.8369 29.1512 56.8369C29.1845 56.8369 29.2245 56.8369 29.2712 56.8369C29.3178 56.8369 29.3712 56.8303 29.4312 56.8169V57.6069C29.3912 57.6203 29.3378 57.6336 29.2712 57.6469C29.2112 57.6669 29.1478 57.6836 29.0812 57.6969C29.0145 57.7103 28.9478 57.7203 28.8812 57.7269C28.8145 57.7336 28.7578 57.7369 28.7112 57.7369C28.4778 57.7369 28.2845 57.6903 28.1312 57.5969C27.9778 57.5036 27.8778 57.3403 27.8312 57.1069C27.6045 57.3269 27.3245 57.4869 26.9912 57.5869C26.6645 57.6869 26.3478 57.7369 26.0412 57.7369C25.8078 57.7369 25.5845 57.7036 25.3712 57.6369C25.1578 57.5769 24.9678 57.4869 24.8012 57.3669C24.6412 57.2403 24.5112 57.0836 24.4112 56.8969C24.3178 56.7036 24.2712 56.4803 24.2712 56.2269C24.2712 55.9069 24.3278 55.6469 24.4412 55.4469C24.5612 55.2469 24.7145 55.0903 24.9012 54.9769C25.0945 54.8636 25.3078 54.7836 25.5412 54.7369C25.7812 54.6836 26.0212 54.6436 26.2612 54.6169C26.4678 54.5769 26.6645 54.5503 26.8512 54.5369C27.0378 54.5169 27.2012 54.4869 27.3412 54.4469C27.4878 54.4069 27.6012 54.3469 27.6812 54.2669C27.7678 54.1803 27.8112 54.0536 27.8112 53.8869C27.8112 53.7403 27.7745 53.6203 27.7012 53.5269C27.6345 53.4336 27.5478 53.3636 27.4412 53.3169C27.3412 53.2636 27.2278 53.2303 27.1012 53.2169C26.9745 53.1969 26.8545 53.1869 26.7412 53.1869C26.4212 53.1869 26.1578 53.2536 25.9512 53.3869C25.7445 53.5203 25.6278 53.7269 25.6012 54.0069H24.4612C24.4812 53.6736 24.5612 53.3969 24.7012 53.1769C24.8412 52.9569 25.0178 52.7803 25.2312 52.6469C25.4512 52.5136 25.6978 52.4203 25.9712 52.3669C26.2445 52.3136 26.5245 52.2869 26.8112 52.2869C27.0645 52.2869 27.3145 52.3136 27.5612 52.3669C27.8078 52.4203 28.0278 52.5069 28.2212 52.6269C28.4212 52.7469 28.5812 52.9036 28.7012 53.0969C28.8212 53.2836 28.8812 53.5136 28.8812 53.7869V56.4469ZM27.7412 55.0069C27.5678 55.1203 27.3545 55.1903 27.1012 55.2169C26.8478 55.2369 26.5945 55.2703 26.3412 55.3169C26.2212 55.3369 26.1045 55.3669 25.9912 55.4069C25.8778 55.4403 25.7778 55.4903 25.6912 55.5569C25.6045 55.6169 25.5345 55.7003 25.4812 55.8069C25.4345 55.9069 25.4112 56.0303 25.4112 56.1769C25.4112 56.3036 25.4478 56.4103 25.5212 56.4969C25.5945 56.5836 25.6812 56.6536 25.7812 56.7069C25.8878 56.7536 26.0012 56.7869 26.1212 56.8069C26.2478 56.8269 26.3612 56.8369 26.4612 56.8369C26.5878 56.8369 26.7245 56.8203 26.8712 56.7869C27.0178 56.7536 27.1545 56.6969 27.2812 56.6169C27.4145 56.5369 27.5245 56.4369 27.6112 56.3169C27.6978 56.1903 27.7412 56.0369 27.7412 55.8569V55.0069ZM34.9778 59.5069H33.8378V56.9269H33.8178C33.7245 57.0669 33.6145 57.1903 33.4878 57.2969C33.3611 57.3969 33.2211 57.4803 33.0678 57.5469C32.9145 57.6136 32.7545 57.6603 32.5878 57.6869C32.4211 57.7203 32.2545 57.7369 32.0878 57.7369C31.7078 57.7369 31.3778 57.6636 31.0978 57.5169C30.8178 57.3636 30.5845 57.1636 30.3978 56.9169C30.2178 56.6636 30.0811 56.3736 29.9878 56.0469C29.9011 55.7203 29.8578 55.3836 29.8578 55.0369C29.8578 54.6569 29.9078 54.3003 30.0078 53.9669C30.1078 53.6336 30.2578 53.3436 30.4578 53.0969C30.6578 52.8436 30.9078 52.6469 31.2078 52.5069C31.5145 52.3603 31.8711 52.2869 32.2778 52.2869C32.6111 52.2869 32.9211 52.3536 33.2078 52.4869C33.4945 52.6136 33.7178 52.8269 33.8778 53.1269H33.8978V52.4269H34.9778V59.5069ZM30.9978 55.0169C30.9978 55.2436 31.0211 55.4669 31.0678 55.6869C31.1211 55.9003 31.2045 56.0936 31.3178 56.2669C31.4378 56.4336 31.5878 56.5703 31.7678 56.6769C31.9478 56.7836 32.1678 56.8369 32.4278 56.8369C32.9211 56.8369 33.2845 56.6703 33.5178 56.3369C33.7578 55.9969 33.8778 55.5569 33.8778 55.0169C33.8778 54.4503 33.7545 54.0036 33.5078 53.6769C33.2678 53.3503 32.9078 53.1869 32.4278 53.1869C32.1945 53.1869 31.9878 53.2403 31.8078 53.3469C31.6278 53.4469 31.4778 53.5836 31.3578 53.7569C31.2378 53.9236 31.1478 54.1169 31.0878 54.3369C31.0278 54.5569 30.9978 54.7836 30.9978 55.0169ZM37.0811 55.9369C37.1144 56.2703 37.2411 56.5036 37.4611 56.6369C37.6811 56.7703 37.9444 56.8369 38.2511 56.8369C38.3578 56.8369 38.4778 56.8303 38.6111 56.8169C38.7511 56.7969 38.8811 56.7636 39.0011 56.7169C39.1211 56.6703 39.2178 56.6036 39.2911 56.5169C39.3711 56.4236 39.4078 56.3036 39.4011 56.1569C39.3944 56.0103 39.3411 55.8903 39.2411 55.7969C39.1411 55.7036 39.0111 55.6303 38.8511 55.5769C38.6978 55.5169 38.5211 55.4669 38.3211 55.4269C38.1211 55.3869 37.9178 55.3436 37.7111 55.2969C37.4978 55.2503 37.2911 55.1936 37.0911 55.1269C36.8978 55.0603 36.7211 54.9703 36.5611 54.8569C36.4078 54.7436 36.2844 54.6003 36.1911 54.4269C36.0978 54.2469 36.0511 54.0269 36.0511 53.7669C36.0511 53.4869 36.1178 53.2536 36.2511 53.0669C36.3911 52.8736 36.5644 52.7203 36.7711 52.6069C36.9844 52.4869 37.2178 52.4036 37.4711 52.3569C37.7311 52.3103 37.9778 52.2869 38.2111 52.2869C38.4778 52.2869 38.7311 52.3169 38.9711 52.3769C39.2178 52.4303 39.4378 52.5203 39.6311 52.6469C39.8311 52.7736 39.9944 52.9403 40.1211 53.1469C40.2544 53.3469 40.3378 53.5903 40.3711 53.8769H39.1811C39.1278 53.6036 39.0011 53.4203 38.8011 53.3269C38.6078 53.2336 38.3844 53.1869 38.1311 53.1869C38.0511 53.1869 37.9544 53.1936 37.8411 53.2069C37.7344 53.2203 37.6311 53.2469 37.5311 53.2869C37.4378 53.3203 37.3578 53.3736 37.2911 53.4469C37.2244 53.5136 37.1911 53.6036 37.1911 53.7169C37.1911 53.8569 37.2378 53.9703 37.3311 54.0569C37.4311 54.1436 37.5578 54.2169 37.7111 54.2769C37.8711 54.3303 38.0511 54.3769 38.2511 54.4169C38.4511 54.4569 38.6578 54.5003 38.8711 54.5469C39.0778 54.5936 39.2811 54.6503 39.4811 54.7169C39.6811 54.7836 39.8578 54.8736 40.0111 54.9869C40.1711 55.1003 40.2978 55.2436 40.3911 55.4169C40.4911 55.5903 40.5411 55.8036 40.5411 56.0569C40.5411 56.3636 40.4711 56.6236 40.3311 56.8369C40.1911 57.0503 40.0078 57.2236 39.7811 57.3569C39.5611 57.4903 39.3144 57.5869 39.0411 57.6469C38.7678 57.7069 38.4978 57.7369 38.2311 57.7369C37.9044 57.7369 37.6011 57.7003 37.3211 57.6269C37.0478 57.5536 36.8078 57.4436 36.6011 57.2969C36.4011 57.1436 36.2411 56.9569 36.1211 56.7369C36.0078 56.5103 35.9478 56.2436 35.9411 55.9369H37.0811ZM40.8866 52.4269H41.7466V50.8769H42.8866V52.4269H43.9166V53.2769H42.8866V56.0369C42.8866 56.1569 42.89 56.2603 42.8966 56.3469C42.91 56.4336 42.9333 56.5069 42.9666 56.5669C43.0066 56.6269 43.0633 56.6736 43.1366 56.7069C43.21 56.7336 43.31 56.7469 43.4366 56.7469C43.5166 56.7469 43.5966 56.7469 43.6766 56.7469C43.7566 56.7403 43.8366 56.7269 43.9166 56.7069V57.5869C43.79 57.6003 43.6666 57.6136 43.5466 57.6269C43.4266 57.6403 43.3033 57.6469 43.1766 57.6469C42.8766 57.6469 42.6333 57.6203 42.4466 57.5669C42.2666 57.5069 42.1233 57.4236 42.0166 57.3169C41.9166 57.2036 41.8466 57.0636 41.8066 56.8969C41.7733 56.7303 41.7533 56.5403 41.7466 56.3269V53.2769H40.8866V52.4269ZM49.0667 56.4469C49.0667 56.5869 49.0834 56.6869 49.1167 56.7469C49.1567 56.8069 49.2301 56.8369 49.3367 56.8369C49.3701 56.8369 49.4101 56.8369 49.4567 56.8369C49.5034 56.8369 49.5567 56.8303 49.6167 56.8169V57.6069C49.5767 57.6203 49.5234 57.6336 49.4567 57.6469C49.3967 57.6669 49.3334 57.6836 49.2667 57.6969C49.2001 57.7103 49.1334 57.7203 49.0667 57.7269C49.0001 57.7336 48.9434 57.7369 48.8967 57.7369C48.6634 57.7369 48.4701 57.6903 48.3167 57.5969C48.1634 57.5036 48.0634 57.3403 48.0167 57.1069C47.7901 57.3269 47.5101 57.4869 47.1767 57.5869C46.8501 57.6869 46.5334 57.7369 46.2267 57.7369C45.9934 57.7369 45.7701 57.7036 45.5567 57.6369C45.3434 57.5769 45.1534 57.4869 44.9867 57.3669C44.8267 57.2403 44.6967 57.0836 44.5967 56.8969C44.5034 56.7036 44.4567 56.4803 44.4567 56.2269C44.4567 55.9069 44.5134 55.6469 44.6267 55.4469C44.7467 55.2469 44.9001 55.0903 45.0867 54.9769C45.2801 54.8636 45.4934 54.7836 45.7267 54.7369C45.9667 54.6836 46.2067 54.6436 46.4467 54.6169C46.6534 54.5769 46.8501 54.5503 47.0367 54.5369C47.2234 54.5169 47.3867 54.4869 47.5267 54.4469C47.6734 54.4069 47.7867 54.3469 47.8667 54.2669C47.9534 54.1803 47.9967 54.0536 47.9967 53.8869C47.9967 53.7403 47.9601 53.6203 47.8867 53.5269C47.8201 53.4336 47.7334 53.3636 47.6267 53.3169C47.5267 53.2636 47.4134 53.2303 47.2867 53.2169C47.1601 53.1969 47.0401 53.1869 46.9267 53.1869C46.6067 53.1869 46.3434 53.2536 46.1367 53.3869C45.9301 53.5203 45.8134 53.7269 45.7867 54.0069H44.6467C44.6667 53.6736 44.7467 53.3969 44.8867 53.1769C45.0267 52.9569 45.2034 52.7803 45.4167 52.6469C45.6367 52.5136 45.8834 52.4203 46.1567 52.3669C46.4301 52.3136 46.7101 52.2869 46.9967 52.2869C47.2501 52.2869 47.5001 52.3136 47.7467 52.3669C47.9934 52.4203 48.2134 52.5069 48.4067 52.6269C48.6067 52.7469 48.7667 52.9036 48.8867 53.0969C49.0067 53.2836 49.0667 53.5136 49.0667 53.7869V56.4469ZM47.9267 55.0069C47.7534 55.1203 47.5401 55.1903 47.2867 55.2169C47.0334 55.2369 46.7801 55.2703 46.5267 55.3169C46.4067 55.3369 46.2901 55.3669 46.1767 55.4069C46.0634 55.4403 45.9634 55.4903 45.8767 55.5569C45.7901 55.6169 45.7201 55.7003 45.6667 55.8069C45.6201 55.9069 45.5967 56.0303 45.5967 56.1769C45.5967 56.3036 45.6334 56.4103 45.7067 56.4969C45.7801 56.5836 45.8667 56.6536 45.9667 56.7069C46.0734 56.7536 46.1867 56.7869 46.3067 56.8069C46.4334 56.8269 46.5467 56.8369 46.6467 56.8369C46.7734 56.8369 46.9101 56.8203 47.0567 56.7869C47.2034 56.7536 47.3401 56.6969 47.4667 56.6169C47.6001 56.5369 47.7101 56.4369 47.7967 56.3169C47.8834 56.1903 47.9267 56.0369 47.9267 55.8569V55.0069ZM50.2934 52.4269H51.3734V53.1869L51.3934 53.2069C51.5667 52.9203 51.7934 52.6969 52.0734 52.5369C52.3534 52.3703 52.6634 52.2869 53.0034 52.2869C53.57 52.2869 54.0167 52.4336 54.3434 52.7269C54.67 53.0203 54.8334 53.4603 54.8334 54.0469V57.5969H53.6934V54.3469C53.68 53.9403 53.5934 53.6469 53.4334 53.4669C53.2734 53.2803 53.0234 53.1869 52.6834 53.1869C52.49 53.1869 52.3167 53.2236 52.1634 53.2969C52.01 53.3636 51.88 53.4603 51.7734 53.5869C51.6667 53.7069 51.5834 53.8503 51.5234 54.0169C51.4634 54.1836 51.4334 54.3603 51.4334 54.5469V57.5969H50.2934V52.4269Z" fill="white"/>
</g>
<defs>
<linearGradient id="paint0_linear_251_31178" x1="122.847" y1="37.503" x2="-64.673" y2="38.7199" gradientUnits="userSpaceOnUse">
<stop stop-color="#346F9F"/>
<stop offset="1" stop-color="#395680"/>
</linearGradient>
<clipPath id="clip0_251_31178">
<path d="M0.15332 0H114.153V59C114.153 60.6569 112.81 62 111.153 62H3.15332C1.49647 62 0.15332 60.6569 0.15332 59V0Z" fill="white"/>
</clipPath>
</defs>
</svg>
