<svg width="114" height="62" viewBox="0 0 114 62" fill="none" xmlns="http://www.w3.org/2000/svg">
<g clip-path="url(#clip0_255_7853)">
<path d="M16.8471 21.676C16.8471 23.9798 15.7376 25.5401 12.9277 25.5401H12.0399V18.2032C12.3555 18.1852 12.6503 18.1852 12.9277 18.1852C15.5883 18.185 16.8471 19.4478 16.8471 21.676ZM13.9629 28.7346C18.9905 28.7346 22.1693 26.1336 22.1693 21.6026C22.1691 16.6239 18.7684 14.8413 13.2235 14.8413C11.0791 14.8413 8.49142 14.9894 6.64355 15.2123V32.9703H12.0401V28.7346H13.9629ZM86.2685 21.676C86.2685 23.9798 85.1604 25.5401 82.3498 25.5401H81.465V18.2032C81.7779 18.1852 82.0731 18.1852 82.3498 18.1852C85.0107 18.185 86.2685 19.4478 86.2685 21.676ZM83.3875 28.7346C88.4111 28.7346 91.5916 26.1336 91.5916 21.6026C91.5916 16.6239 88.1915 14.8413 82.6461 14.8413C80.5022 14.8413 77.913 14.9894 76.0649 15.2123V32.9703H81.4642V28.7346H83.3875ZM98.6142 19.7443C98.6142 18.7788 99.5764 18.3324 101.127 18.3324C102.829 18.3324 104.678 18.7041 105.934 19.2262L105.491 15.3614C104.085 15.0641 102.829 14.8413 100.537 14.8413C96.175 14.8413 93.2186 16.5694 93.2186 20.1914C93.2186 26.4309 101.648 25.1688 101.648 28.0664C101.648 29.1797 100.834 29.7738 98.8366 29.7738C97.0649 29.7738 94.3274 29.1797 92.7012 28.3629L93.2943 32.4505C94.9192 33.0448 97.1372 33.341 98.9122 33.341C103.421 33.341 107.118 31.8547 107.118 27.3961C107.118 21.4545 98.6142 22.5678 98.6142 19.7443ZM72.0002 15.2123H66.6037V32.9703H72.0002V15.2123ZM50.1157 15.2123H44.7186V32.9703H50.1157V15.2123ZM59.505 29.4028V15.2123H54.1079V32.9703H63.8679L64.6804 29.4028H59.505ZM40.7266 15.2123H35.3295V22.2706H29.7105V15.2123H24.3125V32.9703H29.7103V25.9855H35.3293V32.9703H40.7263L40.7266 15.2123Z" fill="white"/>
<path fill-rule="evenodd" clip-rule="evenodd" d="M-62.4873 62V46.3178H94.1877L94.1885 46.3177C107.431 46.3177 118.971 39.0264 125.013 28.2393V62H-62.4873ZM12.1627 50.3236H7.0227V57.4636H12.2327V56.3836H8.2727V54.2936H11.8727V53.2736H8.2727V51.4036H12.1627V50.3236ZM17.5415 56.6136C17.5082 56.5536 17.4915 56.4536 17.4915 56.3136V53.6536C17.4915 53.3803 17.4315 53.1503 17.3115 52.9636C17.1915 52.7703 17.0315 52.6136 16.8315 52.4936C16.6382 52.3736 16.4182 52.287 16.1715 52.2336C15.9249 52.1803 15.6749 52.1536 15.4215 52.1536C15.1349 52.1536 14.8549 52.1803 14.5815 52.2336C14.3082 52.287 14.0615 52.3803 13.8415 52.5136C13.6282 52.647 13.4515 52.8236 13.3115 53.0436C13.1715 53.2636 13.0915 53.5403 13.0715 53.8736H14.2115C14.2382 53.5936 14.3549 53.387 14.5615 53.2536C14.7682 53.1203 15.0315 53.0536 15.3515 53.0536C15.4649 53.0536 15.5849 53.0636 15.7115 53.0836C15.8382 53.097 15.9515 53.1303 16.0515 53.1836C16.1582 53.2303 16.2449 53.3003 16.3115 53.3936C16.3849 53.487 16.4215 53.607 16.4215 53.7536C16.4215 53.9203 16.3782 54.047 16.2915 54.1336C16.2115 54.2136 16.0982 54.2736 15.9515 54.3136C15.8115 54.3536 15.6482 54.3836 15.4615 54.4036C15.2749 54.417 15.0782 54.4436 14.8715 54.4836C14.6315 54.5103 14.3915 54.5503 14.1515 54.6036C13.9182 54.6503 13.7049 54.7303 13.5115 54.8436C13.3249 54.957 13.1715 55.1136 13.0515 55.3136C12.9382 55.5136 12.8815 55.7736 12.8815 56.0936C12.8815 56.347 12.9282 56.5703 13.0215 56.7636C13.1215 56.9503 13.2515 57.107 13.4115 57.2336C13.5782 57.3536 13.7682 57.4436 13.9815 57.5036C14.1949 57.5703 14.4182 57.6036 14.6515 57.6036C14.9582 57.6036 15.2749 57.5536 15.6015 57.4536C15.9349 57.3536 16.2149 57.1936 16.4415 56.9736C16.4882 57.207 16.5882 57.3703 16.7415 57.4636C16.8949 57.557 17.0882 57.6036 17.3215 57.6036C17.3682 57.6036 17.4249 57.6003 17.4915 57.5936C17.5582 57.587 17.6249 57.577 17.6915 57.5636C17.7582 57.5503 17.8215 57.5336 17.8815 57.5136C17.9482 57.5003 18.0015 57.487 18.0415 57.4736V56.6836C17.9815 56.697 17.9282 56.7036 17.8815 56.7036H17.7615C17.6549 56.7036 17.5815 56.6736 17.5415 56.6136ZM15.7115 55.0836C15.9649 55.057 16.1782 54.987 16.3515 54.8736V55.7236C16.3515 55.9036 16.3082 56.057 16.2215 56.1836C16.1349 56.3036 16.0249 56.4036 15.8915 56.4836C15.7649 56.5636 15.6282 56.6203 15.4815 56.6536C15.3349 56.687 15.1982 56.7036 15.0715 56.7036C14.9715 56.7036 14.8582 56.6936 14.7315 56.6736C14.6115 56.6536 14.4982 56.6203 14.3915 56.5736C14.2915 56.5203 14.2049 56.4503 14.1315 56.3636C14.0582 56.277 14.0215 56.1703 14.0215 56.0436C14.0215 55.897 14.0449 55.7736 14.0915 55.6736C14.1449 55.567 14.2149 55.4836 14.3015 55.4236C14.3882 55.357 14.4882 55.307 14.6015 55.2736C14.7149 55.2336 14.8315 55.2036 14.9515 55.1836C15.2049 55.137 15.4582 55.1036 15.7115 55.0836ZM19.9582 56.5036C19.7382 56.3703 19.6115 56.137 19.5782 55.8036H18.4382C18.4448 56.1103 18.5048 56.377 18.6182 56.6036C18.7382 56.8236 18.8982 57.0103 19.0982 57.1636C19.3048 57.3103 19.5448 57.4203 19.8182 57.4936C20.0982 57.567 20.4015 57.6036 20.7282 57.6036C20.9948 57.6036 21.2648 57.5736 21.5382 57.5136C21.8115 57.4536 22.0582 57.357 22.2782 57.2236C22.5048 57.0903 22.6882 56.917 22.8282 56.7036C22.9682 56.4903 23.0382 56.2303 23.0382 55.9236C23.0382 55.6703 22.9882 55.457 22.8882 55.2836C22.7948 55.1103 22.6682 54.967 22.5082 54.8536C22.3548 54.7403 22.1782 54.6503 21.9782 54.5836C21.7782 54.517 21.5748 54.4603 21.3682 54.4136C21.1548 54.367 20.9482 54.3236 20.7482 54.2836C20.5482 54.2436 20.3682 54.197 20.2082 54.1436C20.0548 54.0836 19.9282 54.0103 19.8282 53.9236C19.7348 53.837 19.6882 53.7236 19.6882 53.5836C19.6882 53.4703 19.7215 53.3803 19.7882 53.3136C19.8548 53.2403 19.9348 53.187 20.0282 53.1536C20.1282 53.1136 20.2315 53.087 20.3382 53.0736C20.4515 53.0603 20.5482 53.0536 20.6282 53.0536C20.8815 53.0536 21.1048 53.1003 21.2982 53.1936C21.4982 53.287 21.6248 53.4703 21.6782 53.7436H22.8682C22.8348 53.457 22.7515 53.2136 22.6182 53.0136C22.4915 52.807 22.3282 52.6403 22.1282 52.5136C21.9348 52.387 21.7148 52.297 21.4682 52.2436C21.2282 52.1836 20.9748 52.1536 20.7082 52.1536C20.4748 52.1536 20.2282 52.177 19.9682 52.2236C19.7148 52.2703 19.4815 52.3536 19.2682 52.4736C19.0615 52.587 18.8882 52.7403 18.7482 52.9336C18.6148 53.1203 18.5482 53.3536 18.5482 53.6336C18.5482 53.8936 18.5948 54.1136 18.6882 54.2936C18.7815 54.467 18.9048 54.6103 19.0582 54.7236C19.2182 54.837 19.3948 54.927 19.5882 54.9936C19.7882 55.0603 19.9948 55.117 20.2082 55.1636C20.4148 55.2103 20.6182 55.2536 20.8182 55.2936C21.0182 55.3336 21.1948 55.3836 21.3482 55.4436C21.5082 55.497 21.6382 55.5703 21.7382 55.6636C21.8382 55.757 21.8915 55.877 21.8982 56.0236C21.9048 56.1703 21.8682 56.2903 21.7882 56.3836C21.7148 56.4703 21.6182 56.537 21.4982 56.5836C21.3782 56.6303 21.2482 56.6636 21.1082 56.6836C20.9748 56.697 20.8548 56.7036 20.7482 56.7036C20.4415 56.7036 20.1782 56.637 19.9582 56.5036ZM24.5837 52.2936H23.3337L25.2937 57.4436L25.1637 57.8436C25.1304 57.957 25.0937 58.057 25.0537 58.1436C25.0137 58.2303 24.9637 58.3036 24.9037 58.3636C24.8504 58.4303 24.7804 58.4803 24.6937 58.5136C24.607 58.547 24.497 58.5636 24.3637 58.5636C24.2704 58.5636 24.1804 58.5536 24.0937 58.5336C24.007 58.5203 23.917 58.507 23.8237 58.4936V59.4536C24.0837 59.4936 24.347 59.5136 24.6137 59.5136C24.9137 59.5136 25.1604 59.4636 25.3537 59.3636C25.547 59.2703 25.707 59.1403 25.8337 58.9736C25.967 58.8136 26.077 58.627 26.1637 58.4136C26.257 58.2003 26.3504 57.977 26.4437 57.7436L28.4537 52.2936H27.2637L25.9537 56.1536H25.9337L24.5837 52.2936ZM30.2593 50.3236H29.1193V57.4636H30.2593V55.6136L30.9393 54.9536L32.5193 57.4636H33.9093L31.7393 54.1936L33.7193 52.2936H32.3193L30.2593 54.3836V50.3236ZM37.8904 53.9036C37.957 54.0703 37.997 54.2436 38.0104 54.4236H35.3503C35.357 54.2303 35.3937 54.0503 35.4604 53.8836C35.5337 53.717 35.627 53.5736 35.7403 53.4536C35.8604 53.327 36.0004 53.2303 36.1604 53.1636C36.327 53.0903 36.5104 53.0536 36.7104 53.0536C36.9037 53.0536 37.077 53.0936 37.2304 53.1736C37.3904 53.247 37.5237 53.347 37.6303 53.4736C37.7437 53.5936 37.8304 53.737 37.8904 53.9036ZM35.4304 55.7536C35.377 55.567 35.3503 55.3736 35.3503 55.1736H39.1504C39.197 54.787 39.1703 54.4136 39.0704 54.0536C38.977 53.687 38.8237 53.3636 38.6104 53.0836C38.397 52.8036 38.127 52.5803 37.8004 52.4136C37.4804 52.2403 37.117 52.1536 36.7104 52.1536C36.3237 52.1536 35.977 52.227 35.6703 52.3736C35.3637 52.5203 35.1003 52.7203 34.8803 52.9736C34.667 53.2203 34.5004 53.5103 34.3803 53.8436C34.267 54.1703 34.2104 54.517 34.2104 54.8836C34.2104 55.2836 34.2637 55.6503 34.3704 55.9836C34.4837 56.317 34.647 56.6036 34.8604 56.8436C35.0804 57.0836 35.347 57.2703 35.6604 57.4036C35.9737 57.537 36.3337 57.6036 36.7403 57.6036C37.0204 57.6036 37.287 57.5636 37.5404 57.4836C37.8004 57.4103 38.0337 57.3003 38.2403 57.1536C38.447 57.0003 38.6237 56.8136 38.7704 56.5936C38.917 56.3736 39.0204 56.1236 39.0804 55.8436H38.0004C37.9004 56.1303 37.747 56.347 37.5404 56.4936C37.3404 56.6336 37.0737 56.7036 36.7403 56.7036C36.5004 56.7036 36.2937 56.6636 36.1204 56.5836C35.947 56.497 35.8037 56.3836 35.6904 56.2436C35.577 56.1036 35.4903 55.9403 35.4304 55.7536ZM40.697 52.2936H39.447L41.407 57.4436L41.277 57.8436C41.2437 57.957 41.207 58.057 41.167 58.1436C41.127 58.2303 41.077 58.3036 41.017 58.3636C40.9637 58.4303 40.8937 58.4803 40.807 58.5136C40.7203 58.547 40.6103 58.5636 40.477 58.5636C40.3837 58.5636 40.2937 58.5536 40.207 58.5336C40.1203 58.5203 40.0303 58.507 39.937 58.4936V59.4536C40.197 59.4936 40.4603 59.5136 40.727 59.5136C41.027 59.5136 41.2737 59.4636 41.467 59.3636C41.6603 59.2703 41.8203 59.1403 41.947 58.9736C42.0803 58.8136 42.1903 58.627 42.277 58.4136C42.3703 58.2003 42.4637 57.977 42.557 57.7436L44.567 52.2936H43.377L42.067 56.1536H42.047L40.697 52.2936Z" fill="white"/>
</g>
<rect x="0.5" y="0.5" width="113" height="61" rx="2.5" stroke="white"/>
<defs>
<clipPath id="clip0_255_7853">
<rect width="114" height="62" rx="3" fill="white"/>
</clipPath>
</defs>
</svg>
