<svg width="72" height="17" viewBox="0 0 72 17" fill="none" xmlns="http://www.w3.org/2000/svg">
<path d="M15.3125 1.42857V2.3125H17.0625H18.8125V1.42857V0.544643H17.0625H15.3125V1.42857Z" fill="white"/>
<path d="M26.1045 5.98079V11.4464H26.9795H27.8545V9.53123V7.61605H29.1378H30.4066L31.5587 9.4723C32.2003 10.4888 32.7982 11.358 32.8857 11.4022C32.9878 11.4317 33.4545 11.4464 33.9357 11.4169L34.8107 11.3728L33.6587 9.53123L32.5066 7.68971L33.0899 7.58659C34.5045 7.33614 34.8545 6.64373 34.8545 4.03614C34.8545 1.97364 34.6649 1.41382 33.8337 0.912929C33.367 0.64775 33.0316 0.618286 29.7212 0.57409L26.1045 0.529893V5.98079ZM32.7399 2.31248L33.1191 2.4598L33.0753 4.18346L33.0316 5.92186L30.4503 5.96605L27.8545 5.99552V4.08034V2.16516H30.1003C31.3399 2.16516 32.5212 2.22409 32.7399 2.31248Z" fill="white"/>
<path d="M40.5416 0.868731C40.4541 1.06025 39.6229 3.50579 38.6749 6.31962L36.9541 11.4464H37.8583H38.7624L39.2729 10.0027L39.7833 8.57364H41.8541H43.9395L44.202 9.38391C44.3624 9.82588 44.5812 10.4741 44.7124 10.8129L44.9458 11.4464H45.8062C46.2729 11.4464 46.6666 11.3875 46.6666 11.3138C46.6666 11.196 43.3854 1.54641 43.0937 0.79507C43.0062 0.58882 42.802 0.544624 41.8395 0.544624C40.7749 0.544624 40.6729 0.574088 40.5416 0.868731ZM42.5833 4.66962C42.9333 5.68614 43.2395 6.59954 43.2833 6.68793C43.327 6.83525 42.9916 6.87945 41.8687 6.87945C41.052 6.87945 40.3958 6.83525 40.3958 6.76159C40.3812 6.48168 41.7812 2.62186 41.8687 2.72498C41.9124 2.78391 42.2333 3.65311 42.5833 4.66962Z" fill="white"/>
<path d="M49 5.99552V11.4464H49.8021H50.6042V7.21829C50.6042 4.84641 50.6625 3.04909 50.7354 3.12275C50.7937 3.21114 51.3333 4.50757 51.9312 6.03971L53.0104 8.79463L54.075 8.76516L55.1542 8.72096L56.2479 5.99552C56.8458 4.49284 57.4 3.21114 57.4729 3.12275C57.5458 3.04909 57.6042 4.69909 57.6042 7.21829V11.4464H58.4062H59.2083V5.99552V0.544624H57.925H56.6417L55.4167 3.63837C54.7458 5.33257 54.1625 6.73212 54.1042 6.73212C54.0604 6.73212 53.4625 5.3473 52.7917 3.63837L51.5521 0.544624H50.2833H49V5.99552Z" fill="white"/>
<path d="M63.8751 0.706609C62.8689 1.01598 62.4168 1.78206 62.4168 3.19634C62.4168 4.92 62.9855 5.58295 65.1439 6.29009C67.5939 7.11509 69.1689 7.74857 69.2855 7.94009C69.3585 8.04322 69.4168 8.44098 69.4168 8.82402C69.4168 9.36911 69.3585 9.56063 69.1397 9.67848C68.7314 9.89947 64.5605 9.87 64.3418 9.64902C64.2397 9.54589 64.1668 9.07447 64.1668 8.54411V7.61598H63.2772H62.373L62.446 8.86822C62.4897 9.82581 62.5772 10.2236 62.8105 10.5329C63.3793 11.299 63.7001 11.3727 66.7918 11.3727C69.971 11.3727 70.3501 11.2843 70.8314 10.3709C71.2105 9.67848 71.1814 7.8517 70.7876 7.17402C70.3793 6.46688 69.7376 6.12804 66.8939 5.17045C65.2605 4.62536 64.4147 4.25706 64.3126 4.08027C64.2251 3.93295 64.1668 3.50572 64.1668 3.13741C64.1668 2.62179 64.2397 2.43027 64.4439 2.31241C64.6043 2.23875 65.6543 2.16509 66.7918 2.16509C67.9293 2.16509 68.9793 2.23875 69.1397 2.31241C69.373 2.445 69.4168 2.63652 69.4168 3.41732V4.37491H70.3064H71.2105L71.1376 3.22581C71.0647 1.89991 70.773 1.2517 70.1022 0.883394C69.7085 0.662412 69.2126 0.618216 67.0105 0.588751C65.5376 0.574019 64.1668 0.632948 63.8751 0.706609Z" fill="white"/>
<path d="M11.667 5.11155V5.99548H15.2399H18.8128V5.11155V4.22763H15.2399H11.667V5.11155Z" fill="white"/>
<path d="M8.16699 8.79454V9.67847H13.4899H18.8128V8.79454V7.91061H13.4899H8.16699V8.79454Z" fill="white"/>
<path d="M4.52051 12.3303V13.2142H11.6663H18.8122V12.3303V11.4464H11.6663H4.52051V12.3303Z" fill="white"/>
<path d="M26.4687 15.0557C26.002 15.5124 25.9874 16.1459 26.4395 16.5731C26.702 16.8236 26.9208 16.8825 27.5187 16.853C27.9562 16.8383 28.2333 16.7646 28.1749 16.6763C28.1312 16.6026 28.102 16.2785 28.1166 15.9396C28.1604 15.2767 28.0729 15.0999 27.6062 14.8495C27.1249 14.599 26.8624 14.6432 26.4687 15.0557ZM27.5916 15.2325C27.7374 15.3651 27.8541 15.6745 27.8541 15.9249C27.8541 16.2638 27.8104 16.3227 27.6791 16.1901C27.577 16.087 27.402 16.0133 27.2854 16.0133C27.1249 16.0133 27.1395 16.087 27.3583 16.3227C27.6208 16.6321 27.6208 16.6321 27.1249 16.5731C26.4687 16.5142 26.2208 15.9396 26.5999 15.3651C26.877 14.9231 27.2124 14.8789 27.5916 15.2325Z" fill="white"/>
<path d="M48.4899 14.8642C48.067 15.1 47.9795 15.2767 47.9795 15.8955C47.9795 16.6026 48.4607 16.9709 49.2191 16.8531C49.4962 16.8089 49.7587 16.8383 49.817 16.912C49.8607 16.9857 49.9628 17.0151 50.0357 16.9562C50.1378 16.8973 50.1232 16.8089 50.0357 16.691C49.9482 16.5879 49.9191 16.2638 49.9774 15.9839C50.0357 15.5419 49.992 15.3799 49.6857 15.0705C49.2774 14.658 48.942 14.5991 48.4899 14.8642ZM49.5691 15.4388C49.817 15.8808 49.6857 16.47 49.4087 16.1901C49.3066 16.087 49.1753 16.0133 49.0878 16.0133C49.0003 16.0133 49.0149 16.087 49.117 16.1901C49.3795 16.4553 49.3212 16.6026 48.9566 16.6026C48.5045 16.6026 48.2712 16.3375 48.2712 15.8513C48.2712 14.9968 49.1607 14.7022 49.5691 15.4388Z" fill="white"/>
<path d="M53.9293 14.8494C53.623 15.0262 53.5793 15.4977 53.8563 15.6744C53.9438 15.7334 54.2355 15.8512 54.4688 15.9396C54.7168 16.0133 54.9063 16.1901 54.9063 16.3079C54.9063 16.632 54.2355 16.6762 54.0022 16.3669C53.7688 16.0428 53.5501 16.2343 53.7543 16.5731C53.9438 16.8825 54.7751 16.9856 55.0668 16.7352C55.4751 16.3963 55.3001 16.0133 54.6001 15.7186C53.9001 15.4093 53.798 15.0999 54.3813 15.0115C54.5709 14.982 54.7897 15.0704 54.9063 15.2325C55.0084 15.3798 55.1543 15.4387 55.2272 15.3798C55.373 15.2178 54.7459 14.6874 54.4105 14.6874C54.2793 14.6874 54.0605 14.7611 53.9293 14.8494Z" fill="white"/>
<path d="M32.2142 15.8071C31.8059 16.7499 31.7622 17.2508 32.1413 16.7058C32.3892 16.3669 33.2351 16.3669 33.483 16.7058C33.8476 17.2214 33.833 16.7794 33.4392 15.8218C33.2059 15.2767 32.9434 14.8348 32.8413 14.8348C32.7392 14.8348 32.4622 15.2767 32.2142 15.8071ZM33.0601 15.7187C33.2205 16.1459 33.2059 16.1607 32.8122 16.1607C32.4038 16.1607 32.3892 16.1459 32.5351 15.7187C32.6226 15.4683 32.7392 15.2767 32.7976 15.2767C32.8559 15.2767 32.9726 15.4683 33.0601 15.7187Z" fill="white"/>
<path d="M37.8872 14.9378C38.2226 14.9673 38.4997 15.041 38.4997 15.0852C38.4997 15.1294 38.2372 15.4829 37.9163 15.866C37.5955 16.249 37.333 16.6468 37.333 16.7352C37.333 16.8383 37.6393 16.8972 38.1351 16.8972C39.0684 16.8972 39.2288 16.6468 38.3393 16.5731L37.7268 16.5289L38.3393 15.7923C38.6601 15.3945 38.9372 15.0115 38.9372 14.9526C38.9372 14.8789 38.558 14.8494 38.1059 14.8642C37.3768 14.8789 37.3476 14.8936 37.8872 14.9378Z" fill="white"/>
<path d="M42.8311 15.8219C42.4373 16.7795 42.4228 17.2214 42.7873 16.7058C43.0353 16.367 43.8811 16.367 44.129 16.7058C44.4936 17.2214 44.479 16.7795 44.0853 15.8219C43.8373 15.2179 43.5894 14.8348 43.4582 14.8348C43.3269 14.8348 43.079 15.2179 42.8311 15.8219ZM43.7061 15.7188C43.8665 16.146 43.8519 16.1607 43.4582 16.1607C43.0498 16.1607 43.0353 16.146 43.1811 15.7188C43.2686 15.4683 43.3853 15.2768 43.4436 15.2768C43.5019 15.2768 43.6186 15.4683 43.7061 15.7188Z" fill="white"/>
<path d="M58.9601 14.938C59.3392 14.9969 59.3538 15.0263 59.3538 15.9545C59.3538 17.1625 59.6163 17.192 59.6747 15.9839C59.7184 15.1442 59.7476 15.0558 60.083 14.9674C60.3163 14.9085 60.0976 14.8643 59.4997 14.8643C58.9747 14.879 58.7267 14.9085 58.9601 14.938Z" fill="white"/>
<path d="M64.2686 15.8219C63.8748 16.7795 63.8603 17.2214 64.2248 16.7058C64.4728 16.367 65.3186 16.367 65.5665 16.7058C65.6686 16.8531 65.7853 16.9268 65.829 16.8826C65.9748 16.7353 65.0707 14.8348 64.8665 14.8348C64.7644 14.8348 64.5019 15.2768 64.2686 15.8219ZM65.1873 15.9692C65.1873 16.0723 65.0269 16.1607 64.8373 16.1607C64.4873 16.1607 64.4873 16.1313 64.6332 15.6893C64.779 15.2621 64.8082 15.2473 64.9978 15.4978C65.0998 15.6598 65.1873 15.8661 65.1873 15.9692Z" fill="white"/>
<path d="M69.417 15.866C69.417 17.0445 69.6649 17.2803 69.7378 16.1459L69.7816 15.4093L70.3357 16.1459C70.6274 16.5584 70.9482 16.8972 71.0212 16.8972C71.1087 16.8972 71.167 16.4405 71.167 15.866C71.167 15.2767 71.1087 14.8347 71.0212 14.8347C70.9482 14.8347 70.8753 15.1294 70.8753 15.4977C70.8753 15.866 70.8316 16.1606 70.7732 16.1606C70.7003 16.1459 70.4378 15.8512 70.1753 15.4977C69.9128 15.1294 69.6357 14.8347 69.5628 14.8347C69.4753 14.8347 69.417 15.2914 69.417 15.866Z" fill="white"/>
<path d="M0.875 16.0133V16.8972H9.84375H18.8125V16.0133V15.1294H9.84375H0.875V16.0133Z" fill="white"/>
</svg>
