<svg display="none" xmlns="http://www.w3.org/2000/svg">
  <symbol id="star" width="11" height="11" viewBox="0 0 11 11" fill="none" xmlns="http://www.w3.org/2000/svg">
    <path d="M5.43953 8.80547L7.82566 10.2486C8.26264 10.5131 8.79736 10.1222 8.68237 9.62768L8.0499 6.91382L10.16 5.08541C10.5453 4.75193 10.3383 4.11946 9.83231 4.07921L7.0552 3.84347L5.9685 1.2791C5.77301 0.813378 5.10605 0.813378 4.91056 1.2791L3.82386 3.83772L1.04675 4.07346C0.540781 4.11371 0.333791 4.74618 0.719022 5.07966L2.82916 6.90807L2.1967 9.62193C2.0817 10.1164 2.61642 10.5074 3.0534 10.2429L5.43953 8.80547Z" fill="#FFD585"/>
  </symbol>

  <symbol id="star-gray" width="11" height="11" viewBox="0 0 11 11" fill="none" xmlns="http://www.w3.org/2000/svg">
    <path d="M5.43953 8.80547L7.82566 10.2486C8.26264 10.5131 8.79736 10.1222 8.68237 9.62768L8.0499 6.91382L10.16 5.08541C10.5453 4.75193 10.3383 4.11946 9.83231 4.07921L7.0552 3.84347L5.9685 1.2791C5.77301 0.813378 5.10605 0.813378 4.91056 1.2791L3.82386 3.83772L1.04675 4.07346C0.540781 4.11371 0.333791 4.74618 0.719022 5.07966L2.82916 6.90807L2.1967 9.62193C2.0817 10.1164 2.61642 10.5074 3.0534 10.2429L5.43953 8.80547Z" fill="#E7E7E7"/>
  </symbol>

  <symbol id="check" width="25" height="25" viewBox="0 0 25 25" fill="none" xmlns="http://www.w3.org/2000/svg">
    <path d="M22.3735 3.92911C21.2345 4.52443 19.4345 5.65411 18.2579 6.51193C15.9001 8.22755 13.7954 10.2572 12.3188 12.2494C11.7282 13.0416 11.2454 13.801 10.8517 14.5463L10.5517 15.1041L10.3642 14.8885C10.2563 14.7666 9.57196 13.9744 8.83603 13.126C8.10009 12.2776 7.43915 11.5463 7.35946 11.5041C7.2329 11.4385 6.97509 11.4291 4.88446 11.4432L2.5454 11.4572L2.4329 11.5885C2.25009 11.8041 2.27822 12.0338 2.52197 12.3151C2.62978 12.4416 4.7204 14.7104 7.16728 17.3541C9.76415 20.1619 11.6673 22.1822 11.7423 22.2151C11.9298 22.2901 12.1923 22.201 12.2767 22.0369C12.3095 21.9666 12.4267 21.5822 12.5345 21.1838C13.8001 16.4916 16.3829 11.7666 19.8376 7.81505C20.5642 6.98536 21.8813 5.65411 22.6266 5.00255C22.9782 4.69786 23.2782 4.41193 23.2923 4.37443C23.3345 4.26193 23.3251 4.03224 23.2735 3.92911C23.2173 3.83068 22.9923 3.69943 22.8798 3.69943C22.8376 3.69943 22.6126 3.80255 22.3735 3.92911Z" fill="white"/>
  </symbol>

  <symbol id="arrow-with-circle-right" width="39" height="39" viewBox="0 0 39 39" fill="none" xmlns="http://www.w3.org/2000/svg">
    <rect x="0.854492" y="0.896973" width="38" height="38" rx="19" fill="white"/>
    <g clip-path="url(#clip0_177_4787)">
    <path d="M16.3899 26.6546C16.7574 27.0221 17.3499 27.0221 17.7174 26.6546L23.9499 20.4221C24.2424 20.1296 24.2424 19.6571 23.9499 19.3646L17.7174 13.1321C17.3499 12.7646 16.7574 12.7646 16.3899 13.1321C16.0224 13.4996 16.0224 14.0921 16.3899 14.4596L21.8199 19.8971L16.3824 25.3346C16.0224 25.6946 16.0224 26.2946 16.3899 26.6546Z" fill="#141516"/>
    </g>
    <defs>
    <clipPath id="clip0_177_4787">
    <rect width="18" height="18" fill="white" transform="translate(10.8545 10.897)"/>
    </clipPath>
    </defs>
  </symbol>

  <symbol id="x" width="33" height="33" viewBox="0 0 33 33" fill="none" xmlns="http://www.w3.org/2000/svg">
    <g clip-path="url(#clip0_177_4786)">
    <path d="M24.8472 7.74367C24.3272 7.22367 23.4872 7.22367 22.9672 7.74367L16.4472 14.2503L9.92723 7.73033C9.40723 7.21033 8.56723 7.21033 8.04723 7.73033C7.52723 8.25033 7.52723 9.09033 8.04723 9.61033L14.5672 16.1303L8.04723 22.6503C7.52723 23.1703 7.52723 24.0103 8.04723 24.5303C8.56723 25.0503 9.40723 25.0503 9.92723 24.5303L16.4472 18.0103L22.9672 24.5303C23.4872 25.0503 24.3272 25.0503 24.8472 24.5303C25.3672 24.0103 25.3672 23.1703 24.8472 22.6503L18.3272 16.1303L24.8472 9.61033C25.3539 9.10367 25.3539 8.25033 24.8472 7.74367Z" fill="white"/>
    </g>
    <defs>
    <clipPath id="clip0_177_4786">
    <rect width="32" height="32" fill="white" transform="translate(0.447266 0.130371)"/>
    </clipPath>
    </defs>
  </symbol>

  <symbol id="zoom" width="48" height="48" viewBox="0 0 48 48" fill="none" xmlns="http://www.w3.org/2000/svg">
    <path d="M15.1465 24.7487C14.595 24.7487 14.1495 25.1942 14.1495 25.7457V32.237C14.1495 32.7885 14.595 33.234 15.1465 33.234L21.6378 33.234C22.1893 33.234 22.6348 32.7885 22.6348 32.237C22.6348 31.6854 22.1893 31.24 21.6378 31.24L16.1436 31.2329V25.7457C16.1436 25.1942 15.6839 24.7487 15.1465 24.7487Z" fill="black"/>
    <path d="M24.7485 15.1462C24.7485 15.6978 25.194 16.1432 25.7456 16.1432L31.2327 16.1432L31.2327 21.6304C31.2327 22.1819 31.6782 22.6274 32.2297 22.6274C32.7813 22.6274 33.2267 22.1819 33.2267 21.6304L33.2267 15.1391C33.2267 14.5876 32.7813 14.1421 32.2297 14.1421L25.7385 14.1421C25.2011 14.1421 24.7485 14.5947 24.7485 15.1462Z" fill="black"/>
  </symbol>

  <symbol id="arrow-back" width="24" height="24" viewBox="0 0 24 24" fill="none" xmlns="http://www.w3.org/2000/svg">
    <g clip-path="url(#clip0_47_4250)">
    <path d="M16.6205 2.99C16.1305 2.5 15.3405 2.5 14.8505 2.99L6.54055 11.3C6.15055 11.69 6.15055 12.32 6.54055 12.71L14.8505 21.02C15.3405 21.51 16.1305 21.51 16.6205 21.02C17.1105 20.53 17.1105 19.74 16.6205 19.25L9.38055 12L16.6305 4.75C17.1105 4.27 17.1105 3.47 16.6205 2.99Z" fill="#505050"/>
    </g>
    <defs>
    <clipPath id="clip0_47_4250">
    <rect width="24" height="24" fill="white"/>
    </clipPath>
    </defs>
  </symbol>

  <symbol id="arrow-next" width="24" height="24" viewBox="0 0 24 24" fill="none" xmlns="http://www.w3.org/2000/svg">
    <g clip-path="url(#clip0_47_4247)">
    <path d="M7.38048 21.01C7.87048 21.5 8.66048 21.5 9.15048 21.01L17.4605 12.7C17.8505 12.31 17.8505 11.68 17.4605 11.29L9.15048 2.98C8.66048 2.49 7.87048 2.49 7.38048 2.98C6.89048 3.47 6.89048 4.26 7.38048 4.75L14.6205 12L7.37048 19.25C6.89048 19.73 6.89048 20.53 7.38048 21.01V21.01Z" fill="#505050"/>
    </g>
    <defs>
    <clipPath id="clip0_47_4247">
    <rect width="24" height="24" fill="white"/>
    </clipPath>
    </defs>
  </symbol>

  <symbol id="docs" width="39" height="39" viewBox="0 0 39 39" xmlns="http://www.w3.org/2000/svg">
    <g clip-path="url(#clip0_477_8181)">
    <path d="M22.9368 21.9947L25.1534 18.163C25.2959 17.9255 25.2326 17.6247 25.0268 17.4505L22.6834 15.6139C22.7309 15.2655 22.7626 14.9014 22.7626 14.5372C22.7626 14.173 22.7309 13.8089 22.6834 13.4447L25.0268 11.608C25.2326 11.4339 25.2959 11.133 25.1534 10.8955L22.9368 7.06386C22.7943 6.82636 22.5093 6.73136 22.2559 6.82636L19.5009 7.93469C18.9309 7.49136 18.3134 7.12719 17.6326 6.84219L17.2209 3.91302C17.1734 3.65969 16.9359 3.45386 16.6668 3.45386H12.2334C11.9643 3.45386 11.7268 3.65969 11.6793 3.92886L11.2676 6.85802C10.6026 7.14302 9.96927 7.50719 9.39927 7.95052L6.64427 6.84219C6.39094 6.74719 6.10594 6.84219 5.96344 7.07969L3.74677 10.9114C3.60427 11.1489 3.66761 11.4497 3.87344 11.6239L6.21677 13.4605C6.16927 13.8089 6.13761 14.173 6.13761 14.5372C6.13761 14.9014 6.16927 15.2655 6.21677 15.6297L3.87344 17.4664C3.66761 17.6405 3.60427 17.9414 3.74677 18.1789L5.96344 22.0105C6.10594 22.248 6.39094 22.343 6.64427 22.248L9.39927 21.1397C9.96927 21.583 10.5868 21.9472 11.2676 22.2322L11.6793 25.1613C11.7268 25.4147 11.9643 25.6205 12.2334 25.6205H16.6668C16.9359 25.6205 17.1734 25.4147 17.2209 25.1455L17.6326 22.2164C18.2976 21.9314 18.9309 21.5672 19.5009 21.1239L22.2559 22.2322C22.5093 22.3272 22.7943 22.2322 22.9368 21.9947ZM14.4501 17.7039C12.7084 17.7039 11.2834 16.2789 11.2834 14.5372C11.2834 12.7955 12.7084 11.3705 14.4501 11.3705C16.1918 11.3705 17.6168 12.7955 17.6168 14.5372C17.6168 16.2789 16.1918 17.7039 14.4501 17.7039Z"/>
    <path d="M35.2083 29.8481L33.6882 28.6764C33.7199 28.4548 33.7516 28.2173 33.7516 27.9798C33.7516 27.7423 33.7357 27.5048 33.6882 27.2831L35.1924 26.1114C35.3191 26.0006 35.3666 25.8106 35.2716 25.6523L33.8466 23.1981C33.7674 23.0398 33.5774 22.9923 33.4033 23.0398L31.6458 23.7523C31.2816 23.4673 30.8858 23.2298 30.4424 23.0556L30.1733 21.1873C30.1574 20.9973 29.9991 20.8706 29.8408 20.8706H27.0066C26.8324 20.8706 26.6741 20.9973 26.6583 21.1714L26.3891 23.0398C25.9616 23.2298 25.5499 23.4514 25.1858 23.7364L23.4283 23.0239C23.2699 22.9606 23.0799 23.0239 22.9849 23.1823L21.5599 25.6364C21.4808 25.7948 21.4966 25.9848 21.6391 26.0956L23.1433 27.2673C23.1116 27.4889 23.0958 27.7264 23.0958 27.9639C23.0958 28.2014 23.1116 28.4389 23.1433 28.6606L21.6391 29.8323C21.5124 29.9431 21.4649 30.1331 21.5599 30.2914L22.9849 32.7456C23.0641 32.9039 23.2541 32.9514 23.4283 32.9039L25.1858 32.1914C25.5499 32.4764 25.9458 32.7139 26.3891 32.8881L26.6583 34.7564C26.6899 34.9306 26.8324 35.0573 27.0066 35.0573H29.8408C30.0149 35.0573 30.1733 34.9306 30.1891 34.7564L30.4583 32.8881C30.8858 32.6981 31.2974 32.4764 31.6458 32.1914L33.4191 32.9039C33.5774 32.9673 33.7674 32.9039 33.8624 32.7456L35.2874 30.2914C35.3824 30.1489 35.3349 29.9589 35.2083 29.8481ZM28.4158 30.1014C27.2441 30.1014 26.2783 29.1514 26.2783 27.9639C26.2783 26.7764 27.2283 25.8264 28.4158 25.8264C29.6033 25.8264 30.5533 26.7764 30.5533 27.9639C30.5533 29.1514 29.5874 30.1014 28.4158 30.1014Z"/>
    </g>
    <defs>
    <clipPath id="clip0_477_8181">
    <rect width="38" height="38" fill="white" transform="translate(0.5 0.287109)"/>
    </clipPath>
    </defs>
  </symbol>

  <symbol id="arrow-down" width="24" height="24" viewBox="0 0 24 24" fill="none" xmlns="http://www.w3.org/2000/svg">
    <g clip-path="url(#clip0_496_7907)">
    <path d="M8.71054 11.71L11.3005 14.3C11.6905 14.69 12.3205 14.69 12.7105 14.3L15.3005 11.71C15.9305 11.08 15.4805 10 14.5905 10H9.41054C8.52054 10 8.08054 11.08 8.71054 11.71Z" fill="black"/>
    </g>
    <defs>
    <clipPath id="clip0_496_7907">
    <rect width="24" height="24" fill="white"/>
    </clipPath>
    </defs>
  </symbol>

  <symbol id="pin" width="18" height="18" viewBox="0 0 18 18" fill="none" xmlns="http://www.w3.org/2000/svg">
    <g clip-path="url(#clip0_631_8529)">
    <path d="M9 9C9.825 9 10.5 8.325 10.5 7.5C10.5 6.675 9.825 6 9 6C8.175 6 7.5 6.675 7.5 7.5C7.5 8.325 8.175 9 9 9ZM9 1.5C12.15 1.5 15 3.915 15 7.65C15 10.035 13.1625 12.84 9.495 16.0725C9.21 16.32 8.7825 16.32 8.4975 16.0725C4.8375 12.84 3 10.035 3 7.65C3 3.915 5.85 1.5 9 1.5Z" fill="#B7B7B7"/>
    </g>
    <defs>
    <clipPath id="clip0_631_8529">
    <rect width="18" height="18" fill="white"/>
    </clipPath>
    </defs>
  </symbol>




</svg>