<svg display="none" xmlns="http://www.w3.org/2000/svg">
  <symbol id="logo-white" width="114" height="62" viewBox="0 0 114 62" fill="none" xmlns="http://www.w3.org/2000/svg">
    <g clip-path="url(#clip0_253_2953)">
    <path d="M16.8471 21.676C16.8471 23.9798 15.7376 25.5401 12.9277 25.5401H12.0399V18.2032C12.3555 18.1852 12.6503 18.1852 12.9277 18.1852C15.5883 18.185 16.8471 19.4478 16.8471 21.676ZM13.9629 28.7346C18.9905 28.7346 22.1693 26.1336 22.1693 21.6026C22.1691 16.6239 18.7684 14.8413 13.2235 14.8413C11.0791 14.8413 8.49142 14.9894 6.64355 15.2123V32.9703H12.0401V28.7346H13.9629ZM86.2685 21.676C86.2685 23.9798 85.1604 25.5401 82.3498 25.5401H81.465V18.2032C81.7779 18.1852 82.0731 18.1852 82.3498 18.1852C85.0107 18.185 86.2685 19.4478 86.2685 21.676ZM83.3875 28.7346C88.4111 28.7346 91.5916 26.1336 91.5916 21.6026C91.5916 16.6239 88.1915 14.8413 82.6461 14.8413C80.5022 14.8413 77.913 14.9894 76.0649 15.2123V32.9703H81.4642V28.7346H83.3875ZM98.6142 19.7443C98.6142 18.7788 99.5764 18.3324 101.127 18.3324C102.829 18.3324 104.678 18.7041 105.934 19.2262L105.491 15.3614C104.085 15.0641 102.829 14.8413 100.537 14.8413C96.175 14.8413 93.2186 16.5694 93.2186 20.1914C93.2186 26.4309 101.648 25.1688 101.648 28.0664C101.648 29.1797 100.834 29.7738 98.8366 29.7738C97.0649 29.7738 94.3274 29.1797 92.7012 28.3629L93.2942 32.4505C94.9192 33.0448 97.1372 33.341 98.9122 33.341C103.421 33.341 107.118 31.8547 107.118 27.3961C107.118 21.4545 98.6142 22.5678 98.6142 19.7443ZM72.0002 15.2123H66.6037V32.9703H72.0002V15.2123ZM50.1157 15.2123H44.7186V32.9703H50.1157V15.2123ZM59.505 29.4028V15.2123H54.1079V32.9703H63.8679L64.6804 29.4028H59.505ZM40.7266 15.2123H35.3295V22.2706H29.7105V15.2123H24.3125V32.9703H29.7103V25.9855H35.3293V32.9703H40.7263L40.7266 15.2123Z" fill="white"/>
    <path fill-rule="evenodd" clip-rule="evenodd" d="M-23.584 50.1851V61.9999H117.679V36.5649C113.127 44.6919 104.433 50.1851 94.456 50.1851C94.4558 50.1851 94.4556 50.1851 94.4554 50.1851H-23.584Z" fill="white"/>
    <path d="M10.2436 56.9649L11.0036 57.5729C11.2276 57.3489 11.3929 57.0769 11.4996 56.7569C11.6062 56.4316 11.6596 56.0929 11.6596 55.7409C11.6596 55.4529 11.6222 55.1703 11.5476 54.8929C11.4729 54.6103 11.3556 54.3569 11.1956 54.1329C11.0356 53.9089 10.8302 53.7303 10.5796 53.5969C10.3289 53.4583 10.0302 53.3889 9.68355 53.3889C9.33689 53.3889 9.03822 53.4583 8.78755 53.5969C8.53689 53.7303 8.33155 53.9089 8.17155 54.1329C8.01155 54.3569 7.89422 54.6103 7.81955 54.8929C7.74489 55.1703 7.70755 55.4529 7.70755 55.7409C7.70755 56.0289 7.74489 56.3143 7.81955 56.5969C7.89422 56.8743 8.01155 57.1249 8.17155 57.3489C8.33155 57.5729 8.53689 57.7543 8.78755 57.8929C9.03822 58.0263 9.33689 58.0929 9.68355 58.0929C9.95555 58.0929 10.2196 58.0396 10.4756 57.9329L9.84355 57.4289L10.2436 56.9649ZM11.9236 59.0849L11.0516 58.3889C10.6676 58.6129 10.2116 58.7249 9.68355 58.7249C9.23022 58.7249 8.83289 58.6449 8.49155 58.4849C8.15022 58.3196 7.86489 58.0983 7.63555 57.8209C7.40622 57.5436 7.23289 57.2263 7.11555 56.8689C7.00355 56.5063 6.94755 56.1303 6.94755 55.7409C6.94755 55.3516 7.00355 54.9783 7.11555 54.6209C7.23289 54.2583 7.40622 53.9383 7.63555 53.6609C7.86489 53.3836 8.15022 53.1623 8.49155 52.9969C8.83289 52.8316 9.23022 52.7489 9.68355 52.7489C10.1369 52.7489 10.5342 52.8316 10.8756 52.9969C11.2169 53.1623 11.5022 53.3836 11.7316 53.6609C11.9609 53.9383 12.1316 54.2583 12.2436 54.6209C12.3609 54.9783 12.4196 55.3516 12.4196 55.7409C12.4196 56.1783 12.3476 56.5943 12.2036 56.9889C12.0596 57.3836 11.8436 57.7249 11.5556 58.0129L12.3076 58.6049L11.9236 59.0849ZM16.8977 58.5809C16.7803 58.6503 16.6177 58.6849 16.4097 58.6849C16.2337 58.6849 16.0923 58.6369 15.9857 58.5409C15.8843 58.4396 15.8337 58.2769 15.8337 58.0529C15.647 58.2769 15.4283 58.4396 15.1777 58.5409C14.9323 58.6369 14.6657 58.6849 14.3777 58.6849C14.191 58.6849 14.0123 58.6636 13.8417 58.6209C13.6763 58.5783 13.5323 58.5116 13.4097 58.4209C13.287 58.3303 13.1883 58.2129 13.1137 58.0689C13.0443 57.9196 13.0097 57.7409 13.0097 57.5329C13.0097 57.2983 13.0497 57.1063 13.1297 56.9569C13.2097 56.8076 13.3137 56.6876 13.4417 56.5969C13.575 56.5009 13.7243 56.4289 13.8897 56.3809C14.0603 56.3329 14.2337 56.2929 14.4097 56.2609C14.5963 56.2236 14.7723 56.1969 14.9377 56.1809C15.1083 56.1596 15.2577 56.1329 15.3857 56.1009C15.5137 56.0636 15.615 56.0129 15.6897 55.9489C15.7643 55.8796 15.8017 55.7809 15.8017 55.6529C15.8017 55.5036 15.7723 55.3836 15.7137 55.2929C15.6603 55.2023 15.5883 55.1329 15.4977 55.0849C15.4123 55.0369 15.3137 55.0049 15.2017 54.9889C15.095 54.9729 14.9883 54.9649 14.8817 54.9649C14.5937 54.9649 14.3537 55.0209 14.1617 55.1329C13.9697 55.2396 13.8657 55.4449 13.8497 55.7489H13.1697C13.1803 55.4929 13.2337 55.2769 13.3297 55.1009C13.4257 54.9249 13.5537 54.7836 13.7137 54.6769C13.8737 54.5649 14.055 54.4849 14.2577 54.4369C14.4657 54.3889 14.687 54.3649 14.9217 54.3649C15.1083 54.3649 15.2923 54.3783 15.4737 54.4049C15.6603 54.4316 15.8283 54.4876 15.9777 54.5729C16.127 54.6529 16.247 54.7676 16.3377 54.9169C16.4283 55.0663 16.4737 55.2609 16.4737 55.5009V57.6289C16.4737 57.7889 16.4817 57.9063 16.4977 57.9809C16.519 58.0556 16.583 58.0929 16.6897 58.0929C16.7483 58.0929 16.8177 58.0796 16.8977 58.0529V58.5809ZM15.7937 56.4609C15.7083 56.5249 15.5963 56.5729 15.4577 56.6049C15.319 56.6316 15.1723 56.6556 15.0177 56.6769C14.8683 56.6929 14.7163 56.7143 14.5617 56.7409C14.407 56.7623 14.2683 56.7996 14.1457 56.8529C14.023 56.9063 13.9217 56.9836 13.8417 57.0849C13.767 57.1809 13.7297 57.3143 13.7297 57.4849C13.7297 57.5969 13.751 57.6929 13.7937 57.7729C13.8417 57.8476 13.9003 57.9089 13.9697 57.9569C14.0443 58.0049 14.1297 58.0396 14.2257 58.0609C14.3217 58.0823 14.423 58.0929 14.5297 58.0929C14.7537 58.0929 14.9457 58.0636 15.1057 58.0049C15.2657 57.9409 15.3963 57.8636 15.4977 57.7729C15.599 57.6769 15.6737 57.5756 15.7217 57.4689C15.7697 57.3569 15.7937 57.2529 15.7937 57.1569V56.4609ZM17.1946 58.0769L19.6906 55.0609H17.3546V54.4609H20.5706V54.9249L18.0426 57.9969H20.6826V58.5969H17.1946V58.0769ZM25.0383 58.5809C24.921 58.6503 24.7583 58.6849 24.5503 58.6849C24.3743 58.6849 24.233 58.6369 24.1263 58.5409C24.025 58.4396 23.9743 58.2769 23.9743 58.0529C23.7876 58.2769 23.569 58.4396 23.3183 58.5409C23.073 58.6369 22.8063 58.6849 22.5183 58.6849C22.3316 58.6849 22.153 58.6636 21.9823 58.6209C21.817 58.5783 21.673 58.5116 21.5503 58.4209C21.4276 58.3303 21.329 58.2129 21.2543 58.0689C21.185 57.9196 21.1503 57.7409 21.1503 57.5329C21.1503 57.2983 21.1903 57.1063 21.2703 56.9569C21.3503 56.8076 21.4543 56.6876 21.5823 56.5969C21.7156 56.5009 21.865 56.4289 22.0303 56.3809C22.201 56.3329 22.3743 56.2929 22.5503 56.2609C22.737 56.2236 22.913 56.1969 23.0783 56.1809C23.249 56.1596 23.3983 56.1329 23.5263 56.1009C23.6543 56.0636 23.7556 56.0129 23.8303 55.9489C23.905 55.8796 23.9423 55.7809 23.9423 55.6529C23.9423 55.5036 23.913 55.3836 23.8543 55.2929C23.801 55.2023 23.729 55.1329 23.6383 55.0849C23.553 55.0369 23.4543 55.0049 23.3423 54.9889C23.2356 54.9729 23.129 54.9649 23.0223 54.9649C22.7343 54.9649 22.4943 55.0209 22.3023 55.1329C22.1103 55.2396 22.0063 55.4449 21.9903 55.7489H21.3103C21.321 55.4929 21.3743 55.2769 21.4703 55.1009C21.5663 54.9249 21.6943 54.7836 21.8543 54.6769C22.0143 54.5649 22.1956 54.4849 22.3983 54.4369C22.6063 54.3889 22.8276 54.3649 23.0623 54.3649C23.249 54.3649 23.433 54.3783 23.6143 54.4049C23.801 54.4316 23.969 54.4876 24.1183 54.5729C24.2676 54.6529 24.3876 54.7676 24.4783 54.9169C24.569 55.0663 24.6143 55.2609 24.6143 55.5009V57.6289C24.6143 57.7889 24.6223 57.9063 24.6383 57.9809C24.6596 58.0556 24.7236 58.0929 24.8303 58.0929C24.889 58.0929 24.9583 58.0796 25.0383 58.0529V58.5809ZM23.9343 56.4609C23.849 56.5249 23.737 56.5729 23.5983 56.6049C23.4596 56.6316 23.313 56.6556 23.1583 56.6769C23.009 56.6929 22.857 56.7143 22.7023 56.7409C22.5476 56.7623 22.409 56.7996 22.2863 56.8529C22.1636 56.9063 22.0623 56.9836 21.9823 57.0849C21.9076 57.1809 21.8703 57.3143 21.8703 57.4849C21.8703 57.5969 21.8916 57.6929 21.9343 57.7729C21.9823 57.8476 22.041 57.9089 22.1103 57.9569C22.185 58.0049 22.2703 58.0396 22.3663 58.0609C22.4623 58.0823 22.5636 58.0929 22.6703 58.0929C22.8943 58.0929 23.0863 58.0636 23.2463 58.0049C23.4063 57.9409 23.537 57.8636 23.6383 57.7729C23.7396 57.6769 23.8143 57.5756 23.8623 57.4689C23.9103 57.3569 23.9343 57.2529 23.9343 57.1569V56.4609ZM26.1672 56.5649C26.1672 56.7569 26.1912 56.9463 26.2392 57.1329C26.2925 57.3143 26.3698 57.4769 26.4712 57.6209C26.5778 57.7649 26.7112 57.8796 26.8712 57.9649C27.0365 58.0503 27.2285 58.0929 27.4472 58.0929C27.6765 58.0929 27.8712 58.0476 28.0312 57.9569C28.1912 57.8663 28.3218 57.7489 28.4232 57.6049C28.5245 57.4556 28.5965 57.2876 28.6392 57.1009C28.6872 56.9143 28.7112 56.7249 28.7112 56.5329C28.7112 56.3303 28.6872 56.1356 28.6392 55.9489C28.5912 55.7569 28.5138 55.5889 28.4072 55.4449C28.3058 55.3009 28.1725 55.1863 28.0072 55.1009C27.8418 55.0103 27.6418 54.9649 27.4072 54.9649C27.1778 54.9649 26.9832 55.0103 26.8232 55.1009C26.6632 55.1916 26.5352 55.3116 26.4392 55.4609C26.3432 55.6103 26.2738 55.7809 26.2312 55.9729C26.1885 56.1649 26.1672 56.3623 26.1672 56.5649ZM29.3672 60.1729H28.6872V58.0369H28.6712C28.5592 58.2663 28.3832 58.4316 28.1432 58.5329C27.9032 58.6343 27.6392 58.6849 27.3512 58.6849C27.0312 58.6849 26.7512 58.6263 26.5112 58.5089C26.2765 58.3916 26.0792 58.2343 25.9192 58.0369C25.7645 57.8396 25.6472 57.6103 25.5672 57.3489C25.4872 57.0876 25.4472 56.8103 25.4472 56.5169C25.4472 56.2236 25.4845 55.9463 25.5592 55.6849C25.6392 55.4236 25.7565 55.1969 25.9112 55.0049C26.0712 54.8076 26.2685 54.6529 26.5032 54.5409C26.7432 54.4236 27.0205 54.3649 27.3352 54.3649C27.4418 54.3649 27.5565 54.3756 27.6792 54.3969C27.8018 54.4183 27.9245 54.4556 28.0472 54.5089C28.1698 54.5569 28.2845 54.6236 28.3912 54.7089C28.5032 54.7889 28.5965 54.8903 28.6712 55.0129H28.6872V54.4609H29.3672V60.1729ZM30.8294 57.2929C30.8347 57.4423 30.8694 57.5703 30.9334 57.6769C30.9974 57.7783 31.08 57.8609 31.1814 57.9249C31.288 57.9836 31.4054 58.0263 31.5334 58.0529C31.6667 58.0796 31.8027 58.0929 31.9414 58.0929C32.048 58.0929 32.16 58.0849 32.2774 58.0689C32.3947 58.0529 32.5014 58.0236 32.5974 57.9809C32.6987 57.9383 32.7814 57.8769 32.8454 57.7969C32.9094 57.7116 32.9414 57.6049 32.9414 57.4769C32.9414 57.3009 32.8747 57.1676 32.7414 57.0769C32.608 56.9863 32.44 56.9143 32.2374 56.8609C32.04 56.8023 31.824 56.7516 31.5894 56.7089C31.3547 56.6609 31.136 56.5969 30.9334 56.5169C30.736 56.4316 30.5707 56.3143 30.4374 56.1649C30.304 56.0156 30.2374 55.8076 30.2374 55.5409C30.2374 55.3329 30.2827 55.1543 30.3734 55.0049C30.4694 54.8556 30.5894 54.7356 30.7334 54.6449C30.8827 54.5489 31.048 54.4796 31.2294 54.4369C31.416 54.3889 31.6 54.3649 31.7814 54.3649C32.016 54.3649 32.232 54.3863 32.4294 54.4289C32.6267 54.4663 32.8 54.5356 32.9494 54.6369C33.104 54.7329 33.2267 54.8663 33.3174 55.0369C33.408 55.2023 33.4614 55.4103 33.4774 55.6609H32.7974C32.7867 55.5276 32.752 55.4183 32.6934 55.3329C32.6347 55.2423 32.56 55.1703 32.4694 55.1169C32.3787 55.0636 32.2774 55.0263 32.1654 55.0049C32.0587 54.9783 31.9494 54.9649 31.8374 54.9649C31.736 54.9649 31.632 54.9729 31.5254 54.9889C31.424 55.0049 31.3307 55.0343 31.2454 55.0769C31.16 55.1143 31.0907 55.1676 31.0374 55.2369C30.984 55.3009 30.9574 55.3863 30.9574 55.4929C30.9574 55.6103 30.9974 55.7089 31.0774 55.7889C31.1627 55.8636 31.2694 55.9276 31.3974 55.9809C31.5254 56.0289 31.6694 56.0716 31.8294 56.1089C31.9894 56.1409 32.1494 56.1756 32.3094 56.2129C32.48 56.2503 32.6454 56.2956 32.8054 56.3489C32.9707 56.4023 33.1147 56.4743 33.2374 56.5649C33.3654 56.6503 33.4667 56.7596 33.5414 56.8929C33.6214 57.0263 33.6614 57.1916 33.6614 57.3889C33.6614 57.6396 33.608 57.8476 33.5014 58.0129C33.4 58.1783 33.264 58.3116 33.0934 58.4129C32.928 58.5143 32.7387 58.5836 32.5254 58.6209C32.3174 58.6636 32.1094 58.6849 31.9014 58.6849C31.672 58.6849 31.4534 58.6609 31.2454 58.6129C31.0374 58.5649 30.8534 58.4876 30.6934 58.3809C30.5334 58.2689 30.4054 58.1249 30.3094 57.9489C30.2134 57.7676 30.16 57.5489 30.1494 57.2929H30.8294ZM35.3574 54.4609H36.1814V55.0609H35.3574V57.6289C35.3574 57.7089 35.3627 57.7729 35.3734 57.8209C35.3894 57.8689 35.416 57.9063 35.4534 57.9329C35.4907 57.9596 35.5414 57.9783 35.6054 57.9889C35.6747 57.9943 35.7627 57.9969 35.8694 57.9969H36.1814V58.5969H35.6614C35.4854 58.5969 35.3334 58.5863 35.2054 58.5649C35.0827 58.5383 34.9814 58.4929 34.9014 58.4289C34.8267 58.3649 34.7707 58.2743 34.7334 58.1569C34.696 58.0396 34.6774 57.8849 34.6774 57.6929V55.0609H33.9734V54.4609H34.6774V53.2209H35.3574V54.4609ZM40.6008 58.5809C40.4835 58.6503 40.3208 58.6849 40.1128 58.6849C39.9368 58.6849 39.7955 58.6369 39.6888 58.5409C39.5875 58.4396 39.5368 58.2769 39.5368 58.0529C39.3501 58.2769 39.1315 58.4396 38.8808 58.5409C38.6355 58.6369 38.3688 58.6849 38.0808 58.6849C37.8941 58.6849 37.7155 58.6636 37.5448 58.6209C37.3795 58.5783 37.2355 58.5116 37.1128 58.4209C36.9901 58.3303 36.8915 58.2129 36.8168 58.0689C36.7475 57.9196 36.7128 57.7409 36.7128 57.5329C36.7128 57.2983 36.7528 57.1063 36.8328 56.9569C36.9128 56.8076 37.0168 56.6876 37.1448 56.5969C37.2781 56.5009 37.4275 56.4289 37.5928 56.3809C37.7635 56.3329 37.9368 56.2929 38.1128 56.2609C38.2995 56.2236 38.4755 56.1969 38.6408 56.1809C38.8115 56.1596 38.9608 56.1329 39.0888 56.1009C39.2168 56.0636 39.3181 56.0129 39.3928 55.9489C39.4675 55.8796 39.5048 55.7809 39.5048 55.6529C39.5048 55.5036 39.4755 55.3836 39.4168 55.2929C39.3635 55.2023 39.2915 55.1329 39.2008 55.0849C39.1155 55.0369 39.0168 55.0049 38.9048 54.9889C38.7981 54.9729 38.6915 54.9649 38.5848 54.9649C38.2968 54.9649 38.0568 55.0209 37.8648 55.1329C37.6728 55.2396 37.5688 55.4449 37.5528 55.7489H36.8728C36.8835 55.4929 36.9368 55.2769 37.0328 55.1009C37.1288 54.9249 37.2568 54.7836 37.4168 54.6769C37.5768 54.5649 37.7581 54.4849 37.9608 54.4369C38.1688 54.3889 38.3901 54.3649 38.6248 54.3649C38.8115 54.3649 38.9955 54.3783 39.1768 54.4049C39.3635 54.4316 39.5315 54.4876 39.6808 54.5729C39.8301 54.6529 39.9501 54.7676 40.0408 54.9169C40.1315 55.0663 40.1768 55.2609 40.1768 55.5009V57.6289C40.1768 57.7889 40.1848 57.9063 40.2008 57.9809C40.2221 58.0556 40.2861 58.0929 40.3928 58.0929C40.4515 58.0929 40.5208 58.0796 40.6008 58.0529V58.5809ZM39.4968 56.4609C39.4115 56.5249 39.2995 56.5729 39.1608 56.6049C39.0221 56.6316 38.8755 56.6556 38.7208 56.6769C38.5715 56.6929 38.4195 56.7143 38.2648 56.7409C38.1101 56.7623 37.9715 56.7996 37.8488 56.8529C37.7261 56.9063 37.6248 56.9836 37.5448 57.0849C37.4701 57.1809 37.4328 57.3143 37.4328 57.4849C37.4328 57.5969 37.4541 57.6929 37.4968 57.7729C37.5448 57.8476 37.6035 57.9089 37.6728 57.9569C37.7475 58.0049 37.8328 58.0396 37.9288 58.0609C38.0248 58.0823 38.1261 58.0929 38.2328 58.0929C38.4568 58.0929 38.6488 58.0636 38.8088 58.0049C38.9688 57.9409 39.0995 57.8636 39.2008 57.7729C39.3021 57.6769 39.3768 57.5756 39.4248 57.4689C39.4728 57.3569 39.4968 57.2529 39.4968 57.1569V56.4609ZM41.2337 54.4609H41.8737V55.1169H41.8897C42.1723 54.6156 42.6203 54.3649 43.2337 54.3649C43.5057 54.3649 43.7323 54.4023 43.9137 54.4769C44.095 54.5516 44.2417 54.6556 44.3537 54.7889C44.4657 54.9223 44.543 55.0823 44.5857 55.2689C44.6337 55.4503 44.6577 55.6529 44.6577 55.8769V58.5969H43.9777V55.7969C43.9777 55.5409 43.903 55.3383 43.7537 55.1889C43.6043 55.0396 43.399 54.9649 43.1377 54.9649C42.9297 54.9649 42.7483 54.9969 42.5937 55.0609C42.4443 55.1249 42.319 55.2156 42.2177 55.3329C42.1163 55.4503 42.039 55.5889 41.9857 55.7489C41.9377 55.9036 41.9137 56.0743 41.9137 56.2609V58.5969H41.2337V54.4609Z" fill="#2C2C2C"/>
    </g>
    <rect x="0.5" y="0.5" width="113" height="61" rx="2.5" stroke="white"/>
    <defs>
    <clipPath id="clip0_253_2953">
    <rect width="114" height="62" rx="3" fill="white"/>
    </clipPath>
    </defs>
  </symbol>

  <symbol id="star" width="11" height="11" viewBox="0 0 11 11" fill="none" xmlns="http://www.w3.org/2000/svg">
    <path d="M5.43953 8.80547L7.82566 10.2486C8.26264 10.5131 8.79736 10.1222 8.68237 9.62768L8.0499 6.91382L10.16 5.08541C10.5453 4.75193 10.3383 4.11946 9.83231 4.07921L7.0552 3.84347L5.9685 1.2791C5.77301 0.813378 5.10605 0.813378 4.91056 1.2791L3.82386 3.83772L1.04675 4.07346C0.540781 4.11371 0.333791 4.74618 0.719022 5.07966L2.82916 6.90807L2.1967 9.62193C2.0817 10.1164 2.61642 10.5074 3.0534 10.2429L5.43953 8.80547Z" fill="#FFD585"/>
  </symbol>

  <symbol id="star-gray" width="11" height="11" viewBox="0 0 11 11" fill="none" xmlns="http://www.w3.org/2000/svg">
    <path d="M5.43953 8.80547L7.82566 10.2486C8.26264 10.5131 8.79736 10.1222 8.68237 9.62768L8.0499 6.91382L10.16 5.08541C10.5453 4.75193 10.3383 4.11946 9.83231 4.07921L7.0552 3.84347L5.9685 1.2791C5.77301 0.813378 5.10605 0.813378 4.91056 1.2791L3.82386 3.83772L1.04675 4.07346C0.540781 4.11371 0.333791 4.74618 0.719022 5.07966L2.82916 6.90807L2.1967 9.62193C2.0817 10.1164 2.61642 10.5074 3.0534 10.2429L5.43953 8.80547Z" fill="#E7E7E7"/>
  </symbol>

  <symbol id="check" width="25" height="25" viewBox="0 0 25 25" fill="none" xmlns="http://www.w3.org/2000/svg">
    <path d="M22.3735 3.92911C21.2345 4.52443 19.4345 5.65411 18.2579 6.51193C15.9001 8.22755 13.7954 10.2572 12.3188 12.2494C11.7282 13.0416 11.2454 13.801 10.8517 14.5463L10.5517 15.1041L10.3642 14.8885C10.2563 14.7666 9.57196 13.9744 8.83603 13.126C8.10009 12.2776 7.43915 11.5463 7.35946 11.5041C7.2329 11.4385 6.97509 11.4291 4.88446 11.4432L2.5454 11.4572L2.4329 11.5885C2.25009 11.8041 2.27822 12.0338 2.52197 12.3151C2.62978 12.4416 4.7204 14.7104 7.16728 17.3541C9.76415 20.1619 11.6673 22.1822 11.7423 22.2151C11.9298 22.2901 12.1923 22.201 12.2767 22.0369C12.3095 21.9666 12.4267 21.5822 12.5345 21.1838C13.8001 16.4916 16.3829 11.7666 19.8376 7.81505C20.5642 6.98536 21.8813 5.65411 22.6266 5.00255C22.9782 4.69786 23.2782 4.41193 23.2923 4.37443C23.3345 4.26193 23.3251 4.03224 23.2735 3.92911C23.2173 3.83068 22.9923 3.69943 22.8798 3.69943C22.8376 3.69943 22.6126 3.80255 22.3735 3.92911Z" fill="white"/>
  </symbol>

  <symbol id="arrow-with-circle-right" width="39" height="39" viewBox="0 0 39 39" fill="none" xmlns="http://www.w3.org/2000/svg">
    <rect x="0.854492" y="0.896973" width="38" height="38" rx="19" fill="white"/>
    <g clip-path="url(#clip0_177_4787)">
    <path d="M16.3899 26.6546C16.7574 27.0221 17.3499 27.0221 17.7174 26.6546L23.9499 20.4221C24.2424 20.1296 24.2424 19.6571 23.9499 19.3646L17.7174 13.1321C17.3499 12.7646 16.7574 12.7646 16.3899 13.1321C16.0224 13.4996 16.0224 14.0921 16.3899 14.4596L21.8199 19.8971L16.3824 25.3346C16.0224 25.6946 16.0224 26.2946 16.3899 26.6546Z" fill="#141516"/>
    </g>
    <defs>
    <clipPath id="clip0_177_4787">
    <rect width="18" height="18" fill="white" transform="translate(10.8545 10.897)"/>
    </clipPath>
    </defs>
  </symbol>

  <symbol id="x" width="33" height="33" viewBox="0 0 33 33" fill="none" xmlns="http://www.w3.org/2000/svg">
    <g clip-path="url(#clip0_177_4786)">
    <path d="M24.8472 7.74367C24.3272 7.22367 23.4872 7.22367 22.9672 7.74367L16.4472 14.2503L9.92723 7.73033C9.40723 7.21033 8.56723 7.21033 8.04723 7.73033C7.52723 8.25033 7.52723 9.09033 8.04723 9.61033L14.5672 16.1303L8.04723 22.6503C7.52723 23.1703 7.52723 24.0103 8.04723 24.5303C8.56723 25.0503 9.40723 25.0503 9.92723 24.5303L16.4472 18.0103L22.9672 24.5303C23.4872 25.0503 24.3272 25.0503 24.8472 24.5303C25.3672 24.0103 25.3672 23.1703 24.8472 22.6503L18.3272 16.1303L24.8472 9.61033C25.3539 9.10367 25.3539 8.25033 24.8472 7.74367Z" fill="white"/>
    </g>
    <defs>
    <clipPath id="clip0_177_4786">
    <rect width="32" height="32" fill="white" transform="translate(0.447266 0.130371)"/>
    </clipPath>
    </defs>
  </symbol>

  <symbol id="zoom" width="48" height="48" viewBox="0 0 48 48" fill="none" xmlns="http://www.w3.org/2000/svg">
    <path d="M15.1465 24.7487C14.595 24.7487 14.1495 25.1942 14.1495 25.7457V32.237C14.1495 32.7885 14.595 33.234 15.1465 33.234L21.6378 33.234C22.1893 33.234 22.6348 32.7885 22.6348 32.237C22.6348 31.6854 22.1893 31.24 21.6378 31.24L16.1436 31.2329V25.7457C16.1436 25.1942 15.6839 24.7487 15.1465 24.7487Z" fill="black"/>
    <path d="M24.7485 15.1462C24.7485 15.6978 25.194 16.1432 25.7456 16.1432L31.2327 16.1432L31.2327 21.6304C31.2327 22.1819 31.6782 22.6274 32.2297 22.6274C32.7813 22.6274 33.2267 22.1819 33.2267 21.6304L33.2267 15.1391C33.2267 14.5876 32.7813 14.1421 32.2297 14.1421L25.7385 14.1421C25.2011 14.1421 24.7485 14.5947 24.7485 15.1462Z" fill="black"/>
  </symbol>

  <symbol id="arrow-back" width="24" height="24" viewBox="0 0 24 24" fill="none" xmlns="http://www.w3.org/2000/svg">
    <g clip-path="url(#clip0_47_4250)">
    <path d="M16.6205 2.99C16.1305 2.5 15.3405 2.5 14.8505 2.99L6.54055 11.3C6.15055 11.69 6.15055 12.32 6.54055 12.71L14.8505 21.02C15.3405 21.51 16.1305 21.51 16.6205 21.02C17.1105 20.53 17.1105 19.74 16.6205 19.25L9.38055 12L16.6305 4.75C17.1105 4.27 17.1105 3.47 16.6205 2.99Z" fill="#505050"/>
    </g>
    <defs>
    <clipPath id="clip0_47_4250">
    <rect width="24" height="24" fill="white"/>
    </clipPath>
    </defs>
  </symbol>

  <symbol id="arrow-next" width="24" height="24" viewBox="0 0 24 24" fill="none" xmlns="http://www.w3.org/2000/svg">
    <g clip-path="url(#clip0_47_4247)">
    <path d="M7.38048 21.01C7.87048 21.5 8.66048 21.5 9.15048 21.01L17.4605 12.7C17.8505 12.31 17.8505 11.68 17.4605 11.29L9.15048 2.98C8.66048 2.49 7.87048 2.49 7.38048 2.98C6.89048 3.47 6.89048 4.26 7.38048 4.75L14.6205 12L7.37048 19.25C6.89048 19.73 6.89048 20.53 7.38048 21.01V21.01Z" fill="#505050"/>
    </g>
    <defs>
    <clipPath id="clip0_47_4247">
    <rect width="24" height="24" fill="white"/>
    </clipPath>
    </defs>
  </symbol>

  <symbol id="docs" width="39" height="39" viewBox="0 0 39 39" xmlns="http://www.w3.org/2000/svg">
    <g clip-path="url(#clip0_477_8181)">
    <path d="M22.9368 21.9947L25.1534 18.163C25.2959 17.9255 25.2326 17.6247 25.0268 17.4505L22.6834 15.6139C22.7309 15.2655 22.7626 14.9014 22.7626 14.5372C22.7626 14.173 22.7309 13.8089 22.6834 13.4447L25.0268 11.608C25.2326 11.4339 25.2959 11.133 25.1534 10.8955L22.9368 7.06386C22.7943 6.82636 22.5093 6.73136 22.2559 6.82636L19.5009 7.93469C18.9309 7.49136 18.3134 7.12719 17.6326 6.84219L17.2209 3.91302C17.1734 3.65969 16.9359 3.45386 16.6668 3.45386H12.2334C11.9643 3.45386 11.7268 3.65969 11.6793 3.92886L11.2676 6.85802C10.6026 7.14302 9.96927 7.50719 9.39927 7.95052L6.64427 6.84219C6.39094 6.74719 6.10594 6.84219 5.96344 7.07969L3.74677 10.9114C3.60427 11.1489 3.66761 11.4497 3.87344 11.6239L6.21677 13.4605C6.16927 13.8089 6.13761 14.173 6.13761 14.5372C6.13761 14.9014 6.16927 15.2655 6.21677 15.6297L3.87344 17.4664C3.66761 17.6405 3.60427 17.9414 3.74677 18.1789L5.96344 22.0105C6.10594 22.248 6.39094 22.343 6.64427 22.248L9.39927 21.1397C9.96927 21.583 10.5868 21.9472 11.2676 22.2322L11.6793 25.1613C11.7268 25.4147 11.9643 25.6205 12.2334 25.6205H16.6668C16.9359 25.6205 17.1734 25.4147 17.2209 25.1455L17.6326 22.2164C18.2976 21.9314 18.9309 21.5672 19.5009 21.1239L22.2559 22.2322C22.5093 22.3272 22.7943 22.2322 22.9368 21.9947ZM14.4501 17.7039C12.7084 17.7039 11.2834 16.2789 11.2834 14.5372C11.2834 12.7955 12.7084 11.3705 14.4501 11.3705C16.1918 11.3705 17.6168 12.7955 17.6168 14.5372C17.6168 16.2789 16.1918 17.7039 14.4501 17.7039Z"/>
    <path d="M35.2083 29.8481L33.6882 28.6764C33.7199 28.4548 33.7516 28.2173 33.7516 27.9798C33.7516 27.7423 33.7357 27.5048 33.6882 27.2831L35.1924 26.1114C35.3191 26.0006 35.3666 25.8106 35.2716 25.6523L33.8466 23.1981C33.7674 23.0398 33.5774 22.9923 33.4033 23.0398L31.6458 23.7523C31.2816 23.4673 30.8858 23.2298 30.4424 23.0556L30.1733 21.1873C30.1574 20.9973 29.9991 20.8706 29.8408 20.8706H27.0066C26.8324 20.8706 26.6741 20.9973 26.6583 21.1714L26.3891 23.0398C25.9616 23.2298 25.5499 23.4514 25.1858 23.7364L23.4283 23.0239C23.2699 22.9606 23.0799 23.0239 22.9849 23.1823L21.5599 25.6364C21.4808 25.7948 21.4966 25.9848 21.6391 26.0956L23.1433 27.2673C23.1116 27.4889 23.0958 27.7264 23.0958 27.9639C23.0958 28.2014 23.1116 28.4389 23.1433 28.6606L21.6391 29.8323C21.5124 29.9431 21.4649 30.1331 21.5599 30.2914L22.9849 32.7456C23.0641 32.9039 23.2541 32.9514 23.4283 32.9039L25.1858 32.1914C25.5499 32.4764 25.9458 32.7139 26.3891 32.8881L26.6583 34.7564C26.6899 34.9306 26.8324 35.0573 27.0066 35.0573H29.8408C30.0149 35.0573 30.1733 34.9306 30.1891 34.7564L30.4583 32.8881C30.8858 32.6981 31.2974 32.4764 31.6458 32.1914L33.4191 32.9039C33.5774 32.9673 33.7674 32.9039 33.8624 32.7456L35.2874 30.2914C35.3824 30.1489 35.3349 29.9589 35.2083 29.8481ZM28.4158 30.1014C27.2441 30.1014 26.2783 29.1514 26.2783 27.9639C26.2783 26.7764 27.2283 25.8264 28.4158 25.8264C29.6033 25.8264 30.5533 26.7764 30.5533 27.9639C30.5533 29.1514 29.5874 30.1014 28.4158 30.1014Z"/>
    </g>
    <defs>
    <clipPath id="clip0_477_8181">
    <rect width="38" height="38" fill="white" transform="translate(0.5 0.287109)"/>
    </clipPath>
    </defs>
  </symbol>

  <symbol id="arrow-down" width="24" height="24" viewBox="0 0 24 24" fill="none" xmlns="http://www.w3.org/2000/svg">
    <g clip-path="url(#clip0_496_7907)">
    <path d="M8.71054 11.71L11.3005 14.3C11.6905 14.69 12.3205 14.69 12.7105 14.3L15.3005 11.71C15.9305 11.08 15.4805 10 14.5905 10H9.41054C8.52054 10 8.08054 11.08 8.71054 11.71Z" fill="black"/>
    </g>
    <defs>
    <clipPath id="clip0_496_7907">
    <rect width="24" height="24" fill="white"/>
    </clipPath>
    </defs>
  </symbol>


</svg>